<svg width="1240" height="367" viewBox="0 0 1240 367" fill="none" xmlns="http://www.w3.org/2000/svg">
<g clip-path="url(#clip0_250_12736)">
<rect width="1240" height="367" rx="53.913" fill="url(#paint0_linear_250_12736)"/>
<mask id="mask0_250_12736" style="mask-type:alpha" maskUnits="userSpaceOnUse" x="90" y="-5" width="295" height="378">
<path d="M292.783 20.2828C312.706 40.3896 312.706 72.9895 292.782 93.0961L192.758 194.041L198.361 199.695C192.937 194.222 192.763 194.048 192.757 194.043L192.689 194.111C192.647 194.153 192.588 194.213 192.512 194.291C192.359 194.447 192.137 194.673 191.856 194.963C191.293 195.542 190.489 196.377 189.509 197.41C187.552 199.475 184.878 202.353 182.019 205.599C176.526 211.835 169.579 220.279 166.267 226.964C164.164 231.208 163.384 236.344 163.102 240.906C162.956 243.253 162.932 245.66 162.99 248.028L149.783 234.7C126.023 210.721 126.023 171.845 149.783 147.866L242.771 54.0226C242.779 54.0148 242.787 54.0064 242.797 53.9976C242.865 53.9324 242.966 53.8369 243.094 53.7146C243.349 53.4699 243.718 53.1161 244.176 52.6747C245.092 51.792 246.367 50.5551 247.808 49.1348C250.656 46.3255 254.268 42.6836 257.014 39.6354C265.658 30.0395 273.485 19.21 277.242 13.3799C278.365 11.6373 279.514 9.76765 280.59 7.97747L292.783 20.2828Z" stroke="black" stroke-width="15.92"/>
<path d="M284.497 101.554V101.554C312.118 129.429 312.118 174.624 284.497 202.499L265.047 222.127L245.598 241.756C217.977 269.631 217.977 314.826 245.598 342.702V342.702" stroke="black" stroke-width="15.92"/>
<path d="M238.481 346.736L249.621 335.403L255.194 340.995C258.76 344.575 260.765 349.443 260.763 354.519L260.757 369.119L242.982 351.226L238.481 346.736Z" fill="black"/>
</mask>
<g mask="url(#mask0_250_12736)">
<rect x="90" y="-5" width="263.517" height="377.193" fill="white" fill-opacity="0.05"/>
</g>
<g clip-path="url(#clip1_250_12736)">
<path d="M468.086 117.027H490.839V215.891C490.839 226.411 488.368 235.732 483.426 243.854C478.484 251.928 471.536 258.289 462.582 262.937C453.627 267.537 443.132 269.836 431.095 269.836C419.107 269.836 408.636 267.537 399.682 262.937C390.728 258.289 383.78 251.928 378.838 243.854C373.896 235.732 371.425 226.411 371.425 215.891V117.027H394.104V214.056C394.104 220.857 395.596 226.9 398.581 232.184C401.615 237.469 405.896 241.628 411.425 244.662C416.954 247.646 423.511 249.139 431.095 249.139C438.728 249.139 445.309 247.646 450.838 244.662C456.416 241.628 460.673 237.469 463.609 232.184C466.594 226.9 468.086 220.857 468.086 214.056V117.027ZM645.134 117.027V267.341H624.29L547.885 157.101H546.491V267.341H523.812V117.027H544.803L621.281 227.414H622.675V117.027H645.134ZM726.878 267.341H678.217V117.027H728.419C743.147 117.027 755.796 120.037 766.365 126.055C776.934 132.024 785.032 140.612 790.658 151.817C796.334 162.973 799.172 176.355 799.172 191.964C799.172 207.622 796.31 221.077 790.585 232.331C784.909 243.585 776.689 252.246 765.924 258.313C755.16 264.332 742.144 267.341 726.878 267.341ZM700.896 247.524H725.63C737.08 247.524 746.597 245.371 754.181 241.065C761.765 236.711 767.441 230.423 771.209 222.203C774.976 213.934 776.86 203.854 776.86 191.964C776.86 180.172 774.976 170.165 771.209 161.945C767.49 153.725 761.936 147.486 754.548 143.229C747.16 138.972 737.985 136.844 727.025 136.844H700.896V247.524ZM850.054 117.027V267.341H827.374V117.027H850.054ZM875.669 136.55V117.027H992V136.55H945.1V267.341H922.495V136.55H875.669ZM1006.11 117.027H1031.87L1071.14 185.358H1072.75L1112.02 117.027H1137.78L1083.25 208.331V267.341H1060.64V208.331L1006.11 117.027Z" fill="white" fill-opacity="0.05"/>
</g>
<mask id="mask1_250_12736" style="mask-type:alpha" maskUnits="userSpaceOnUse" x="445" y="121" width="98" height="125">
<path d="M512.005 129.354C518.588 135.998 518.588 146.769 512.005 153.413L478.872 186.851C478.821 186.902 478.749 186.977 478.656 187.073C478.47 187.264 478.204 187.54 477.881 187.882C477.234 188.564 476.35 189.515 475.406 190.588C473.591 192.648 471.295 195.438 470.201 197.647C469.506 199.049 469.248 200.747 469.155 202.254C469.107 203.03 469.099 203.825 469.118 204.607L464.753 200.203C456.903 192.28 456.903 179.434 464.754 171.511L495.488 140.494L495.586 140.401C495.67 140.32 495.793 140.202 495.944 140.057C496.246 139.765 496.668 139.357 497.143 138.888C498.085 137.959 499.279 136.756 500.186 135.749C503.042 132.578 505.628 128.999 506.87 127.073C507.241 126.497 507.619 125.879 507.975 125.287L512.005 129.354Z" stroke="black" stroke-width="5.26036"/>
<path d="M509.267 156.208V156.208C518.393 165.419 518.393 180.352 509.267 189.563L502.84 196.049L496.414 202.535C487.287 211.745 487.287 226.679 496.414 235.89V235.89" stroke="black" stroke-width="5.26036"/>
<path d="M494.062 237.223L497.743 233.478L499.584 235.326C500.763 236.509 501.425 238.117 501.425 239.794L501.423 244.619L495.549 238.706L494.062 237.223Z" fill="black"/>
</mask>
<g mask="url(#mask1_250_12736)">
<rect x="445" y="121" width="87.0729" height="124.634" fill="url(#paint1_linear_250_12736)"/>
</g>
<g clip-path="url(#clip2_250_12736)">
<path d="M569.929 161.236H577.447V193.903C577.447 197.379 576.631 200.459 574.998 203.143C573.365 205.81 571.069 207.912 568.11 209.448C565.152 210.968 561.684 211.728 557.706 211.728C553.745 211.728 550.285 210.968 547.327 209.448C544.368 207.912 542.072 205.81 540.439 203.143C538.806 200.459 537.99 197.379 537.99 193.903V161.236H545.484V193.297C545.484 195.544 545.977 197.541 546.963 199.287C547.965 201.033 549.38 202.407 551.207 203.41C553.034 204.396 555.2 204.889 557.706 204.889C560.229 204.889 562.403 204.396 564.23 203.41C566.073 202.407 567.48 201.033 568.45 199.287C569.436 197.541 569.929 195.544 569.929 193.297V161.236ZM628.43 161.236V210.903H621.543L596.297 174.477H595.836V210.903H588.342V161.236H595.278L620.549 197.71H621.009V161.236H628.43ZM655.441 210.903H639.362V161.236H655.95C660.816 161.236 664.996 162.23 668.488 164.219C671.98 166.191 674.656 169.029 676.515 172.731C678.391 176.417 679.329 180.839 679.329 185.997C679.329 191.171 678.383 195.617 676.491 199.335C674.616 203.054 671.899 205.916 668.343 207.92C664.786 209.909 660.485 210.903 655.441 210.903ZM646.856 204.355H655.028C658.812 204.355 661.956 203.644 664.462 202.221C666.968 200.782 668.844 198.705 670.089 195.989C671.334 193.256 671.956 189.926 671.956 185.997C671.956 182.1 671.334 178.794 670.089 176.078C668.86 173.362 667.025 171.3 664.584 169.894C662.142 168.487 659.111 167.784 655.489 167.784H646.856V204.355ZM696.141 161.236V210.903H688.647V161.236H696.141ZM704.605 167.687V161.236H743.044V167.687H727.547V210.903H720.077V167.687H704.605ZM747.706 161.236H756.218L769.193 183.814H769.727L782.701 161.236H791.214L773.195 191.405V210.903H765.725V191.405L747.706 161.236Z" fill="white"/>
</g>
</g>
<defs>
<linearGradient id="paint0_linear_250_12736" x1="0" y1="183.5" x2="1240" y2="183.5" gradientUnits="userSpaceOnUse">
<stop stop-color="#04045C"/>
<stop offset="1" stop-color="#04045C"/>
</linearGradient>
<linearGradient id="paint1_linear_250_12736" x1="445" y1="121" x2="545.217" y2="233.974" gradientUnits="userSpaceOnUse">
<stop stop-color="#6961FF"/>
<stop offset="1" stop-color="#D8E0FB"/>
</linearGradient>
<clipPath id="clip0_250_12736">
<rect width="1240" height="367" rx="53.913" fill="white"/>
</clipPath>
<clipPath id="clip1_250_12736">
<rect width="800.889" height="232.516" fill="white" transform="translate(348.351 67.3408)"/>
</clipPath>
<clipPath id="clip2_250_12736">
<rect width="264.634" height="76.8293" fill="white" transform="translate(530.366 144.903)"/>
</clipPath>
</defs>
</svg>
