<svg width="1240" height="641" viewBox="0 0 1240 641" fill="none" xmlns="http://www.w3.org/2000/svg">
<rect width="1240" height="641" rx="40" fill="#1C247C" fill-opacity="0.3"/>
<mask id="mask0_250_12747" style="mask-type:alpha" maskUnits="userSpaceOnUse" x="90" y="132" width="295" height="378">
<path d="M292.783 157.283C312.706 177.39 312.706 209.99 292.782 230.097L192.758 331.042L198.361 336.696C192.937 331.222 192.763 331.048 192.757 331.043L192.689 331.112C192.647 331.154 192.588 331.214 192.512 331.291C192.359 331.447 192.137 331.674 191.856 331.964C191.293 332.543 190.489 333.377 189.509 334.411C187.552 336.476 184.878 339.354 182.019 342.6C176.526 348.836 169.579 357.28 166.267 363.964C164.164 368.209 163.384 373.344 163.102 377.907C162.956 380.253 162.932 382.66 162.99 385.029L149.783 371.7C126.023 347.722 126.023 308.845 149.783 284.867L242.771 191.023C242.779 191.015 242.787 191.007 242.797 190.998C242.865 190.933 242.966 190.837 243.094 190.715C243.349 190.47 243.718 190.117 244.176 189.675C245.092 188.793 246.367 187.556 247.808 186.135C250.656 183.326 254.268 179.684 257.014 176.636C265.658 167.04 273.485 156.21 277.242 150.38C278.365 148.638 279.514 146.768 280.59 144.978L292.783 157.283Z" stroke="black" stroke-width="15.92"/>
<path d="M284.497 238.555V238.555C312.118 266.43 312.118 311.625 284.497 339.5L265.047 359.128L245.598 378.757C217.977 406.632 217.977 451.827 245.598 479.702V479.702" stroke="black" stroke-width="15.92"/>
<path d="M238.481 483.731L249.621 472.398L255.194 477.991C258.76 481.571 260.765 486.438 260.763 491.514L260.757 506.115L242.982 488.222L238.481 483.731Z" fill="black"/>
</mask>
<g mask="url(#mask0_250_12747)">
<rect x="90" y="132" width="263.517" height="377.193" fill="#04045C" fill-opacity="0.05"/>
</g>
<g clip-path="url(#clip0_250_12747)">
<path d="M468.086 254.028H490.839V352.892C490.839 363.412 488.368 372.733 483.426 380.855C478.484 388.929 471.536 395.29 462.582 399.938C453.627 404.538 443.132 406.837 431.095 406.837C419.107 406.837 408.636 404.538 399.682 399.938C390.728 395.29 383.78 388.929 378.838 380.855C373.896 372.733 371.425 363.412 371.425 352.892V254.028H394.104V351.057C394.104 357.858 395.596 363.901 398.581 369.185C401.615 374.47 405.896 378.629 411.425 381.663C416.954 384.647 423.511 386.14 431.095 386.14C438.728 386.14 445.309 384.647 450.838 381.663C456.416 378.629 460.673 374.47 463.609 369.185C466.594 363.901 468.086 357.858 468.086 351.057V254.028ZM645.134 254.028V404.342H624.29L547.885 294.102H546.491V404.342H523.812V254.028H544.803L621.281 364.415H622.675V254.028H645.134ZM726.878 404.342H678.217V254.028H728.419C743.147 254.028 755.796 257.037 766.365 263.056C776.934 269.025 785.032 277.613 790.658 288.818C796.334 299.974 799.172 313.356 799.172 328.965C799.172 344.623 796.31 358.078 790.585 369.332C784.909 380.586 776.689 389.247 765.924 395.314C755.16 401.333 742.144 404.342 726.878 404.342ZM700.896 384.525H725.63C737.08 384.525 746.597 382.372 754.181 378.066C761.765 373.712 767.441 367.424 771.209 359.204C774.976 350.935 776.86 340.855 776.86 328.965C776.86 317.173 774.976 307.166 771.209 298.946C767.49 290.726 761.936 284.487 754.548 280.23C747.16 275.973 737.985 273.845 727.025 273.845H700.896V384.525ZM850.054 254.028V404.342H827.374V254.028H850.054ZM875.669 273.551V254.028H992V273.551H945.1V404.342H922.495V273.551H875.669ZM1006.11 254.028H1031.87L1071.14 322.359H1072.75L1112.02 254.028H1137.78L1083.25 345.332V404.342H1060.64V345.332L1006.11 254.028Z" fill="#04045C" fill-opacity="0.05"/>
</g>
<path d="M625.714 208V180H638.394C640.208 180 641.834 180.387 643.274 181.16C644.714 181.933 645.848 183 646.674 184.36C647.528 185.693 647.954 187.227 647.954 188.96C647.954 190.72 647.528 192.293 646.674 193.68C645.848 195.067 644.714 196.173 643.274 197C641.834 197.8 640.208 198.2 638.394 198.2H632.234V208H625.714ZM641.274 208L634.154 195.32L641.154 194.32L649.074 208.04L641.274 208ZM632.234 192.88H637.794C638.488 192.88 639.088 192.733 639.594 192.44C640.128 192.12 640.528 191.693 640.794 191.16C641.088 190.627 641.234 190.013 641.234 189.32C641.234 188.6 641.061 187.973 640.714 187.44C640.394 186.907 639.928 186.493 639.314 186.2C638.728 185.88 638.021 185.72 637.194 185.72H632.234V192.88ZM662.577 208.4C660.231 208.4 658.177 207.933 656.417 207C654.684 206.067 653.337 204.787 652.377 203.16C651.444 201.507 650.977 199.627 650.977 197.52C650.977 195.867 651.244 194.36 651.777 193C652.311 191.613 653.057 190.427 654.017 189.44C655.004 188.453 656.151 187.693 657.457 187.16C658.791 186.6 660.244 186.32 661.817 186.32C663.311 186.32 664.671 186.587 665.897 187.12C667.124 187.653 668.191 188.4 669.097 189.36C670.004 190.32 670.697 191.453 671.177 192.76C671.657 194.067 671.884 195.493 671.857 197.04L671.817 198.8H654.937L653.977 195.16H666.577L665.897 195.88V195.08C665.844 194.413 665.631 193.84 665.257 193.36C664.911 192.853 664.444 192.453 663.857 192.16C663.297 191.867 662.657 191.72 661.937 191.72C660.871 191.72 659.964 191.933 659.217 192.36C658.497 192.76 657.951 193.347 657.577 194.12C657.204 194.893 657.017 195.853 657.017 197C657.017 198.147 657.257 199.16 657.737 200.04C658.244 200.92 658.964 201.6 659.897 202.08C660.857 202.56 661.991 202.8 663.297 202.8C664.177 202.8 664.977 202.667 665.697 202.4C666.417 202.133 667.191 201.68 668.017 201.04L671.017 205.28C670.191 205.973 669.311 206.56 668.377 207.04C667.444 207.493 666.484 207.827 665.497 208.04C664.537 208.28 663.564 208.4 662.577 208.4ZM687.254 208V194.96C687.254 193.867 686.947 193.067 686.334 192.56C685.747 192.027 684.92 191.76 683.854 191.76C682.814 191.76 681.88 191.96 681.054 192.36C680.254 192.733 679.48 193.36 678.734 194.24L674.894 190.52C676.174 189.213 677.64 188.187 679.294 187.44C680.947 186.693 682.747 186.32 684.694 186.32C686.48 186.32 688.027 186.587 689.334 187.12C690.64 187.653 691.654 188.467 692.374 189.56C693.094 190.653 693.454 192.04 693.454 193.72V208H687.254ZM681.734 208.4C680.4 208.4 679.187 208.133 678.094 207.6C677.027 207.067 676.174 206.333 675.534 205.4C674.92 204.44 674.614 203.32 674.614 202.04C674.614 200.947 674.814 199.987 675.214 199.16C675.614 198.333 676.2 197.653 676.974 197.12C677.774 196.56 678.76 196.147 679.934 195.88C681.134 195.587 682.52 195.44 684.094 195.44H690.534L690.174 199.48H684.254C683.694 199.48 683.2 199.533 682.774 199.64C682.347 199.72 681.987 199.867 681.694 200.08C681.4 200.267 681.174 200.493 681.014 200.76C680.88 201.027 680.814 201.347 680.814 201.72C680.814 202.12 680.92 202.467 681.134 202.76C681.347 203.053 681.627 203.28 681.974 203.44C682.347 203.6 682.774 203.68 683.254 203.68C683.947 203.68 684.6 203.573 685.214 203.36C685.854 203.12 686.414 202.787 686.894 202.36C687.4 201.933 687.8 201.44 688.094 200.88L689.214 203.76C688.654 204.667 687.974 205.467 687.174 206.16C686.4 206.853 685.547 207.4 684.614 207.8C683.707 208.2 682.747 208.4 681.734 208.4ZM706.67 208.4C704.857 208.4 703.217 207.933 701.75 207C700.31 206.067 699.177 204.773 698.35 203.12C697.523 201.44 697.11 199.533 697.11 197.4C697.11 195.267 697.523 193.373 698.35 191.72C699.177 190.04 700.31 188.72 701.75 187.76C703.217 186.8 704.87 186.32 706.71 186.32C707.67 186.32 708.59 186.467 709.47 186.76C710.377 187.053 711.177 187.453 711.87 187.96C712.59 188.467 713.177 189.04 713.63 189.68C714.083 190.32 714.363 191 714.47 191.72L712.91 192.08V178.4H719.35V208H713.35L712.99 203.2L714.27 203.44C714.217 204.08 713.977 204.707 713.55 205.32C713.123 205.907 712.55 206.44 711.83 206.92C711.137 207.373 710.35 207.733 709.47 208C708.59 208.267 707.657 208.4 706.67 208.4ZM708.27 203.08C709.257 203.08 710.097 202.853 710.79 202.4C711.51 201.92 712.07 201.253 712.47 200.4C712.87 199.547 713.07 198.547 713.07 197.4C713.07 196.227 712.87 195.213 712.47 194.36C712.07 193.507 711.51 192.853 710.79 192.4C710.097 191.92 709.257 191.68 708.27 191.68C707.31 191.68 706.47 191.92 705.75 192.4C705.057 192.853 704.51 193.507 704.11 194.36C703.71 195.213 703.51 196.227 703.51 197.4C703.51 198.547 703.71 199.547 704.11 200.4C704.51 201.253 705.057 201.92 705.75 202.4C706.47 202.853 707.31 203.08 708.27 203.08ZM734.882 208.4C732.535 208.4 730.482 207.933 728.722 207C726.989 206.067 725.642 204.787 724.682 203.16C723.749 201.507 723.282 199.627 723.282 197.52C723.282 195.867 723.549 194.36 724.082 193C724.615 191.613 725.362 190.427 726.322 189.44C727.309 188.453 728.455 187.693 729.762 187.16C731.095 186.6 732.549 186.32 734.122 186.32C735.615 186.32 736.975 186.587 738.202 187.12C739.429 187.653 740.495 188.4 741.402 189.36C742.309 190.32 743.002 191.453 743.482 192.76C743.962 194.067 744.189 195.493 744.162 197.04L744.122 198.8H727.242L726.282 195.16H738.882L738.202 195.88V195.08C738.149 194.413 737.935 193.84 737.562 193.36C737.215 192.853 736.749 192.453 736.162 192.16C735.602 191.867 734.962 191.72 734.242 191.72C733.175 191.72 732.269 191.933 731.522 192.36C730.802 192.76 730.255 193.347 729.882 194.12C729.509 194.893 729.322 195.853 729.322 197C729.322 198.147 729.562 199.16 730.042 200.04C730.549 200.92 731.269 201.6 732.202 202.08C733.162 202.56 734.295 202.8 735.602 202.8C736.482 202.8 737.282 202.667 738.002 202.4C738.722 202.133 739.495 201.68 740.322 201.04L743.322 205.28C742.495 205.973 741.615 206.56 740.682 207.04C739.749 207.493 738.789 207.827 737.802 208.04C736.842 208.28 735.869 208.4 734.882 208.4ZM761.201 208L756.681 201.16L754.601 198.28L746.201 186.76H753.921L758.321 193.32L760.521 196.4L768.841 208H761.201ZM746.001 208L754.561 196.12L758.001 200.24L753.601 208H746.001ZM760.121 198.76L756.681 194.64L760.881 186.76H768.441L760.121 198.76ZM785.832 208V180H797.952C799.712 180 801.285 180.4 802.672 181.2C804.058 182 805.152 183.093 805.952 184.48C806.752 185.84 807.152 187.4 807.152 189.16C807.152 190.947 806.752 192.56 805.952 194C805.152 195.44 804.058 196.573 802.672 197.4C801.285 198.227 799.712 198.64 797.952 198.64H792.672V208H785.832ZM792.592 192.6H797.032C797.618 192.6 798.138 192.467 798.592 192.2C799.072 191.907 799.458 191.507 799.752 191C800.045 190.493 800.192 189.92 800.192 189.28C800.192 188.613 800.045 188.04 799.752 187.56C799.458 187.08 799.072 186.707 798.592 186.44C798.138 186.173 797.618 186.04 797.032 186.04H792.592V192.6ZM811.676 208V186.76H817.796L818.076 193.68L816.876 192.32C817.223 191.2 817.756 190.187 818.476 189.28C819.196 188.373 820.049 187.653 821.036 187.12C822.049 186.587 823.103 186.32 824.196 186.32C824.676 186.32 825.116 186.36 825.516 186.44C825.943 186.493 826.316 186.587 826.636 186.72L824.916 193.8C824.623 193.64 824.223 193.507 823.716 193.4C823.236 193.267 822.729 193.2 822.196 193.2C821.609 193.2 821.063 193.307 820.556 193.52C820.076 193.707 819.649 193.987 819.276 194.36C818.929 194.733 818.649 195.173 818.436 195.68C818.249 196.187 818.156 196.76 818.156 197.4V208H811.676ZM838.98 208.4C836.793 208.4 834.833 207.933 833.1 207C831.366 206.04 830.006 204.733 829.02 203.08C828.033 201.4 827.54 199.507 827.54 197.4C827.54 195.24 828.033 193.333 829.02 191.68C830.006 190 831.366 188.693 833.1 187.76C834.833 186.8 836.793 186.32 838.98 186.32C841.193 186.32 843.153 186.8 844.86 187.76C846.593 188.693 847.953 190 848.94 191.68C849.926 193.333 850.42 195.24 850.42 197.4C850.42 199.507 849.926 201.4 848.94 203.08C847.953 204.733 846.593 206.04 844.86 207C843.153 207.933 841.193 208.4 838.98 208.4ZM838.98 202.88C839.94 202.88 840.78 202.64 841.5 202.16C842.246 201.68 842.833 201.027 843.26 200.2C843.686 199.373 843.886 198.44 843.86 197.4C843.886 196.307 843.686 195.347 843.26 194.52C842.833 193.667 842.246 193.013 841.5 192.56C840.78 192.08 839.94 191.84 838.98 191.84C838.046 191.84 837.206 192.08 836.46 192.56C835.713 193.04 835.126 193.693 834.7 194.52C834.273 195.347 834.06 196.307 834.06 197.4C834.06 198.44 834.273 199.373 834.7 200.2C835.126 201.027 835.713 201.68 836.46 202.16C837.206 202.64 838.046 202.88 838.98 202.88Z" fill="black"/>
<path d="M624.352 283V266.2H631.36C632.432 266.2 633.336 266.36 634.072 266.68C634.808 267 635.36 267.48 635.728 268.12C636.112 268.744 636.304 269.512 636.304 270.424C636.304 271.336 636.048 272.112 635.536 272.752C635.04 273.392 634.344 273.832 633.448 274.072V273.592C634.2 273.752 634.856 274.04 635.416 274.456C635.976 274.856 636.408 275.36 636.712 275.968C637.032 276.576 637.192 277.272 637.192 278.056C637.192 278.856 637.064 279.568 636.808 280.192C636.568 280.8 636.2 281.312 635.704 281.728C635.224 282.144 634.64 282.464 633.952 282.688C633.264 282.896 632.48 283 631.6 283H624.352ZM626.944 280.504H631.456C632.432 280.504 633.192 280.288 633.736 279.856C634.28 279.424 634.552 278.808 634.552 278.008C634.552 277.512 634.416 277.088 634.144 276.736C633.888 276.384 633.52 276.12 633.04 275.944C632.56 275.752 631.992 275.656 631.336 275.656H626.944V280.504ZM626.944 273.16H631.216C631.696 273.16 632.12 273.064 632.488 272.872C632.872 272.68 633.168 272.416 633.376 272.08C633.6 271.744 633.712 271.36 633.712 270.928C633.712 270.208 633.472 269.656 632.992 269.272C632.512 268.888 631.824 268.696 630.928 268.696H626.944V273.16ZM645.705 283.24C644.473 283.24 643.369 282.96 642.393 282.4C641.433 281.824 640.673 281.048 640.113 280.072C639.553 279.08 639.273 277.952 639.273 276.688C639.273 275.424 639.553 274.304 640.113 273.328C640.673 272.336 641.433 271.56 642.393 271C643.369 270.424 644.473 270.136 645.705 270.136C646.921 270.136 648.009 270.424 648.969 271C649.945 271.56 650.713 272.336 651.273 273.328C651.833 274.304 652.113 275.424 652.113 276.688C652.113 277.952 651.833 279.08 651.273 280.072C650.713 281.048 649.945 281.824 648.969 282.4C648.009 282.96 646.921 283.24 645.705 283.24ZM645.705 280.984C646.457 280.984 647.129 280.8 647.721 280.432C648.313 280.048 648.777 279.536 649.113 278.896C649.449 278.24 649.609 277.504 649.593 276.688C649.609 275.856 649.449 275.12 649.113 274.48C648.777 273.824 648.313 273.312 647.721 272.944C647.129 272.576 646.457 272.392 645.705 272.392C644.953 272.392 644.273 272.584 643.665 272.968C643.073 273.336 642.609 273.848 642.273 274.504C641.937 275.144 641.777 275.872 641.793 276.688C641.777 277.504 641.937 278.24 642.273 278.896C642.609 279.536 643.073 280.048 643.665 280.432C644.273 280.8 644.953 280.984 645.705 280.984ZM654.854 283V265.24H657.326V283H654.854ZM665.851 283.24C664.699 283.24 663.667 282.96 662.755 282.4C661.859 281.824 661.147 281.048 660.619 280.072C660.091 279.08 659.827 277.952 659.827 276.688C659.827 275.424 660.083 274.304 660.595 273.328C661.123 272.336 661.835 271.56 662.731 271C663.627 270.424 664.643 270.136 665.779 270.136C666.403 270.136 667.003 270.24 667.579 270.448C668.171 270.64 668.699 270.912 669.163 271.264C669.627 271.6 669.987 271.976 670.243 272.392C670.515 272.792 670.651 273.2 670.651 273.616L669.931 273.664V265.24H672.403V283H669.931V280H670.411C670.411 280.384 670.283 280.768 670.027 281.152C669.771 281.52 669.427 281.864 668.995 282.184C668.579 282.504 668.091 282.76 667.531 282.952C666.987 283.144 666.427 283.24 665.851 283.24ZM666.187 281.104C666.939 281.104 667.603 280.912 668.179 280.528C668.755 280.144 669.203 279.624 669.523 278.968C669.859 278.296 670.027 277.536 670.027 276.688C670.027 275.84 669.859 275.088 669.523 274.432C669.203 273.76 668.755 273.232 668.179 272.848C667.603 272.464 666.939 272.272 666.187 272.272C665.435 272.272 664.771 272.464 664.195 272.848C663.619 273.232 663.163 273.76 662.827 274.432C662.507 275.088 662.347 275.84 662.347 276.688C662.347 277.536 662.507 278.296 662.827 278.968C663.163 279.624 663.619 280.144 664.195 280.528C664.771 280.912 665.435 281.104 666.187 281.104Z" fill="black"/>
<path d="M729.536 283.24C728.16 283.24 726.944 282.968 725.888 282.424C724.848 281.88 723.952 281.064 723.2 279.976L724.976 277.936C725.76 279.056 726.512 279.832 727.232 280.264C727.952 280.696 728.808 280.912 729.8 280.912C730.408 280.912 730.96 280.816 731.456 280.624C731.952 280.432 732.344 280.168 732.632 279.832C732.92 279.496 733.064 279.112 733.064 278.68C733.064 278.392 733.016 278.12 732.92 277.864C732.824 277.608 732.672 277.376 732.464 277.168C732.272 276.96 732.016 276.768 731.696 276.592C731.392 276.416 731.032 276.264 730.616 276.136C730.2 275.992 729.72 275.872 729.176 275.776C728.312 275.6 727.56 275.368 726.92 275.08C726.28 274.792 725.744 274.432 725.312 274C724.88 273.568 724.56 273.08 724.352 272.536C724.144 271.976 724.04 271.352 724.04 270.664C724.04 269.752 724.296 268.944 724.808 268.24C725.32 267.536 726.008 266.984 726.872 266.584C727.752 266.168 728.736 265.96 729.824 265.96C731.12 265.96 732.248 266.216 733.208 266.728C734.184 267.224 734.952 267.952 735.512 268.912L733.688 270.712C733.208 269.928 732.632 269.328 731.96 268.912C731.304 268.496 730.568 268.288 729.752 268.288C729.128 268.288 728.584 268.384 728.12 268.576C727.656 268.768 727.288 269.04 727.016 269.392C726.76 269.728 726.632 270.128 726.632 270.592C726.632 270.928 726.696 271.24 726.824 271.528C726.952 271.8 727.144 272.048 727.4 272.272C727.672 272.48 728.032 272.672 728.48 272.848C728.928 273.008 729.464 273.152 730.088 273.28C730.968 273.472 731.752 273.72 732.44 274.024C733.128 274.312 733.712 274.656 734.192 275.056C734.672 275.456 735.032 275.904 735.272 276.4C735.528 276.896 735.656 277.432 735.656 278.008C735.656 279.08 735.408 280.008 734.912 280.792C734.416 281.576 733.712 282.184 732.8 282.616C731.888 283.032 730.8 283.24 729.536 283.24ZM744.585 283.24C743.289 283.24 742.137 282.968 741.129 282.424C740.137 281.864 739.353 281.104 738.777 280.144C738.217 279.184 737.937 278.08 737.937 276.832C737.937 275.84 738.097 274.936 738.417 274.12C738.737 273.304 739.177 272.6 739.737 272.008C740.313 271.4 740.993 270.936 741.777 270.616C742.577 270.28 743.441 270.112 744.369 270.112C745.185 270.112 745.945 270.272 746.649 270.592C747.353 270.896 747.961 271.32 748.473 271.864C749.001 272.408 749.401 273.056 749.673 273.808C749.961 274.544 750.097 275.352 750.081 276.232L750.057 277.288H739.761L739.209 275.32H747.921L747.561 275.728V275.152C747.513 274.624 747.337 274.152 747.033 273.736C746.729 273.32 746.345 272.992 745.881 272.752C745.417 272.512 744.913 272.392 744.369 272.392C743.505 272.392 742.777 272.56 742.185 272.896C741.593 273.216 741.145 273.696 740.841 274.336C740.537 274.96 740.385 275.736 740.385 276.664C740.385 277.544 740.569 278.312 740.937 278.968C741.305 279.608 741.825 280.104 742.497 280.456C743.169 280.808 743.945 280.984 744.825 280.984C745.449 280.984 746.025 280.88 746.553 280.672C747.097 280.464 747.681 280.088 748.305 279.544L749.553 281.296C749.169 281.68 748.697 282.016 748.137 282.304C747.593 282.592 747.009 282.824 746.385 283C745.777 283.16 745.177 283.24 744.585 283.24ZM752.719 283V270.4H755.215V273.088L754.759 273.376C754.887 272.96 755.087 272.56 755.359 272.176C755.647 271.792 755.991 271.456 756.391 271.168C756.807 270.864 757.247 270.624 757.711 270.448C758.191 270.272 758.679 270.184 759.175 270.184C759.895 270.184 760.527 270.304 761.071 270.544C761.615 270.784 762.063 271.144 762.415 271.624C762.767 272.104 763.023 272.704 763.183 273.424L762.799 273.328L762.967 272.92C763.143 272.552 763.383 272.208 763.687 271.888C764.007 271.552 764.367 271.256 764.767 271C765.167 270.744 765.591 270.544 766.039 270.4C766.487 270.256 766.927 270.184 767.359 270.184C768.303 270.184 769.079 270.376 769.687 270.76C770.311 271.144 770.775 271.728 771.079 272.512C771.399 273.296 771.559 274.272 771.559 275.44V283H769.063V275.584C769.063 274.512 768.855 273.728 768.439 273.232C768.039 272.72 767.407 272.464 766.543 272.464C766.095 272.464 765.671 272.544 765.271 272.704C764.887 272.848 764.551 273.056 764.263 273.328C763.975 273.6 763.751 273.92 763.591 274.288C763.431 274.64 763.351 275.032 763.351 275.464V283H760.855V275.536C760.855 274.544 760.639 273.784 760.207 273.256C759.791 272.728 759.183 272.464 758.383 272.464C757.935 272.464 757.519 272.544 757.135 272.704C756.751 272.848 756.415 273.056 756.127 273.328C755.839 273.584 755.615 273.896 755.455 274.264C755.295 274.616 755.215 275 755.215 275.416V283H752.719ZM775.277 283V270.4H777.749V283H775.277ZM776.477 267.616C775.949 267.616 775.541 267.48 775.253 267.208C774.965 266.936 774.821 266.552 774.821 266.056C774.821 265.592 774.965 265.216 775.253 264.928C775.557 264.64 775.965 264.496 776.477 264.496C777.005 264.496 777.413 264.632 777.701 264.904C777.989 265.176 778.133 265.56 778.133 266.056C778.133 266.52 777.981 266.896 777.677 267.184C777.389 267.472 776.989 267.616 776.477 267.616ZM782.172 283V266.2H789.18C790.252 266.2 791.156 266.36 791.892 266.68C792.628 267 793.18 267.48 793.548 268.12C793.932 268.744 794.124 269.512 794.124 270.424C794.124 271.336 793.868 272.112 793.356 272.752C792.86 273.392 792.164 273.832 791.268 274.072V273.592C792.02 273.752 792.676 274.04 793.236 274.456C793.796 274.856 794.228 275.36 794.532 275.968C794.852 276.576 795.012 277.272 795.012 278.056C795.012 278.856 794.884 279.568 794.628 280.192C794.388 280.8 794.02 281.312 793.524 281.728C793.044 282.144 792.46 282.464 791.772 282.688C791.084 282.896 790.3 283 789.42 283H782.172ZM784.764 280.504H789.276C790.252 280.504 791.012 280.288 791.556 279.856C792.1 279.424 792.372 278.808 792.372 278.008C792.372 277.512 792.236 277.088 791.964 276.736C791.708 276.384 791.34 276.12 790.86 275.944C790.38 275.752 789.812 275.656 789.156 275.656H784.764V280.504ZM784.764 273.16H789.036C789.516 273.16 789.94 273.064 790.308 272.872C790.692 272.68 790.988 272.416 791.196 272.08C791.42 271.744 791.532 271.36 791.532 270.928C791.532 270.208 791.292 269.656 790.812 269.272C790.332 268.888 789.644 268.696 788.748 268.696H784.764V273.16ZM803.525 283.24C802.293 283.24 801.189 282.96 800.213 282.4C799.253 281.824 798.493 281.048 797.933 280.072C797.373 279.08 797.093 277.952 797.093 276.688C797.093 275.424 797.373 274.304 797.933 273.328C798.493 272.336 799.253 271.56 800.213 271C801.189 270.424 802.293 270.136 803.525 270.136C804.741 270.136 805.829 270.424 806.789 271C807.765 271.56 808.533 272.336 809.093 273.328C809.653 274.304 809.933 275.424 809.933 276.688C809.933 277.952 809.653 279.08 809.093 280.072C808.533 281.048 807.765 281.824 806.789 282.4C805.829 282.96 804.741 283.24 803.525 283.24ZM803.525 280.984C804.277 280.984 804.949 280.8 805.541 280.432C806.133 280.048 806.597 279.536 806.933 278.896C807.269 278.24 807.429 277.504 807.413 276.688C807.429 275.856 807.269 275.12 806.933 274.48C806.597 273.824 806.133 273.312 805.541 272.944C804.949 272.576 804.277 272.392 803.525 272.392C802.773 272.392 802.093 272.584 801.485 272.968C800.893 273.336 800.429 273.848 800.093 274.504C799.757 275.144 799.597 275.872 799.613 276.688C799.597 277.504 799.757 278.24 800.093 278.896C800.429 279.536 800.893 280.048 801.485 280.432C802.093 280.8 802.773 280.984 803.525 280.984ZM812.674 283V265.24H815.146V283H812.674ZM823.672 283.24C822.52 283.24 821.488 282.96 820.576 282.4C819.68 281.824 818.968 281.048 818.44 280.072C817.912 279.08 817.648 277.952 817.648 276.688C817.648 275.424 817.904 274.304 818.416 273.328C818.944 272.336 819.656 271.56 820.552 271C821.448 270.424 822.464 270.136 823.6 270.136C824.224 270.136 824.824 270.24 825.4 270.448C825.992 270.64 826.52 270.912 826.984 271.264C827.448 271.6 827.808 271.976 828.064 272.392C828.336 272.792 828.472 273.2 828.472 273.616L827.752 273.664V265.24H830.224V283H827.752V280H828.232C828.232 280.384 828.104 280.768 827.848 281.152C827.592 281.52 827.248 281.864 826.816 282.184C826.4 282.504 825.912 282.76 825.352 282.952C824.808 283.144 824.248 283.24 823.672 283.24ZM824.008 281.104C824.76 281.104 825.424 280.912 826 280.528C826.576 280.144 827.024 279.624 827.344 278.968C827.68 278.296 827.848 277.536 827.848 276.688C827.848 275.84 827.68 275.088 827.344 274.432C827.024 273.76 826.576 273.232 826 272.848C825.424 272.464 824.76 272.272 824.008 272.272C823.256 272.272 822.592 272.464 822.016 272.848C821.44 273.232 820.984 273.76 820.648 274.432C820.328 275.088 820.168 275.84 820.168 276.688C820.168 277.536 820.328 278.296 820.648 278.968C820.984 279.624 821.44 280.144 822.016 280.528C822.592 280.912 823.256 281.104 824.008 281.104Z" fill="black"/>
<path d="M884.352 283V266.2H886.896L893.016 276.16L891.792 276.136L897.984 266.2H900.384V283H897.792V276.112C897.792 274.672 897.824 273.376 897.888 272.224C897.968 271.072 898.096 269.928 898.272 268.792L898.608 269.68L893.112 278.176H891.528L886.2 269.776L886.464 268.792C886.64 269.864 886.76 270.968 886.824 272.104C886.904 273.224 886.944 274.56 886.944 276.112V283H884.352ZM910.35 283.24C909.054 283.24 907.902 282.968 906.894 282.424C905.902 281.864 905.118 281.104 904.542 280.144C903.982 279.184 903.702 278.08 903.702 276.832C903.702 275.84 903.862 274.936 904.182 274.12C904.502 273.304 904.942 272.6 905.502 272.008C906.078 271.4 906.758 270.936 907.542 270.616C908.342 270.28 909.206 270.112 910.134 270.112C910.95 270.112 911.71 270.272 912.414 270.592C913.118 270.896 913.726 271.32 914.238 271.864C914.766 272.408 915.166 273.056 915.438 273.808C915.726 274.544 915.862 275.352 915.846 276.232L915.822 277.288H905.526L904.974 275.32H913.686L913.326 275.728V275.152C913.278 274.624 913.102 274.152 912.798 273.736C912.494 273.32 912.11 272.992 911.646 272.752C911.182 272.512 910.678 272.392 910.134 272.392C909.27 272.392 908.542 272.56 907.95 272.896C907.358 273.216 906.91 273.696 906.606 274.336C906.302 274.96 906.15 275.736 906.15 276.664C906.15 277.544 906.334 278.312 906.702 278.968C907.07 279.608 907.59 280.104 908.262 280.456C908.934 280.808 909.71 280.984 910.59 280.984C911.214 280.984 911.79 280.88 912.318 280.672C912.862 280.464 913.446 280.088 914.07 279.544L915.318 281.296C914.934 281.68 914.462 282.016 913.902 282.304C913.358 282.592 912.774 282.824 912.15 283C911.542 283.16 910.942 283.24 910.35 283.24ZM923.789 283.24C922.637 283.24 921.605 282.96 920.693 282.4C919.797 281.824 919.085 281.048 918.557 280.072C918.029 279.08 917.765 277.952 917.765 276.688C917.765 275.424 918.021 274.304 918.533 273.328C919.061 272.336 919.773 271.56 920.669 271C921.565 270.424 922.581 270.136 923.717 270.136C924.341 270.136 924.941 270.24 925.517 270.448C926.109 270.64 926.637 270.912 927.101 271.264C927.565 271.6 927.925 271.976 928.181 272.392C928.453 272.792 928.589 273.2 928.589 273.616L927.869 273.664V265.24H930.341V283H927.869V280H928.349C928.349 280.384 928.221 280.768 927.965 281.152C927.709 281.52 927.365 281.864 926.933 282.184C926.517 282.504 926.029 282.76 925.469 282.952C924.925 283.144 924.365 283.24 923.789 283.24ZM924.125 281.104C924.877 281.104 925.541 280.912 926.117 280.528C926.693 280.144 927.141 279.624 927.461 278.968C927.797 278.296 927.965 277.536 927.965 276.688C927.965 275.84 927.797 275.088 927.461 274.432C927.141 273.76 926.693 273.232 926.117 272.848C925.541 272.464 924.877 272.272 924.125 272.272C923.373 272.272 922.709 272.464 922.133 272.848C921.557 273.232 921.101 273.76 920.765 274.432C920.445 275.088 920.285 275.84 920.285 276.688C920.285 277.536 920.445 278.296 920.765 278.968C921.101 279.624 921.557 280.144 922.133 280.528C922.709 280.912 923.373 281.104 924.125 281.104ZM934.152 283V270.4H936.624V283H934.152ZM935.352 267.616C934.824 267.616 934.416 267.48 934.128 267.208C933.84 266.936 933.696 266.552 933.696 266.056C933.696 265.592 933.84 265.216 934.128 264.928C934.432 264.64 934.84 264.496 935.352 264.496C935.88 264.496 936.288 264.632 936.576 264.904C936.864 265.176 937.008 265.56 937.008 266.056C937.008 266.52 936.856 266.896 936.552 267.184C936.264 267.472 935.864 267.616 935.352 267.616ZM944.839 283.24C943.943 283.24 943.159 283.032 942.487 282.616C941.831 282.2 941.319 281.616 940.951 280.864C940.599 280.112 940.423 279.216 940.423 278.176V270.4H942.895V277.504C942.895 278.608 943.151 279.48 943.663 280.12C944.191 280.76 944.919 281.08 945.847 281.08C946.311 281.08 946.735 281.008 947.119 280.864C947.503 280.704 947.831 280.488 948.103 280.216C948.391 279.944 948.615 279.616 948.775 279.232C948.935 278.848 949.015 278.432 949.015 277.984V270.4H951.487V283H949.015V280.36L949.447 280.072C949.255 280.664 948.927 281.2 948.463 281.68C948.015 282.16 947.479 282.544 946.855 282.832C946.231 283.104 945.559 283.24 944.839 283.24ZM954.907 283V270.4H957.403V273.088L956.947 273.376C957.075 272.96 957.275 272.56 957.547 272.176C957.835 271.792 958.179 271.456 958.579 271.168C958.995 270.864 959.435 270.624 959.899 270.448C960.379 270.272 960.867 270.184 961.363 270.184C962.083 270.184 962.715 270.304 963.259 270.544C963.803 270.784 964.251 271.144 964.603 271.624C964.955 272.104 965.211 272.704 965.371 273.424L964.987 273.328L965.155 272.92C965.331 272.552 965.571 272.208 965.875 271.888C966.195 271.552 966.555 271.256 966.955 271C967.355 270.744 967.779 270.544 968.227 270.4C968.675 270.256 969.115 270.184 969.547 270.184C970.491 270.184 971.267 270.376 971.875 270.76C972.499 271.144 972.963 271.728 973.267 272.512C973.587 273.296 973.747 274.272 973.747 275.44V283H971.251V275.584C971.251 274.512 971.043 273.728 970.627 273.232C970.227 272.72 969.595 272.464 968.731 272.464C968.283 272.464 967.859 272.544 967.459 272.704C967.075 272.848 966.739 273.056 966.451 273.328C966.163 273.6 965.939 273.92 965.779 274.288C965.619 274.64 965.539 275.032 965.539 275.464V283H963.043V275.536C963.043 274.544 962.827 273.784 962.395 273.256C961.979 272.728 961.371 272.464 960.571 272.464C960.123 272.464 959.707 272.544 959.323 272.704C958.939 272.848 958.603 273.056 958.315 273.328C958.027 273.584 957.803 273.896 957.643 274.264C957.483 274.616 957.403 275 957.403 275.416V283H954.907Z" fill="black"/>
<path d="M1024.35 283V266.2H1031.5C1032.46 266.2 1033.34 266.44 1034.14 266.92C1034.96 267.384 1035.61 268.024 1036.09 268.84C1036.57 269.64 1036.81 270.544 1036.81 271.552C1036.81 272.464 1036.57 273.312 1036.09 274.096C1035.61 274.88 1034.97 275.512 1034.17 275.992C1033.37 276.456 1032.48 276.688 1031.5 276.688H1026.94V283H1024.35ZM1034.34 283L1030.06 275.416L1032.73 274.816L1037.48 283.024L1034.34 283ZM1026.94 274.192H1031.74C1032.21 274.192 1032.62 274.08 1032.99 273.856C1033.36 273.616 1033.65 273.296 1033.86 272.896C1034.06 272.48 1034.17 272.024 1034.17 271.528C1034.17 270.968 1034.03 270.48 1033.76 270.064C1033.5 269.632 1033.14 269.296 1032.66 269.056C1032.19 268.816 1031.66 268.696 1031.07 268.696H1026.94V274.192ZM1045.83 283.24C1044.53 283.24 1043.38 282.968 1042.37 282.424C1041.38 281.864 1040.59 281.104 1040.02 280.144C1039.46 279.184 1039.18 278.08 1039.18 276.832C1039.18 275.84 1039.34 274.936 1039.66 274.12C1039.98 273.304 1040.42 272.6 1040.98 272.008C1041.55 271.4 1042.23 270.936 1043.02 270.616C1043.82 270.28 1044.68 270.112 1045.61 270.112C1046.43 270.112 1047.19 270.272 1047.89 270.592C1048.59 270.896 1049.2 271.32 1049.71 271.864C1050.24 272.408 1050.64 273.056 1050.91 273.808C1051.2 274.544 1051.34 275.352 1051.32 276.232L1051.3 277.288H1041L1040.45 275.32H1049.16L1048.8 275.728V275.152C1048.75 274.624 1048.58 274.152 1048.27 273.736C1047.97 273.32 1047.59 272.992 1047.12 272.752C1046.66 272.512 1046.15 272.392 1045.61 272.392C1044.75 272.392 1044.02 272.56 1043.43 272.896C1042.83 273.216 1042.39 273.696 1042.08 274.336C1041.78 274.96 1041.63 275.736 1041.63 276.664C1041.63 277.544 1041.81 278.312 1042.18 278.968C1042.55 279.608 1043.07 280.104 1043.74 280.456C1044.41 280.808 1045.19 280.984 1046.07 280.984C1046.69 280.984 1047.27 280.88 1047.79 280.672C1048.34 280.464 1048.92 280.088 1049.55 279.544L1050.79 281.296C1050.41 281.68 1049.94 282.016 1049.38 282.304C1048.83 282.592 1048.25 282.824 1047.63 283C1047.02 283.16 1046.42 283.24 1045.83 283.24ZM1059.53 288.52C1058.64 288.52 1057.74 288.376 1056.84 288.088C1055.96 287.816 1055.25 287.456 1054.71 287.008L1055.62 285.088C1056.1 285.456 1056.69 285.752 1057.4 285.976C1058.12 286.2 1058.83 286.312 1059.53 286.312C1060.41 286.312 1061.15 286.168 1061.74 285.88C1062.33 285.592 1062.78 285.168 1063.08 284.608C1063.39 284.048 1063.54 283.352 1063.54 282.52V280.096L1063.8 280.264C1063.72 280.76 1063.46 281.24 1063.01 281.704C1062.58 282.152 1062.04 282.52 1061.38 282.808C1060.72 283.096 1060.05 283.24 1059.36 283.24C1058.16 283.24 1057.09 282.96 1056.15 282.4C1055.22 281.824 1054.48 281.048 1053.94 280.072C1053.4 279.08 1053.12 277.952 1053.12 276.688C1053.12 275.424 1053.39 274.304 1053.92 273.328C1054.46 272.336 1055.2 271.56 1056.12 271C1057.07 270.424 1058.12 270.136 1059.29 270.136C1059.77 270.136 1060.24 270.2 1060.68 270.328C1061.13 270.44 1061.55 270.608 1061.93 270.832C1062.32 271.04 1062.66 271.272 1062.96 271.528C1063.27 271.784 1063.52 272.056 1063.71 272.344C1063.9 272.632 1064.02 272.904 1064.07 273.16L1063.54 273.352V270.4H1066.01V282.232C1066.01 283.24 1065.86 284.128 1065.56 284.896C1065.27 285.68 1064.84 286.336 1064.28 286.864C1063.72 287.408 1063.04 287.816 1062.24 288.088C1061.44 288.376 1060.54 288.52 1059.53 288.52ZM1059.63 280.96C1060.41 280.96 1061.11 280.776 1061.72 280.408C1062.32 280.04 1062.8 279.536 1063.13 278.896C1063.47 278.256 1063.64 277.52 1063.64 276.688C1063.64 275.856 1063.46 275.12 1063.11 274.48C1062.77 273.824 1062.3 273.312 1061.69 272.944C1061.1 272.576 1060.41 272.392 1059.63 272.392C1058.86 272.392 1058.17 272.584 1057.56 272.968C1056.97 273.336 1056.5 273.848 1056.15 274.504C1055.81 275.144 1055.64 275.872 1055.64 276.688C1055.64 277.504 1055.81 278.24 1056.15 278.896C1056.5 279.536 1056.97 280.04 1057.56 280.408C1058.17 280.776 1058.86 280.96 1059.63 280.96ZM1073.71 283.24C1072.81 283.24 1072.03 283.032 1071.35 282.616C1070.7 282.2 1070.19 281.616 1069.82 280.864C1069.47 280.112 1069.29 279.216 1069.29 278.176V270.4H1071.76V277.504C1071.76 278.608 1072.02 279.48 1072.53 280.12C1073.06 280.76 1073.79 281.08 1074.71 281.08C1075.18 281.08 1075.6 281.008 1075.99 280.864C1076.37 280.704 1076.7 280.488 1076.97 280.216C1077.26 279.944 1077.48 279.616 1077.64 279.232C1077.8 278.848 1077.88 278.432 1077.88 277.984V270.4H1080.35V283H1077.88V280.36L1078.31 280.072C1078.12 280.664 1077.79 281.2 1077.33 281.68C1076.88 282.16 1076.35 282.544 1075.72 282.832C1075.1 283.104 1074.43 283.24 1073.71 283.24ZM1083.87 283V265.24H1086.34V283H1083.87ZM1097.07 283V274.792C1097.07 274.088 1096.82 273.52 1096.31 273.088C1095.81 272.64 1095.18 272.416 1094.41 272.416C1093.71 272.416 1093.07 272.56 1092.49 272.848C1091.93 273.136 1091.42 273.576 1090.95 274.168L1089.35 272.56C1090.1 271.744 1090.91 271.136 1091.77 270.736C1092.65 270.336 1093.59 270.136 1094.6 270.136C1095.56 270.136 1096.39 270.296 1097.1 270.616C1097.8 270.936 1098.35 271.408 1098.73 272.032C1099.11 272.64 1099.31 273.384 1099.31 274.264V283H1097.07ZM1093.31 283.24C1092.49 283.24 1091.76 283.08 1091.12 282.76C1090.48 282.44 1089.97 282 1089.59 281.44C1089.22 280.864 1089.03 280.192 1089.03 279.424C1089.03 278.752 1089.15 278.16 1089.39 277.648C1089.63 277.136 1089.99 276.712 1090.45 276.376C1090.93 276.04 1091.52 275.784 1092.23 275.608C1092.95 275.432 1093.77 275.344 1094.7 275.344H1098.2L1097.99 277.312H1094.39C1093.91 277.312 1093.47 277.36 1093.09 277.456C1092.72 277.536 1092.4 277.672 1092.13 277.864C1091.87 278.04 1091.68 278.256 1091.55 278.512C1091.43 278.752 1091.36 279.04 1091.36 279.376C1091.36 279.728 1091.45 280.04 1091.63 280.312C1091.8 280.568 1092.04 280.768 1092.35 280.912C1092.65 281.056 1093 281.128 1093.4 281.128C1093.98 281.128 1094.52 281.032 1095.03 280.84C1095.56 280.632 1096.03 280.352 1096.43 280C1096.84 279.648 1097.16 279.256 1097.39 278.824L1097.96 280.432C1097.63 280.992 1097.21 281.48 1096.71 281.896C1096.22 282.312 1095.68 282.64 1095.11 282.88C1094.53 283.12 1093.93 283.24 1093.31 283.24ZM1102.43 283V270.4H1104.93V274.36L1104.69 273.4C1104.86 272.792 1105.16 272.24 1105.58 271.744C1106.01 271.248 1106.5 270.856 1107.04 270.568C1107.6 270.28 1108.18 270.136 1108.77 270.136C1109.04 270.136 1109.3 270.16 1109.54 270.208C1109.79 270.256 1109.99 270.312 1110.14 270.376L1109.49 273.064C1109.3 272.984 1109.08 272.92 1108.84 272.872C1108.62 272.808 1108.39 272.776 1108.17 272.776C1107.74 272.776 1107.32 272.864 1106.92 273.04C1106.54 273.2 1106.19 273.432 1105.89 273.736C1105.6 274.024 1105.37 274.368 1105.19 274.768C1105.02 275.152 1104.93 275.576 1104.93 276.04V283H1102.43Z" fill="black"/>
<path d="M110.982 290L180.232 115H216.482L285.232 290H242.232L208.982 201.25C207.816 197.75 206.482 194 204.982 190C203.649 186 202.316 181.833 200.982 177.5C199.649 173.167 198.399 169 197.232 165C196.066 161 195.066 157.25 194.232 153.75L201.482 153.5C200.482 157.667 199.399 161.75 198.232 165.75C197.066 169.75 195.816 173.75 194.482 177.75C193.149 181.75 191.732 185.75 190.232 189.75C188.899 193.583 187.482 197.583 185.982 201.75L152.982 290H110.982ZM143.982 256.5L157.482 224H237.482L250.982 256.5H143.982ZM368.916 290V208.5C368.916 201.667 366.999 196.667 363.166 193.5C359.499 190.167 354.333 188.5 347.666 188.5C341.166 188.5 335.333 189.75 330.166 192.25C325.166 194.583 320.333 198.5 315.666 204L291.666 180.75C299.666 172.583 308.833 166.167 319.166 161.5C329.499 156.833 340.749 154.5 352.916 154.5C364.083 154.5 373.749 156.167 381.916 159.5C390.083 162.833 396.416 167.917 400.916 174.75C405.416 181.583 407.666 190.25 407.666 200.75V290H368.916ZM334.416 292.5C326.083 292.5 318.499 290.833 311.666 287.5C304.999 284.167 299.666 279.583 295.666 273.75C291.833 267.75 289.916 260.75 289.916 252.75C289.916 245.917 291.166 239.917 293.666 234.75C296.166 229.583 299.833 225.333 304.666 222C309.666 218.5 315.833 215.917 323.166 214.25C330.666 212.417 339.333 211.5 349.166 211.5H389.416L387.166 236.75H350.166C346.666 236.75 343.583 237.083 340.916 237.75C338.249 238.25 335.999 239.167 334.166 240.5C332.333 241.667 330.916 243.083 329.916 244.75C329.083 246.417 328.666 248.417 328.666 250.75C328.666 253.25 329.333 255.417 330.666 257.25C331.999 259.083 333.749 260.5 335.916 261.5C338.249 262.5 340.916 263 343.916 263C348.249 263 352.333 262.333 356.166 261C360.166 259.5 363.666 257.417 366.666 254.75C369.833 252.083 372.333 249 374.166 245.5L381.166 263.5C377.666 269.167 373.416 274.167 368.416 278.5C363.583 282.833 358.249 286.25 352.416 288.75C346.749 291.25 340.749 292.5 334.416 292.5Z" fill="#04045C"/>
<rect x="40" y="421" width="500" height="180" rx="40" fill="#04045C"/>
<path d="M78.2585 568L81.1222 550.545H83.1676L80.304 568H78.2585ZM70.358 563.33L70.6903 561.284H83.9176L83.5852 563.33H70.358ZM72.1222 568L74.9858 550.545H77.0312L74.1676 568H72.1222ZM71.3722 557.261L71.7045 555.216H84.9318L84.5994 557.261H71.3722ZM93.0369 568.29C91.6903 568.284 90.5398 567.929 89.5852 567.224C88.6307 566.52 87.9006 565.494 87.3949 564.148C86.8892 562.801 86.6364 561.179 86.6364 559.281C86.6364 557.389 86.8892 555.773 87.3949 554.432C87.9063 553.091 88.6392 552.068 89.5938 551.364C90.554 550.659 91.7017 550.307 93.0369 550.307C94.3722 550.307 95.517 550.662 96.4716 551.372C97.4261 552.077 98.1563 553.099 98.6619 554.44C99.1733 555.776 99.429 557.389 99.429 559.281C99.429 561.185 99.1761 562.81 98.6705 564.156C98.1648 565.497 97.4347 566.523 96.4801 567.233C95.5256 567.938 94.3778 568.29 93.0369 568.29ZM93.0369 566.014C94.2188 566.014 95.142 565.438 95.8068 564.284C96.4773 563.131 96.8125 561.463 96.8125 559.281C96.8125 557.832 96.6591 556.608 96.3523 555.608C96.0511 554.602 95.6165 553.841 95.0483 553.324C94.4858 552.801 93.8153 552.54 93.0369 552.54C91.8608 552.54 90.9375 553.119 90.267 554.278C89.5966 555.437 89.2585 557.105 89.2528 559.281C89.2528 560.736 89.4034 561.966 89.7045 562.972C90.0114 563.972 90.446 564.73 91.0085 565.247C91.571 565.759 92.2472 566.014 93.0369 566.014ZM102.086 564.591V562.46L109.629 550.545H111.308V553.682H110.242L104.847 562.222V562.358H115.185V564.591H102.086ZM110.362 568V563.943L110.379 562.972V550.545H112.876V568H110.362ZM124.232 568.29C122.886 568.284 121.735 567.929 120.781 567.224C119.826 566.52 119.096 565.494 118.59 564.148C118.085 562.801 117.832 561.179 117.832 559.281C117.832 557.389 118.085 555.773 118.59 554.432C119.102 553.091 119.835 552.068 120.789 551.364C121.749 550.659 122.897 550.307 124.232 550.307C125.567 550.307 126.712 550.662 127.667 551.372C128.621 552.077 129.352 553.099 129.857 554.44C130.369 555.776 130.624 557.389 130.624 559.281C130.624 561.185 130.371 562.81 129.866 564.156C129.36 565.497 128.63 566.523 127.675 567.233C126.721 567.938 125.573 568.29 124.232 568.29ZM124.232 566.014C125.414 566.014 126.337 565.438 127.002 564.284C127.673 563.131 128.008 561.463 128.008 559.281C128.008 557.832 127.854 556.608 127.548 555.608C127.246 554.602 126.812 553.841 126.244 553.324C125.681 552.801 125.011 552.54 124.232 552.54C123.056 552.54 122.133 553.119 121.462 554.278C120.792 555.437 120.454 557.105 120.448 559.281C120.448 560.736 120.599 561.966 120.9 562.972C121.207 563.972 121.641 564.73 122.204 565.247C122.766 565.759 123.442 566.014 124.232 566.014ZM133.281 564.591V562.46L140.824 550.545H142.503V553.682H141.438L136.043 562.222V562.358H146.381V564.591H133.281ZM141.557 568V563.943L141.574 562.972V550.545H144.071V568H141.557ZM155.112 568.239C154.044 568.239 153.084 568.034 152.232 567.625C151.385 567.21 150.709 566.642 150.203 565.92C149.697 565.199 149.428 564.375 149.393 563.449H151.95C152.013 564.199 152.345 564.815 152.947 565.298C153.55 565.781 154.271 566.023 155.112 566.023C155.783 566.023 156.376 565.869 156.893 565.562C157.416 565.25 157.825 564.821 158.121 564.276C158.422 563.73 158.572 563.108 158.572 562.409C158.572 561.699 158.419 561.065 158.112 560.509C157.805 559.952 157.382 559.514 156.842 559.196C156.308 558.878 155.695 558.716 155.001 558.71C154.473 558.71 153.942 558.801 153.408 558.983C152.874 559.165 152.442 559.403 152.112 559.699L149.7 559.341L150.68 550.545H160.277V552.804H152.871L152.317 557.688H152.419C152.76 557.358 153.212 557.082 153.774 556.861C154.342 556.639 154.95 556.528 155.598 556.528C156.661 556.528 157.607 556.781 158.436 557.287C159.271 557.793 159.928 558.483 160.405 559.358C160.888 560.227 161.126 561.227 161.121 562.358C161.126 563.489 160.871 564.497 160.354 565.384C159.842 566.27 159.132 566.969 158.223 567.48C157.32 567.986 156.283 568.239 155.112 568.239ZM178.969 556.222H176.31C176.208 555.653 176.018 555.153 175.739 554.722C175.461 554.29 175.12 553.923 174.717 553.622C174.313 553.321 173.862 553.094 173.362 552.94C172.867 552.787 172.342 552.71 171.785 552.71C170.779 552.71 169.879 552.963 169.083 553.469C168.293 553.974 167.668 554.716 167.208 555.693C166.754 556.67 166.526 557.864 166.526 559.273C166.526 560.693 166.754 561.892 167.208 562.869C167.668 563.847 168.296 564.585 169.092 565.085C169.887 565.585 170.782 565.835 171.776 565.835C172.327 565.835 172.85 565.761 173.344 565.614C173.844 565.46 174.296 565.236 174.7 564.94C175.103 564.645 175.444 564.284 175.722 563.858C176.006 563.426 176.202 562.932 176.31 562.375L178.969 562.384C178.827 563.241 178.552 564.031 178.143 564.753C177.739 565.469 177.219 566.088 176.583 566.611C175.952 567.128 175.231 567.528 174.418 567.812C173.606 568.097 172.719 568.239 171.759 568.239C170.248 568.239 168.901 567.881 167.719 567.165C166.538 566.443 165.606 565.412 164.924 564.071C164.248 562.73 163.91 561.131 163.91 559.273C163.91 557.409 164.251 555.81 164.933 554.474C165.614 553.134 166.546 552.105 167.728 551.389C168.91 550.668 170.254 550.307 171.759 550.307C172.685 550.307 173.549 550.44 174.35 550.707C175.157 550.969 175.881 551.355 176.523 551.866C177.165 552.372 177.697 552.991 178.117 553.724C178.538 554.452 178.822 555.284 178.969 556.222Z" fill="white"/>
<rect x="580" y="421" width="180" height="180" rx="40" fill="#1C247C"/>
<path d="M618.259 568L621.122 550.545H623.168L620.304 568H618.259ZM610.358 563.33L610.69 561.284H623.918L623.585 563.33H610.358ZM612.122 568L614.986 550.545H617.031L614.168 568H612.122ZM611.372 557.261L611.705 555.216H624.932L624.599 557.261H611.372ZM633.582 550.545V568H630.94V553.188H630.838L626.662 555.915V553.392L631.017 550.545H633.582ZM653.04 556.222H650.381C650.278 555.653 650.088 555.153 649.81 554.722C649.531 554.29 649.19 553.923 648.787 553.622C648.384 553.321 647.932 553.094 647.432 552.94C646.938 552.787 646.412 552.71 645.855 552.71C644.849 552.71 643.949 552.963 643.153 553.469C642.364 553.974 641.739 554.716 641.278 555.693C640.824 556.67 640.597 557.864 640.597 559.273C640.597 560.693 640.824 561.892 641.278 562.869C641.739 563.847 642.366 564.585 643.162 565.085C643.957 565.585 644.852 565.835 645.847 565.835C646.398 565.835 646.92 565.761 647.415 565.614C647.915 565.46 648.366 565.236 648.77 564.94C649.173 564.645 649.514 564.284 649.793 563.858C650.077 563.426 650.273 562.932 650.381 562.375L653.04 562.384C652.898 563.241 652.622 564.031 652.213 564.753C651.81 565.469 651.29 566.088 650.653 566.611C650.023 567.128 649.301 567.528 648.489 567.812C647.676 568.097 646.79 568.239 645.83 568.239C644.318 568.239 642.972 567.881 641.79 567.165C640.608 566.443 639.676 565.412 638.994 564.071C638.318 562.73 637.98 561.131 637.98 559.273C637.98 557.409 638.321 555.81 639.003 554.474C639.685 553.134 640.616 552.105 641.798 551.389C642.98 550.668 644.324 550.307 645.83 550.307C646.756 550.307 647.619 550.44 648.42 550.707C649.227 550.969 649.952 551.355 650.594 551.866C651.236 552.372 651.767 552.991 652.188 553.724C652.608 554.452 652.892 555.284 653.04 556.222ZM655.952 568V566.091L661.859 559.972C662.489 559.307 663.009 558.724 663.418 558.224C663.833 557.719 664.143 557.239 664.347 556.784C664.552 556.33 664.654 555.847 664.654 555.335C664.654 554.756 664.518 554.256 664.245 553.835C663.972 553.409 663.6 553.082 663.129 552.855C662.657 552.622 662.126 552.506 661.535 552.506C660.91 552.506 660.364 552.634 659.898 552.889C659.433 553.145 659.075 553.506 658.825 553.972C658.575 554.437 658.45 554.983 658.45 555.608H655.935C655.935 554.545 656.18 553.616 656.668 552.821C657.157 552.026 657.827 551.409 658.68 550.972C659.532 550.528 660.501 550.307 661.586 550.307C662.683 550.307 663.648 550.526 664.484 550.963C665.325 551.395 665.981 551.986 666.452 552.736C666.924 553.48 667.16 554.321 667.16 555.259C667.16 555.906 667.038 556.54 666.793 557.159C666.555 557.778 666.137 558.469 665.54 559.23C664.944 559.986 664.114 560.903 663.052 561.983L659.583 565.614V565.741H667.441V568H655.952ZM669.93 564.591V562.46L677.472 550.545H679.151V553.682H678.086L672.691 562.222V562.358H683.029V564.591H669.93ZM678.205 568V563.943L678.222 562.972V550.545H680.719V568H678.205ZM686.587 568L694.207 552.932V552.804H685.394V550.545H696.934V552.881L689.34 568H686.587ZM714.634 556.222H711.974C711.872 555.653 711.682 555.153 711.403 554.722C711.125 554.29 710.784 553.923 710.381 553.622C709.977 553.321 709.526 553.094 709.026 552.94C708.531 552.787 708.006 552.71 707.449 552.71C706.443 552.71 705.543 552.963 704.747 553.469C703.957 553.974 703.332 554.716 702.872 555.693C702.418 556.67 702.19 557.864 702.19 559.273C702.19 560.693 702.418 561.892 702.872 562.869C703.332 563.847 703.96 564.585 704.756 565.085C705.551 565.585 706.446 565.835 707.44 565.835C707.991 565.835 708.514 565.761 709.009 565.614C709.509 565.46 709.96 565.236 710.364 564.94C710.767 564.645 711.108 564.284 711.386 563.858C711.67 563.426 711.866 562.932 711.974 562.375L714.634 562.384C714.491 563.241 714.216 564.031 713.807 564.753C713.403 565.469 712.884 566.088 712.247 566.611C711.616 567.128 710.895 567.528 710.082 567.812C709.27 568.097 708.384 568.239 707.423 568.239C705.912 568.239 704.565 567.881 703.384 567.165C702.202 566.443 701.27 565.412 700.588 564.071C699.912 562.73 699.574 561.131 699.574 559.273C699.574 557.409 699.915 555.81 700.597 554.474C701.278 553.134 702.21 552.105 703.392 551.389C704.574 550.668 705.918 550.307 707.423 550.307C708.349 550.307 709.213 550.44 710.014 550.707C710.821 550.969 711.545 551.355 712.188 551.866C712.83 552.372 713.361 552.991 713.781 553.724C714.202 554.452 714.486 555.284 714.634 556.222Z" fill="white"/>
<rect x="800" y="421" width="180" height="180" rx="40" fill="#2454DC"/>
<path d="M838.259 568L841.122 550.545H843.168L840.304 568H838.259ZM830.358 563.33L830.69 561.284H843.918L843.585 563.33H830.358ZM832.122 568L834.986 550.545H837.031L834.168 568H832.122ZM831.372 557.261L831.705 555.216H844.932L844.599 557.261H831.372ZM846.96 568V566.091L852.866 559.972C853.497 559.307 854.017 558.724 854.426 558.224C854.841 557.719 855.151 557.239 855.355 556.784C855.56 556.33 855.662 555.847 855.662 555.335C855.662 554.756 855.526 554.256 855.253 553.835C854.98 553.409 854.608 553.082 854.136 552.855C853.665 552.622 853.134 552.506 852.543 552.506C851.918 552.506 851.372 552.634 850.906 552.889C850.44 553.145 850.082 553.506 849.832 553.972C849.582 554.437 849.457 554.983 849.457 555.608H846.943C846.943 554.545 847.188 553.616 847.676 552.821C848.165 552.026 848.835 551.409 849.688 550.972C850.54 550.528 851.509 550.307 852.594 550.307C853.69 550.307 854.656 550.526 855.491 550.963C856.332 551.395 856.989 551.986 857.46 552.736C857.932 553.48 858.168 554.321 858.168 555.259C858.168 555.906 858.045 556.54 857.801 557.159C857.563 557.778 857.145 558.469 856.548 559.23C855.952 559.986 855.122 560.903 854.06 561.983L850.591 565.614V565.741H858.449V568H846.96ZM860.938 564.591V562.46L868.48 550.545H870.159V553.682H869.094L863.699 562.222V562.358H874.037V564.591H860.938ZM869.213 568V563.943L869.23 562.972V550.545H871.727V568H869.213ZM882.768 568.239C881.7 568.239 880.74 568.034 879.888 567.625C879.041 567.21 878.365 566.642 877.859 565.92C877.354 565.199 877.084 564.375 877.05 563.449H879.607C879.669 564.199 880.001 564.815 880.604 565.298C881.206 565.781 881.928 566.023 882.768 566.023C883.439 566.023 884.033 565.869 884.55 565.562C885.072 565.25 885.482 564.821 885.777 564.276C886.078 563.73 886.229 563.108 886.229 562.409C886.229 561.699 886.075 561.065 885.768 560.509C885.462 559.952 885.038 559.514 884.499 559.196C883.964 558.878 883.351 558.716 882.658 558.71C882.129 558.71 881.598 558.801 881.064 558.983C880.53 559.165 880.098 559.403 879.768 559.699L877.357 559.341L878.337 550.545H887.933V552.804H880.527L879.973 557.688H880.075C880.416 557.358 880.868 557.082 881.43 556.861C881.999 556.639 882.607 556.528 883.254 556.528C884.317 556.528 885.263 556.781 886.092 557.287C886.928 557.793 887.584 558.483 888.061 559.358C888.544 560.227 888.783 561.227 888.777 562.358C888.783 563.489 888.527 564.497 888.01 565.384C887.499 566.27 886.788 566.969 885.879 567.48C884.976 567.986 883.939 568.239 882.768 568.239ZM891.523 564.591V562.46L899.066 550.545H900.745V553.682H899.68L894.285 562.222V562.358H904.623V564.591H891.523ZM899.799 568V563.943L899.816 562.972V550.545H902.313V568H899.799ZM913.482 568H907.832V550.545H913.661C915.371 550.545 916.84 550.895 918.067 551.594C919.295 552.287 920.235 553.284 920.888 554.585C921.548 555.881 921.877 557.435 921.877 559.247C921.877 561.065 921.545 562.628 920.88 563.935C920.221 565.241 919.266 566.247 918.016 566.952C916.766 567.651 915.255 568 913.482 568ZM910.465 565.699H913.337C914.667 565.699 915.772 565.449 916.653 564.949C917.533 564.443 918.192 563.713 918.63 562.759C919.067 561.798 919.286 560.628 919.286 559.247C919.286 557.878 919.067 556.716 918.63 555.761C918.198 554.807 917.553 554.082 916.695 553.588C915.837 553.094 914.772 552.847 913.499 552.847H910.465V565.699ZM939.649 556.222H936.99C936.888 555.653 936.697 555.153 936.419 554.722C936.141 554.29 935.8 553.923 935.396 553.622C934.993 553.321 934.541 553.094 934.041 552.94C933.547 552.787 933.021 552.71 932.464 552.71C931.459 552.71 930.558 552.963 929.763 553.469C928.973 553.974 928.348 554.716 927.888 555.693C927.433 556.67 927.206 557.864 927.206 559.273C927.206 560.693 927.433 561.892 927.888 562.869C928.348 563.847 928.976 564.585 929.771 565.085C930.567 565.585 931.462 565.835 932.456 565.835C933.007 565.835 933.53 565.761 934.024 565.614C934.524 565.46 934.976 565.236 935.379 564.94C935.783 564.645 936.124 564.284 936.402 563.858C936.686 563.426 936.882 562.932 936.99 562.375L939.649 562.384C939.507 563.241 939.232 564.031 938.822 564.753C938.419 565.469 937.899 566.088 937.263 566.611C936.632 567.128 935.911 567.528 935.098 567.812C934.286 568.097 933.399 568.239 932.439 568.239C930.928 568.239 929.581 567.881 928.399 567.165C927.217 566.443 926.286 565.412 925.604 564.071C924.928 562.73 924.589 561.131 924.589 559.273C924.589 557.409 924.93 555.81 925.612 554.474C926.294 553.134 927.226 552.105 928.408 551.389C929.589 550.668 930.933 550.307 932.439 550.307C933.365 550.307 934.229 550.44 935.03 550.707C935.837 550.969 936.561 551.355 937.203 551.866C937.845 552.372 938.376 552.991 938.797 553.724C939.217 554.452 939.501 555.284 939.649 556.222Z" fill="white"/>
<rect x="1020" y="421" width="180" height="180" rx="40" fill="#E4BC6B"/>
<path d="M1058.26 568L1061.12 550.545H1063.17L1060.3 568H1058.26ZM1050.36 563.33L1050.69 561.284H1063.92L1063.59 563.33H1050.36ZM1052.12 568L1054.99 550.545H1057.03L1054.17 568H1052.12ZM1051.37 557.261L1051.7 555.216H1064.93L1064.6 557.261H1051.37ZM1067.2 568V550.545H1078.14V552.812H1069.83V558.131H1077.57V560.389H1069.83V565.733H1078.24V568H1067.2ZM1081.05 564.591V562.46L1088.6 550.545H1090.28V553.682H1089.21L1083.82 562.222V562.358H1094.15V564.591H1081.05ZM1089.33 568V563.943L1089.35 562.972V550.545H1091.84V568H1089.33ZM1097.36 568V550.545H1103.75C1104.99 550.545 1106.02 550.75 1106.83 551.159C1107.64 551.562 1108.25 552.111 1108.66 552.804C1109.06 553.491 1109.26 554.267 1109.26 555.131C1109.26 555.858 1109.13 556.472 1108.86 556.972C1108.59 557.466 1108.24 557.864 1107.79 558.165C1107.34 558.46 1106.85 558.676 1106.32 558.812V558.983C1106.9 559.011 1107.47 559.199 1108.02 559.545C1108.57 559.886 1109.03 560.372 1109.4 561.003C1109.76 561.634 1109.94 562.401 1109.94 563.304C1109.94 564.196 1109.73 564.997 1109.31 565.707C1108.9 566.412 1108.25 566.972 1107.39 567.386C1106.52 567.795 1105.41 568 1104.05 568H1097.36ZM1100 565.741H1103.8C1105.06 565.741 1105.96 565.497 1106.51 565.009C1107.05 564.52 1107.33 563.909 1107.33 563.176C1107.33 562.625 1107.19 562.119 1106.91 561.659C1106.63 561.199 1106.23 560.832 1105.72 560.56C1105.2 560.287 1104.6 560.151 1103.89 560.151H1100V565.741ZM1100 558.097H1103.52C1104.12 558.097 1104.65 557.983 1105.12 557.756C1105.6 557.528 1105.97 557.21 1106.25 556.801C1106.54 556.386 1106.68 555.898 1106.68 555.335C1106.68 554.614 1106.43 554.009 1105.92 553.52C1105.41 553.031 1104.64 552.787 1103.59 552.787H1100V558.097ZM1127.56 556.222H1124.9C1124.8 555.653 1124.61 555.153 1124.33 554.722C1124.05 554.29 1123.71 553.923 1123.31 553.622C1122.91 553.321 1122.46 553.094 1121.96 552.94C1121.46 552.787 1120.94 552.71 1120.38 552.71C1119.37 552.71 1118.47 552.963 1117.68 553.469C1116.89 553.974 1116.26 554.716 1115.8 555.693C1115.35 556.67 1115.12 557.864 1115.12 559.273C1115.12 560.693 1115.35 561.892 1115.8 562.869C1116.26 563.847 1116.89 564.585 1117.69 565.085C1118.48 565.585 1119.38 565.835 1120.37 565.835C1120.92 565.835 1121.44 565.761 1121.94 565.614C1122.44 565.46 1122.89 565.236 1123.29 564.94C1123.7 564.645 1124.04 564.284 1124.32 563.858C1124.6 563.426 1124.8 562.932 1124.9 562.375L1127.56 562.384C1127.42 563.241 1127.15 564.031 1126.74 564.753C1126.33 565.469 1125.81 566.088 1125.18 566.611C1124.55 567.128 1123.82 567.528 1123.01 567.812C1122.2 568.097 1121.31 568.239 1120.35 568.239C1118.84 568.239 1117.5 567.881 1116.31 567.165C1115.13 566.443 1114.2 565.412 1113.52 564.071C1112.84 562.73 1112.5 561.131 1112.5 559.273C1112.5 557.409 1112.84 555.81 1113.53 554.474C1114.21 553.134 1115.14 552.105 1116.32 551.389C1117.5 550.668 1118.85 550.307 1120.35 550.307C1121.28 550.307 1122.14 550.44 1122.94 550.707C1123.75 550.969 1124.48 551.355 1125.12 551.866C1125.76 552.372 1126.29 552.991 1126.71 553.724C1127.13 554.452 1127.42 555.284 1127.56 556.222ZM1136.57 568.239C1135.79 568.227 1135.02 568.085 1134.27 567.812C1133.52 567.54 1132.84 567.085 1132.22 566.449C1131.61 565.812 1131.12 564.957 1130.75 563.884C1130.38 562.81 1130.2 561.469 1130.2 559.861C1130.2 558.338 1130.35 556.986 1130.65 555.804C1130.96 554.622 1131.4 553.625 1131.98 552.812C1132.55 551.994 1133.24 551.372 1134.06 550.946C1134.87 550.52 1135.78 550.307 1136.79 550.307C1137.83 550.307 1138.75 550.511 1139.56 550.92C1140.37 551.33 1141.02 551.895 1141.52 552.616C1142.03 553.338 1142.35 554.159 1142.48 555.08H1139.88C1139.71 554.352 1139.36 553.759 1138.84 553.298C1138.31 552.838 1137.63 552.608 1136.79 552.608C1135.51 552.608 1134.52 553.165 1133.8 554.278C1133.09 555.392 1132.73 556.94 1132.73 558.923H1132.85C1133.15 558.429 1133.52 558.009 1133.96 557.662C1134.4 557.31 1134.9 557.04 1135.44 556.852C1136 556.659 1136.58 556.562 1137.18 556.562C1138.19 556.562 1139.11 556.81 1139.93 557.304C1140.75 557.793 1141.41 558.469 1141.9 559.332C1142.38 560.196 1142.63 561.185 1142.63 562.298C1142.63 563.412 1142.38 564.42 1141.87 565.324C1141.37 566.227 1140.67 566.943 1139.76 567.472C1138.85 567.994 1137.79 568.25 1136.57 568.239ZM1136.56 566.023C1137.23 566.023 1137.83 565.858 1138.36 565.528C1138.89 565.199 1139.31 564.756 1139.61 564.199C1139.92 563.642 1140.07 563.02 1140.07 562.332C1140.07 561.662 1139.92 561.051 1139.62 560.5C1139.33 559.949 1138.92 559.511 1138.39 559.188C1137.88 558.864 1137.29 558.702 1136.62 558.702C1136.12 558.702 1135.65 558.798 1135.21 558.991C1134.79 559.185 1134.41 559.452 1134.09 559.793C1133.77 560.134 1133.51 560.526 1133.32 560.969C1133.14 561.406 1133.05 561.869 1133.05 562.358C1133.05 563.011 1133.2 563.616 1133.5 564.173C1133.81 564.73 1134.23 565.179 1134.75 565.52C1135.29 565.855 1135.89 566.023 1136.56 566.023ZM1145.97 568V550.545H1152.36C1153.6 550.545 1154.63 550.75 1155.44 551.159C1156.25 551.562 1156.86 552.111 1157.26 552.804C1157.67 553.491 1157.87 554.267 1157.87 555.131C1157.87 555.858 1157.74 556.472 1157.47 556.972C1157.2 557.466 1156.84 557.864 1156.4 558.165C1155.95 558.46 1155.46 558.676 1154.93 558.812V558.983C1155.51 559.011 1156.07 559.199 1156.63 559.545C1157.18 559.886 1157.64 560.372 1158.01 561.003C1158.37 561.634 1158.55 562.401 1158.55 563.304C1158.55 564.196 1158.34 564.997 1157.92 565.707C1157.51 566.412 1156.86 566.972 1156 567.386C1155.13 567.795 1154.01 568 1152.66 568H1145.97ZM1148.61 565.741H1152.41C1153.67 565.741 1154.57 565.497 1155.12 565.009C1155.66 564.52 1155.94 563.909 1155.94 563.176C1155.94 562.625 1155.8 562.119 1155.52 561.659C1155.24 561.199 1154.84 560.832 1154.32 560.56C1153.81 560.287 1153.21 560.151 1152.5 560.151H1148.61V565.741ZM1148.61 558.097H1152.13C1152.73 558.097 1153.26 557.983 1153.73 557.756C1154.21 557.528 1154.58 557.21 1154.86 556.801C1155.15 556.386 1155.29 555.898 1155.29 555.335C1155.29 554.614 1155.03 554.009 1154.53 553.52C1154.02 553.031 1153.25 552.787 1152.2 552.787H1148.61V558.097Z" fill="black"/>
<defs>
<clipPath id="clip0_250_12747">
<rect width="800.889" height="232.516" fill="white" transform="translate(348.351 204.342)"/>
</clipPath>
</defs>
</svg>
