<svg width="833" height="782" viewBox="0 0 833 782" fill="none" xmlns="http://www.w3.org/2000/svg">
<g filter="url(#filter0_dd_382_20926)">
<rect x="301" y="225" width="245" height="245" rx="122.5" fill="black"/>
<path d="M344.916 361.214V336.218H349.701L360.343 353.858H357.807L368.27 336.218H373.019L373.09 361.214H367.663L367.627 344.538H368.627L360.271 358.572H357.664L349.13 344.538H350.344V361.214H344.916ZM381.056 368.427C380.056 368.427 379.068 368.273 378.092 367.963C377.116 367.654 376.319 367.225 375.7 366.678L377.735 362.714C378.164 363.095 378.652 363.393 379.199 363.607C379.771 363.821 380.33 363.928 380.878 363.928C381.663 363.928 382.282 363.738 382.735 363.357C383.211 363 383.639 362.393 384.02 361.536L385.02 359.179L385.448 358.572L392.34 342.003H397.696L389.019 362.393C388.4 363.94 387.686 365.154 386.877 366.035C386.091 366.916 385.21 367.535 384.234 367.892C383.282 368.249 382.223 368.427 381.056 368.427ZM384.341 361.964L375.771 342.003H381.52L388.162 358.072L384.341 361.964ZM418.688 361.643C416.688 361.643 414.772 361.381 412.939 360.857C411.106 360.31 409.63 359.607 408.511 358.75L410.475 354.394C411.546 355.156 412.808 355.787 414.26 356.287C415.736 356.763 417.224 357.001 418.724 357.001C419.866 357.001 420.783 356.894 421.473 356.679C422.187 356.441 422.711 356.12 423.044 355.715C423.378 355.311 423.544 354.846 423.544 354.323C423.544 353.656 423.283 353.132 422.759 352.751C422.235 352.347 421.545 352.025 420.688 351.787C419.831 351.525 418.878 351.287 417.831 351.073C416.807 350.835 415.772 350.549 414.724 350.216C413.701 349.883 412.76 349.454 411.903 348.931C411.046 348.407 410.344 347.717 409.797 346.86C409.273 346.003 409.011 344.907 409.011 343.574C409.011 342.146 409.392 340.849 410.154 339.682C410.939 338.492 412.106 337.552 413.653 336.861C415.224 336.147 417.188 335.79 419.545 335.79C421.116 335.79 422.664 335.98 424.187 336.361C425.711 336.718 427.056 337.266 428.222 338.004L426.437 342.396C425.27 341.729 424.104 341.241 422.937 340.932C421.771 340.599 420.628 340.432 419.509 340.432C418.39 340.432 417.474 340.563 416.76 340.825C416.046 341.087 415.534 341.432 415.224 341.86C414.915 342.265 414.76 342.741 414.76 343.289C414.76 343.931 415.022 344.455 415.546 344.86C416.069 345.241 416.76 345.55 417.617 345.788C418.474 346.026 419.414 346.264 420.438 346.502C421.485 346.741 422.521 347.014 423.544 347.324C424.592 347.633 425.544 348.05 426.401 348.574C427.258 349.097 427.948 349.788 428.472 350.645C429.02 351.502 429.293 352.585 429.293 353.894C429.293 355.299 428.901 356.584 428.115 357.751C427.329 358.917 426.151 359.857 424.58 360.572C423.033 361.286 421.069 361.643 418.688 361.643ZM437.46 357.286L437.603 350.502L446.565 342.003H453.207L444.602 350.752L441.709 353.109L437.46 357.286ZM432.853 361.214V334.719H438.424V361.214H432.853ZM447.173 361.214L440.674 353.144L444.173 348.824L453.921 361.214H447.173ZM456.427 361.214V342.003H461.997V361.214H456.427ZM459.212 339.325C458.188 339.325 457.355 339.027 456.712 338.432C456.07 337.837 455.748 337.099 455.748 336.218C455.748 335.338 456.07 334.6 456.712 334.004C457.355 333.409 458.188 333.112 459.212 333.112C460.236 333.112 461.069 333.397 461.711 333.969C462.354 334.516 462.676 335.23 462.676 336.111C462.676 337.04 462.354 337.813 461.711 338.432C461.093 339.027 460.259 339.325 459.212 339.325ZM467.167 361.214V334.719H472.738V361.214H467.167ZM477.907 361.214V334.719H483.478V361.214H477.907ZM495.111 361.5C493.469 361.5 491.886 361.31 490.362 360.929C488.862 360.524 487.672 360.024 486.791 359.429L488.648 355.43C489.529 355.977 490.564 356.429 491.755 356.787C492.969 357.12 494.159 357.286 495.325 357.286C496.611 357.286 497.516 357.132 498.039 356.822C498.587 356.513 498.861 356.084 498.861 355.537C498.861 355.084 498.646 354.751 498.218 354.537C497.813 354.299 497.266 354.12 496.575 354.001C495.885 353.882 495.123 353.763 494.29 353.644C493.48 353.525 492.659 353.37 491.826 353.18C490.993 352.966 490.231 352.656 489.541 352.252C488.85 351.847 488.291 351.299 487.862 350.609C487.458 349.919 487.255 349.026 487.255 347.931C487.255 346.717 487.6 345.645 488.291 344.717C489.005 343.789 490.029 343.063 491.362 342.539C492.695 341.991 494.29 341.718 496.147 341.718C497.456 341.718 498.789 341.86 500.146 342.146C501.503 342.432 502.634 342.848 503.538 343.396L501.682 347.359C500.753 346.812 499.813 346.443 498.861 346.252C497.932 346.038 497.028 345.931 496.147 345.931C494.909 345.931 494.004 346.098 493.433 346.431C492.862 346.764 492.576 347.193 492.576 347.717C492.576 348.193 492.778 348.55 493.183 348.788C493.611 349.026 494.171 349.216 494.861 349.359C495.552 349.502 496.301 349.633 497.111 349.752C497.944 349.847 498.777 350.002 499.61 350.216C500.444 350.43 501.194 350.74 501.86 351.145C502.55 351.525 503.11 352.061 503.538 352.751C503.967 353.418 504.181 354.299 504.181 355.394C504.181 356.584 503.824 357.644 503.11 358.572C502.396 359.477 501.36 360.191 500.003 360.714C498.67 361.238 497.039 361.5 495.111 361.5Z" fill="white"/>
</g>
<rect x="68" y="66" width="70" height="70" rx="35" fill="black"/>
<path d="M81.6551 105.08C80.7351 105.08 80.0117 104.817 79.4851 104.29C78.9584 103.763 78.6951 102.993 78.6951 101.98V98H79.6951V101.94C79.6951 102.72 79.8651 103.29 80.2051 103.65C80.5517 104.01 81.0384 104.19 81.6651 104.19C82.2984 104.19 82.7851 104.01 83.1251 103.65C83.4717 103.29 83.6451 102.72 83.6451 101.94V98H84.6151V101.98C84.6151 102.993 84.3517 103.763 83.8251 104.29C83.3051 104.817 82.5817 105.08 81.6551 105.08ZM86.6652 105V98H87.6652V105H86.6652ZM92.4465 105V98H95.3965C96.1432 98 96.7998 98.1467 97.3665 98.44C97.9398 98.7333 98.3832 99.1433 98.6965 99.67C99.0165 100.197 99.1765 100.807 99.1765 101.5C99.1765 102.193 99.0165 102.803 98.6965 103.33C98.3832 103.857 97.9398 104.267 97.3665 104.56C96.7998 104.853 96.1432 105 95.3965 105H92.4465ZM93.4465 104.13H95.3365C95.9165 104.13 96.4165 104.02 96.8365 103.8C97.2632 103.58 97.5932 103.273 97.8265 102.88C98.0598 102.48 98.1765 102.02 98.1765 101.5C98.1765 100.973 98.0598 100.513 97.8265 100.12C97.5932 99.7267 97.2632 99.42 96.8365 99.2C96.4165 98.98 95.9165 98.87 95.3365 98.87H93.4465V104.13ZM102.928 105.06C102.362 105.06 101.862 104.943 101.428 104.71C101.002 104.477 100.668 104.157 100.428 103.75C100.195 103.343 100.078 102.877 100.078 102.35C100.078 101.823 100.192 101.357 100.418 100.95C100.652 100.543 100.968 100.227 101.368 100C101.775 99.7667 102.232 99.65 102.738 99.65C103.252 99.65 103.705 99.7633 104.098 99.99C104.492 100.217 104.798 100.537 105.018 100.95C105.245 101.357 105.358 101.833 105.358 102.38C105.358 102.42 105.355 102.467 105.348 102.52C105.348 102.573 105.345 102.623 105.338 102.67H100.828V101.98H104.838L104.448 102.22C104.455 101.88 104.385 101.577 104.238 101.31C104.092 101.043 103.888 100.837 103.628 100.69C103.375 100.537 103.078 100.46 102.738 100.46C102.405 100.46 102.108 100.537 101.848 100.69C101.588 100.837 101.385 101.047 101.238 101.32C101.092 101.587 101.018 101.893 101.018 102.24V102.4C101.018 102.753 101.098 103.07 101.258 103.35C101.425 103.623 101.655 103.837 101.948 103.99C102.242 104.143 102.578 104.22 102.958 104.22C103.272 104.22 103.555 104.167 103.808 104.06C104.068 103.953 104.295 103.793 104.488 103.58L105.018 104.2C104.778 104.48 104.478 104.693 104.118 104.84C103.765 104.987 103.368 105.06 102.928 105.06ZM108.211 105.06C107.771 105.06 107.351 105 106.951 104.88C106.558 104.76 106.248 104.613 106.021 104.44L106.421 103.68C106.648 103.833 106.928 103.963 107.261 104.07C107.595 104.177 107.935 104.23 108.281 104.23C108.728 104.23 109.048 104.167 109.241 104.04C109.441 103.913 109.541 103.737 109.541 103.51C109.541 103.343 109.481 103.213 109.361 103.12C109.241 103.027 109.081 102.957 108.881 102.91C108.688 102.863 108.471 102.823 108.231 102.79C107.991 102.75 107.751 102.703 107.511 102.65C107.271 102.59 107.051 102.51 106.851 102.41C106.651 102.303 106.491 102.16 106.371 101.98C106.251 101.793 106.191 101.547 106.191 101.24C106.191 100.92 106.281 100.64 106.461 100.4C106.641 100.16 106.895 99.9767 107.221 99.85C107.555 99.7167 107.948 99.65 108.401 99.65C108.748 99.65 109.098 99.6933 109.451 99.78C109.811 99.86 110.105 99.9767 110.331 100.13L109.921 100.89C109.681 100.73 109.431 100.62 109.171 100.56C108.911 100.5 108.651 100.47 108.391 100.47C107.971 100.47 107.658 100.54 107.451 100.68C107.245 100.813 107.141 100.987 107.141 101.2C107.141 101.38 107.201 101.52 107.321 101.62C107.448 101.713 107.608 101.787 107.801 101.84C108.001 101.893 108.221 101.94 108.461 101.98C108.701 102.013 108.941 102.06 109.181 102.12C109.421 102.173 109.638 102.25 109.831 102.35C110.031 102.45 110.191 102.59 110.311 102.77C110.438 102.95 110.501 103.19 110.501 103.49C110.501 103.81 110.408 104.087 110.221 104.32C110.035 104.553 109.771 104.737 109.431 104.87C109.091 104.997 108.685 105.06 108.211 105.06ZM111.701 105V99.7H112.661V105H111.701ZM112.181 98.68C111.994 98.68 111.838 98.62 111.711 98.5C111.591 98.38 111.531 98.2333 111.531 98.06C111.531 97.88 111.591 97.73 111.711 97.61C111.838 97.49 111.994 97.43 112.181 97.43C112.368 97.43 112.521 97.49 112.641 97.61C112.768 97.7233 112.831 97.8667 112.831 98.04C112.831 98.22 112.771 98.3733 112.651 98.5C112.531 98.62 112.374 98.68 112.181 98.68ZM116.814 107C116.327 107 115.854 106.93 115.394 106.79C114.941 106.657 114.571 106.463 114.284 106.21L114.744 105.47C114.991 105.683 115.294 105.85 115.654 105.97C116.014 106.097 116.391 106.16 116.784 106.16C117.411 106.16 117.871 106.013 118.164 105.72C118.457 105.427 118.604 104.98 118.604 104.38V103.26L118.704 102.21L118.654 101.15V99.7H119.564V104.28C119.564 105.213 119.331 105.9 118.864 106.34C118.397 106.78 117.714 107 116.814 107ZM116.694 104.78C116.181 104.78 115.721 104.673 115.314 104.46C114.914 104.24 114.594 103.937 114.354 103.55C114.121 103.163 114.004 102.717 114.004 102.21C114.004 101.697 114.121 101.25 114.354 100.87C114.594 100.483 114.914 100.183 115.314 99.97C115.721 99.7567 116.181 99.65 116.694 99.65C117.147 99.65 117.561 99.7433 117.934 99.93C118.307 100.11 118.604 100.39 118.824 100.77C119.051 101.15 119.164 101.63 119.164 102.21C119.164 102.783 119.051 103.26 118.824 103.64C118.604 104.02 118.307 104.307 117.934 104.5C117.561 104.687 117.147 104.78 116.694 104.78ZM116.804 103.94C117.157 103.94 117.471 103.867 117.744 103.72C118.017 103.573 118.231 103.37 118.384 103.11C118.544 102.85 118.624 102.55 118.624 102.21C118.624 101.87 118.544 101.57 118.384 101.31C118.231 101.05 118.017 100.85 117.744 100.71C117.471 100.563 117.157 100.49 116.804 100.49C116.451 100.49 116.134 100.563 115.854 100.71C115.581 100.85 115.364 101.05 115.204 101.31C115.051 101.57 114.974 101.87 114.974 102.21C114.974 102.55 115.051 102.85 115.204 103.11C115.364 103.37 115.581 103.573 115.854 103.72C116.134 103.867 116.451 103.94 116.804 103.94ZM124.228 99.65C124.662 99.65 125.042 99.7333 125.368 99.9C125.702 100.067 125.962 100.32 126.148 100.66C126.335 101 126.428 101.43 126.428 101.95V105H125.468V102.06C125.468 101.547 125.342 101.16 125.088 100.9C124.842 100.64 124.492 100.51 124.038 100.51C123.698 100.51 123.402 100.577 123.148 100.71C122.895 100.843 122.698 101.04 122.558 101.3C122.425 101.56 122.358 101.883 122.358 102.27V105H121.398V99.7H122.318V101.13L122.168 100.75C122.342 100.403 122.608 100.133 122.968 99.94C123.328 99.7467 123.748 99.65 124.228 99.65Z" fill="white"/>
<rect y="361" width="150" height="150" rx="75" fill="black"/>
<path d="M29.275 443.16C27.435 443.16 25.9883 442.633 24.935 441.58C23.8817 440.527 23.355 438.987 23.355 436.96V429H25.355V436.88C25.355 438.44 25.695 439.58 26.375 440.3C27.0683 441.02 28.0417 441.38 29.295 441.38C30.5617 441.38 31.535 441.02 32.215 440.3C32.9083 439.58 33.255 438.44 33.255 436.88V429H35.195V436.96C35.195 438.987 34.6683 440.527 33.615 441.58C32.575 442.633 31.1283 443.16 29.275 443.16ZM37.26 443L43.08 435.06V436.6L37.58 429H39.86L44.22 434.98L43.32 435L47.66 429H49.84L44.38 436.48V435.04L50.2 443H47.9L43.26 436.62H44.14L39.56 443H37.26ZM57.9281 443V429H63.8281C65.3215 429 66.6348 429.293 67.7681 429.88C68.9148 430.467 69.8015 431.287 70.4281 432.34C71.0681 433.393 71.3881 434.613 71.3881 436C71.3881 437.387 71.0681 438.607 70.4281 439.66C69.8015 440.713 68.9148 441.533 67.7681 442.12C66.6348 442.707 65.3215 443 63.8281 443H57.9281ZM59.9281 441.26H63.7081C64.8681 441.26 65.8681 441.04 66.7081 440.6C67.5615 440.16 68.2215 439.547 68.6881 438.76C69.1548 437.96 69.3881 437.04 69.3881 436C69.3881 434.947 69.1548 434.027 68.6881 433.24C68.2215 432.453 67.5615 431.84 66.7081 431.4C65.8681 430.96 64.8681 430.74 63.7081 430.74H59.9281V441.26ZM78.8916 443.12C77.7582 443.12 76.7582 442.887 75.8916 442.42C75.0382 441.953 74.3716 441.313 73.8916 440.5C73.4249 439.687 73.1916 438.753 73.1916 437.7C73.1916 436.647 73.4182 435.713 73.8716 434.9C74.3382 434.087 74.9716 433.453 75.7716 433C76.5849 432.533 77.4982 432.3 78.5116 432.3C79.5382 432.3 80.4449 432.527 81.2316 432.98C82.0182 433.433 82.6316 434.073 83.0716 434.9C83.5249 435.713 83.7516 436.667 83.7516 437.76C83.7516 437.84 83.7449 437.933 83.7316 438.04C83.7316 438.147 83.7249 438.247 83.7116 438.34H74.6916V436.96H82.7116L81.9316 437.44C81.9449 436.76 81.8049 436.153 81.5116 435.62C81.2182 435.087 80.8116 434.673 80.2916 434.38C79.7849 434.073 79.1916 433.92 78.5116 433.92C77.8449 433.92 77.2516 434.073 76.7316 434.38C76.2116 434.673 75.8049 435.093 75.5116 435.64C75.2182 436.173 75.0716 436.787 75.0716 437.48V437.8C75.0716 438.507 75.2316 439.14 75.5516 439.7C75.8849 440.247 76.3449 440.673 76.9316 440.98C77.5182 441.287 78.1916 441.44 78.9516 441.44C79.5782 441.44 80.1449 441.333 80.6516 441.12C81.1716 440.907 81.6249 440.587 82.0116 440.16L83.0716 441.4C82.5916 441.96 81.9916 442.387 81.2716 442.68C80.5649 442.973 79.7716 443.12 78.8916 443.12ZM89.4577 443.12C88.5777 443.12 87.7377 443 86.9377 442.76C86.151 442.52 85.531 442.227 85.0777 441.88L85.8777 440.36C86.331 440.667 86.891 440.927 87.5577 441.14C88.2243 441.353 88.9043 441.46 89.5977 441.46C90.491 441.46 91.131 441.333 91.5177 441.08C91.9177 440.827 92.1177 440.473 92.1177 440.02C92.1177 439.687 91.9977 439.427 91.7577 439.24C91.5177 439.053 91.1977 438.913 90.7977 438.82C90.411 438.727 89.9777 438.647 89.4977 438.58C89.0177 438.5 88.5377 438.407 88.0577 438.3C87.5777 438.18 87.1377 438.02 86.7377 437.82C86.3377 437.607 86.0177 437.32 85.7777 436.96C85.5377 436.587 85.4177 436.093 85.4177 435.48C85.4177 434.84 85.5977 434.28 85.9577 433.8C86.3177 433.32 86.8243 432.953 87.4777 432.7C88.1443 432.433 88.931 432.3 89.8377 432.3C90.531 432.3 91.231 432.387 91.9377 432.56C92.6577 432.72 93.2443 432.953 93.6977 433.26L92.8777 434.78C92.3977 434.46 91.8977 434.24 91.3777 434.12C90.8577 434 90.3377 433.94 89.8177 433.94C88.9777 433.94 88.351 434.08 87.9377 434.36C87.5243 434.627 87.3177 434.973 87.3177 435.4C87.3177 435.76 87.4377 436.04 87.6777 436.24C87.931 436.427 88.251 436.573 88.6377 436.68C89.0377 436.787 89.4777 436.88 89.9577 436.96C90.4377 437.027 90.9177 437.12 91.3977 437.24C91.8777 437.347 92.311 437.5 92.6977 437.7C93.0977 437.9 93.4177 438.18 93.6577 438.54C93.911 438.9 94.0377 439.38 94.0377 439.98C94.0377 440.62 93.851 441.173 93.4777 441.64C93.1043 442.107 92.5777 442.473 91.8977 442.74C91.2177 442.993 90.4043 443.12 89.4577 443.12ZM96.4372 443V432.4H98.3572V443H96.4372ZM97.3972 430.36C97.0239 430.36 96.7105 430.24 96.4572 430C96.2172 429.76 96.0972 429.467 96.0972 429.12C96.0972 428.76 96.2172 428.46 96.4572 428.22C96.7105 427.98 97.0239 427.86 97.3972 427.86C97.7705 427.86 98.0772 427.98 98.3172 428.22C98.5705 428.447 98.6972 428.733 98.6972 429.08C98.6972 429.44 98.5772 429.747 98.3372 430C98.0972 430.24 97.7839 430.36 97.3972 430.36ZM106.663 447C105.69 447 104.743 446.86 103.823 446.58C102.916 446.313 102.176 445.927 101.603 445.42L102.523 443.94C103.016 444.367 103.623 444.7 104.343 444.94C105.063 445.193 105.816 445.32 106.603 445.32C107.856 445.32 108.776 445.027 109.363 444.44C109.95 443.853 110.243 442.96 110.243 441.76V439.52L110.443 437.42L110.343 435.3V432.4H112.163V441.56C112.163 443.427 111.696 444.8 110.763 445.68C109.83 446.56 108.463 447 106.663 447ZM106.423 442.56C105.396 442.56 104.476 442.347 103.663 441.92C102.863 441.48 102.223 440.873 101.743 440.1C101.276 439.327 101.043 438.433 101.043 437.42C101.043 436.393 101.276 435.5 101.743 434.74C102.223 433.967 102.863 433.367 103.663 432.94C104.476 432.513 105.396 432.3 106.423 432.3C107.33 432.3 108.156 432.487 108.903 432.86C109.65 433.22 110.243 433.78 110.683 434.54C111.136 435.3 111.363 436.26 111.363 437.42C111.363 438.567 111.136 439.52 110.683 440.28C110.243 441.04 109.65 441.613 108.903 442C108.156 442.373 107.33 442.56 106.423 442.56ZM106.643 440.88C107.35 440.88 107.976 440.733 108.523 440.44C109.07 440.147 109.496 439.74 109.803 439.22C110.123 438.7 110.283 438.1 110.283 437.42C110.283 436.74 110.123 436.14 109.803 435.62C109.496 435.1 109.07 434.7 108.523 434.42C107.976 434.127 107.35 433.98 106.643 433.98C105.936 433.98 105.303 434.127 104.743 434.42C104.196 434.7 103.763 435.1 103.443 435.62C103.136 436.14 102.983 436.74 102.983 437.42C102.983 438.1 103.136 438.7 103.443 439.22C103.763 439.74 104.196 440.147 104.743 440.44C105.303 440.733 105.936 440.88 106.643 440.88ZM121.492 432.3C122.358 432.3 123.118 432.467 123.772 432.8C124.438 433.133 124.958 433.64 125.332 434.32C125.705 435 125.892 435.86 125.892 436.9V443H123.972V437.12C123.972 436.093 123.718 435.32 123.212 434.8C122.718 434.28 122.018 434.02 121.112 434.02C120.432 434.02 119.838 434.153 119.332 434.42C118.825 434.687 118.432 435.08 118.152 435.6C117.885 436.12 117.752 436.767 117.752 437.54V443H115.832V432.4H117.672V435.26L117.372 434.5C117.718 433.807 118.252 433.267 118.972 432.88C119.692 432.493 120.532 432.3 121.492 432.3Z" fill="white"/>
<rect x="626" width="140" height="140" rx="70" fill="black"/>
<path d="M649.278 76V63.8667H651.011V74.492H657.581V76H649.278ZM663.299 76.104C662.317 76.104 661.45 75.9018 660.699 75.4973C659.96 75.0929 659.382 74.5382 658.966 73.8333C658.561 73.1284 658.359 72.3196 658.359 71.4067C658.359 70.4938 658.556 69.6849 658.948 68.98C659.353 68.2751 659.902 67.7262 660.595 67.3333C661.3 66.9289 662.092 66.7267 662.97 66.7267C663.86 66.7267 664.645 66.9231 665.327 67.316C666.009 67.7089 666.54 68.2636 666.922 68.98C667.315 69.6849 667.511 70.5111 667.511 71.4587C667.511 71.528 667.505 71.6089 667.494 71.7013C667.494 71.7938 667.488 71.8804 667.476 71.9613H659.659V70.7653H666.61L665.934 71.1813C665.945 70.592 665.824 70.0662 665.57 69.604C665.316 69.1418 664.963 68.7836 664.512 68.5293C664.073 68.2636 663.559 68.1307 662.97 68.1307C662.392 68.1307 661.878 68.2636 661.427 68.5293C660.976 68.7836 660.624 69.1476 660.37 69.6213C660.116 70.0836 659.988 70.6151 659.988 71.216V71.4933C659.988 72.1058 660.127 72.6547 660.404 73.14C660.693 73.6138 661.092 73.9836 661.6 74.2493C662.109 74.5151 662.692 74.648 663.351 74.648C663.894 74.648 664.385 74.5556 664.824 74.3707C665.275 74.1858 665.668 73.9084 666.003 73.5387L666.922 74.6133C666.506 75.0987 665.986 75.4684 665.362 75.7227C664.749 75.9769 664.062 76.104 663.299 76.104ZM675.27 76V74.0587L675.184 73.6947V70.384C675.184 69.6791 674.976 69.136 674.56 68.7547C674.155 68.3618 673.543 68.1653 672.722 68.1653C672.179 68.1653 671.648 68.2578 671.128 68.4427C670.608 68.616 670.169 68.8529 669.81 69.1533L669.117 67.9053C669.591 67.524 670.157 67.2351 670.816 67.0387C671.486 66.8307 672.185 66.7267 672.913 66.7267C674.173 66.7267 675.143 67.0329 675.825 67.6453C676.507 68.2578 676.848 69.1938 676.848 70.4533V76H675.27ZM672.254 76.104C671.573 76.104 670.972 75.9884 670.452 75.7573C669.943 75.5262 669.55 75.2084 669.273 74.804C668.996 74.388 668.857 73.92 668.857 73.4C668.857 72.9031 668.973 72.4524 669.204 72.048C669.446 71.6436 669.834 71.32 670.365 71.0773C670.908 70.8347 671.636 70.7133 672.549 70.7133H675.461V71.9093H672.618C671.786 71.9093 671.226 72.048 670.937 72.3253C670.648 72.6027 670.504 72.9378 670.504 73.3307C670.504 73.7813 670.683 74.1453 671.041 74.4227C671.399 74.6884 671.896 74.8213 672.532 74.8213C673.156 74.8213 673.699 74.6827 674.161 74.4053C674.635 74.128 674.976 73.7236 675.184 73.192L675.513 74.336C675.294 74.8791 674.906 75.3124 674.352 75.636C673.797 75.948 673.098 76.104 672.254 76.104ZM683.723 76.104C682.833 76.104 682.036 75.9076 681.331 75.5147C680.638 75.1218 680.089 74.5729 679.685 73.868C679.28 73.1631 679.078 72.3427 679.078 71.4067C679.078 70.4707 679.28 69.656 679.685 68.9627C680.089 68.2578 680.638 67.7089 681.331 67.316C682.036 66.9231 682.833 66.7267 683.723 66.7267C684.497 66.7267 685.197 66.9 685.821 67.2467C686.445 67.5933 686.941 68.1133 687.311 68.8067C687.693 69.5 687.883 70.3667 687.883 71.4067C687.883 72.4467 687.698 73.3133 687.329 74.0067C686.97 74.7 686.479 75.2258 685.855 75.584C685.231 75.9307 684.521 76.104 683.723 76.104ZM683.862 74.648C684.44 74.648 684.96 74.5151 685.422 74.2493C685.896 73.9836 686.265 73.608 686.531 73.1227C686.809 72.6258 686.947 72.0538 686.947 71.4067C686.947 70.748 686.809 70.1818 686.531 69.708C686.265 69.2227 685.896 68.8471 685.422 68.5813C684.96 68.3156 684.44 68.1827 683.862 68.1827C683.273 68.1827 682.747 68.3156 682.285 68.5813C681.822 68.8471 681.453 69.2227 681.175 69.708C680.898 70.1818 680.759 70.748 680.759 71.4067C680.759 72.0538 680.898 72.6258 681.175 73.1227C681.453 73.608 681.822 73.9836 682.285 74.2493C682.747 74.5151 683.273 74.648 683.862 74.648ZM686.999 76V73.5213L687.103 71.3893L686.93 69.2573V63.1387H688.594V76H686.999ZM695.833 76.104C694.851 76.104 693.984 75.9018 693.233 75.4973C692.493 75.0929 691.916 74.5382 691.5 73.8333C691.095 73.1284 690.893 72.3196 690.893 71.4067C690.893 70.4938 691.089 69.6849 691.482 68.98C691.887 68.2751 692.436 67.7262 693.129 67.3333C693.834 66.9289 694.625 66.7267 695.504 66.7267C696.393 66.7267 697.179 66.9231 697.861 67.316C698.543 67.7089 699.074 68.2636 699.456 68.98C699.849 69.6849 700.045 70.5111 700.045 71.4587C700.045 71.528 700.039 71.6089 700.028 71.7013C700.028 71.7938 700.022 71.8804 700.01 71.9613H692.193V70.7653H699.144L698.468 71.1813C698.479 70.592 698.358 70.0662 698.104 69.604C697.849 69.1418 697.497 68.7836 697.046 68.5293C696.607 68.2636 696.093 68.1307 695.504 68.1307C694.926 68.1307 694.412 68.2636 693.961 68.5293C693.51 68.7836 693.158 69.1476 692.904 69.6213C692.649 70.0836 692.522 70.6151 692.522 71.216V71.4933C692.522 72.1058 692.661 72.6547 692.938 73.14C693.227 73.6138 693.626 73.9836 694.134 74.2493C694.643 74.5151 695.226 74.648 695.885 74.648C696.428 74.648 696.919 74.5556 697.358 74.3707C697.809 74.1858 698.202 73.9084 698.537 73.5387L699.456 74.6133C699.04 75.0987 698.52 75.4684 697.896 75.7227C697.283 75.9769 696.596 76.104 695.833 76.104ZM702.356 76V66.8133H703.95V69.3093L703.794 68.6853C704.048 68.0498 704.476 67.5644 705.077 67.2293C705.678 66.8942 706.417 66.7267 707.296 66.7267V68.3387C707.226 68.3271 707.157 68.3213 707.088 68.3213C707.03 68.3213 706.972 68.3213 706.914 68.3213C706.024 68.3213 705.32 68.5871 704.8 69.1187C704.28 69.6502 704.02 70.4187 704.02 71.424V76H702.356ZM712.083 76.104C711.32 76.104 710.592 76 709.899 75.792C709.217 75.584 708.68 75.3298 708.287 75.0293L708.98 73.712C709.373 73.9778 709.858 74.2031 710.436 74.388C711.014 74.5729 711.603 74.6653 712.204 74.6653C712.978 74.6653 713.533 74.5556 713.868 74.336C714.215 74.1164 714.388 73.8102 714.388 73.4173C714.388 73.1284 714.284 72.9031 714.076 72.7413C713.868 72.5796 713.591 72.4582 713.244 72.3773C712.909 72.2964 712.533 72.2271 712.117 72.1693C711.701 72.1 711.285 72.0191 710.869 71.9267C710.453 71.8227 710.072 71.684 709.725 71.5107C709.379 71.3258 709.101 71.0773 708.893 70.7653C708.685 70.4418 708.581 70.0142 708.581 69.4827C708.581 68.928 708.737 68.4427 709.049 68.0267C709.361 67.6107 709.8 67.2929 710.367 67.0733C710.944 66.8422 711.626 66.7267 712.412 66.7267C713.013 66.7267 713.62 66.8018 714.232 66.952C714.856 67.0907 715.364 67.2929 715.757 67.5587L715.047 68.876C714.631 68.5987 714.197 68.408 713.747 68.304C713.296 68.2 712.845 68.148 712.395 68.148C711.667 68.148 711.124 68.2693 710.765 68.512C710.407 68.7431 710.228 69.0436 710.228 69.4133C710.228 69.7253 710.332 69.968 710.54 70.1413C710.76 70.3031 711.037 70.4302 711.372 70.5227C711.719 70.6151 712.1 70.696 712.516 70.7653C712.932 70.8231 713.348 70.904 713.764 71.008C714.18 71.1004 714.556 71.2333 714.891 71.4067C715.237 71.58 715.515 71.8227 715.723 72.1347C715.942 72.4467 716.052 72.8627 716.052 73.3827C716.052 73.9373 715.89 74.4169 715.567 74.8213C715.243 75.2258 714.787 75.5436 714.197 75.7747C713.608 75.9942 712.903 76.104 712.083 76.104ZM723.037 66.7267C723.788 66.7267 724.447 66.8711 725.013 67.16C725.591 67.4489 726.041 67.888 726.365 68.4773C726.689 69.0667 726.85 69.812 726.85 70.7133V76H725.186V70.904C725.186 70.0142 724.967 69.344 724.528 68.8933C724.1 68.4427 723.493 68.2173 722.708 68.2173C722.118 68.2173 721.604 68.3329 721.165 68.564C720.726 68.7951 720.385 69.136 720.142 69.5867C719.911 70.0373 719.796 70.5978 719.796 71.268V76H718.132V63.1387H719.796V69.292L719.466 68.6333C719.767 68.0324 720.229 67.5644 720.853 67.2293C721.477 66.8942 722.205 66.7267 723.037 66.7267ZM729.93 76V66.8133H731.594V76H729.93ZM730.762 65.0453C730.438 65.0453 730.167 64.9413 729.947 64.7333C729.739 64.5253 729.635 64.2711 729.635 63.9707C729.635 63.6587 729.739 63.3987 729.947 63.1907C730.167 62.9827 730.438 62.8787 730.762 62.8787C731.085 62.8787 731.351 62.9827 731.559 63.1907C731.779 63.3871 731.888 63.6356 731.888 63.936C731.888 64.248 731.784 64.5138 731.576 64.7333C731.368 64.9413 731.097 65.0453 730.762 65.0453ZM739.642 76.104C738.879 76.104 738.18 75.9307 737.544 75.584C736.92 75.2258 736.418 74.7 736.036 74.0067C735.667 73.3133 735.482 72.4467 735.482 71.4067C735.482 70.3667 735.661 69.5 736.019 68.8067C736.389 68.1133 736.886 67.5933 737.51 67.2467C738.145 66.9 738.856 66.7267 739.642 66.7267C740.543 66.7267 741.34 66.9231 742.034 67.316C742.727 67.7089 743.276 68.2578 743.68 68.9627C744.085 69.656 744.287 70.4707 744.287 71.4067C744.287 72.3427 744.085 73.1631 743.68 73.868C743.276 74.5729 742.727 75.1218 742.034 75.5147C741.34 75.9076 740.543 76.104 739.642 76.104ZM734.771 79.3627V66.8133H736.366V69.292L736.262 71.424L736.435 73.556V79.3627H734.771ZM739.503 74.648C740.092 74.648 740.618 74.5151 741.08 74.2493C741.554 73.9836 741.924 73.608 742.19 73.1227C742.467 72.6258 742.606 72.0538 742.606 71.4067C742.606 70.748 742.467 70.1818 742.19 69.708C741.924 69.2227 741.554 68.8471 741.08 68.5813C740.618 68.3156 740.092 68.1827 739.503 68.1827C738.925 68.1827 738.399 68.3156 737.926 68.5813C737.463 68.8471 737.094 69.2227 736.816 69.708C736.551 70.1818 736.418 70.748 736.418 71.4067C736.418 72.0538 736.551 72.6258 736.816 73.1227C737.094 73.608 737.463 73.9836 737.926 74.2493C738.399 74.5151 738.925 74.648 739.503 74.648Z" fill="white"/>
<rect x="343" y="602" width="180" height="180" rx="90" fill="black"/>
<path d="M373.086 686.128C372.233 686.128 371.444 685.989 370.718 685.712C370.004 685.424 369.38 685.024 368.846 684.512C368.324 683.989 367.913 683.381 367.614 682.688C367.316 681.995 367.166 681.232 367.166 680.4C367.166 679.568 367.316 678.805 367.614 678.112C367.913 677.419 368.329 676.816 368.862 676.304C369.396 675.781 370.02 675.381 370.734 675.104C371.46 674.816 372.249 674.672 373.102 674.672C373.966 674.672 374.761 674.821 375.486 675.12C376.222 675.408 376.846 675.84 377.358 676.416L376.318 677.424C375.892 676.976 375.412 676.645 374.878 676.432C374.345 676.208 373.774 676.096 373.166 676.096C372.537 676.096 371.95 676.203 371.406 676.416C370.873 676.629 370.409 676.928 370.014 677.312C369.62 677.696 369.31 678.155 369.086 678.688C368.873 679.211 368.766 679.781 368.766 680.4C368.766 681.019 368.873 681.595 369.086 682.128C369.31 682.651 369.62 683.104 370.014 683.488C370.409 683.872 370.873 684.171 371.406 684.384C371.95 684.597 372.537 684.704 373.166 684.704C373.774 684.704 374.345 684.597 374.878 684.384C375.412 684.16 375.892 683.819 376.318 683.36L377.358 684.368C376.846 684.944 376.222 685.381 375.486 685.68C374.761 685.979 373.961 686.128 373.086 686.128ZM382.69 686.096C381.836 686.096 381.079 685.909 380.418 685.536C379.756 685.163 379.234 684.651 378.85 684C378.466 683.339 378.274 682.592 378.274 681.76C378.274 680.917 378.466 680.171 378.85 679.52C379.234 678.869 379.756 678.363 380.418 678C381.079 677.627 381.836 677.44 382.69 677.44C383.532 677.44 384.284 677.627 384.946 678C385.618 678.363 386.14 678.869 386.514 679.52C386.898 680.16 387.09 680.907 387.09 681.76C387.09 682.603 386.898 683.349 386.514 684C386.14 684.651 385.618 685.163 384.946 685.536C384.284 685.909 383.532 686.096 382.69 686.096ZM382.69 684.752C383.234 684.752 383.719 684.629 384.146 684.384C384.583 684.139 384.924 683.792 385.17 683.344C385.415 682.885 385.538 682.357 385.538 681.76C385.538 681.152 385.415 680.629 385.17 680.192C384.924 679.744 384.583 679.397 384.146 679.152C383.719 678.907 383.234 678.784 382.69 678.784C382.146 678.784 381.66 678.907 381.234 679.152C380.807 679.397 380.466 679.744 380.21 680.192C379.954 680.629 379.826 681.152 379.826 681.76C379.826 682.357 379.954 682.885 380.21 683.344C380.466 683.792 380.807 684.139 381.234 684.384C381.66 684.629 382.146 684.752 382.69 684.752ZM399.822 677.44C400.504 677.44 401.107 677.573 401.63 677.84C402.152 678.107 402.558 678.512 402.846 679.056C403.144 679.6 403.294 680.288 403.294 681.12V686H401.758V681.296C401.758 680.475 401.566 679.856 401.182 679.44C400.798 679.024 400.259 678.816 399.566 678.816C399.054 678.816 398.606 678.923 398.222 679.136C397.838 679.349 397.539 679.664 397.326 680.08C397.123 680.496 397.022 681.013 397.022 681.632V686H395.486V681.296C395.486 680.475 395.294 679.856 394.91 679.44C394.536 679.024 393.998 678.816 393.294 678.816C392.792 678.816 392.35 678.923 391.966 679.136C391.582 679.349 391.283 679.664 391.07 680.08C390.856 680.496 390.75 681.013 390.75 681.632V686H389.214V677.52H390.686V679.776L390.446 679.2C390.712 678.645 391.123 678.213 391.678 677.904C392.232 677.595 392.878 677.44 393.614 677.44C394.424 677.44 395.123 677.643 395.71 678.048C396.296 678.443 396.68 679.045 396.862 679.856L396.238 679.6C396.494 678.949 396.942 678.427 397.582 678.032C398.222 677.637 398.968 677.44 399.822 677.44ZM416.728 677.44C417.411 677.44 418.013 677.573 418.536 677.84C419.059 678.107 419.464 678.512 419.752 679.056C420.051 679.6 420.2 680.288 420.2 681.12V686H418.664V681.296C418.664 680.475 418.472 679.856 418.088 679.44C417.704 679.024 417.165 678.816 416.472 678.816C415.96 678.816 415.512 678.923 415.128 679.136C414.744 679.349 414.445 679.664 414.232 680.08C414.029 680.496 413.928 681.013 413.928 681.632V686H412.392V681.296C412.392 680.475 412.2 679.856 411.816 679.44C411.443 679.024 410.904 678.816 410.2 678.816C409.699 678.816 409.256 678.923 408.872 679.136C408.488 679.349 408.189 679.664 407.976 680.08C407.763 680.496 407.656 681.013 407.656 681.632V686H406.12V677.52H407.592V679.776L407.352 679.2C407.619 678.645 408.029 678.213 408.584 677.904C409.139 677.595 409.784 677.44 410.52 677.44C411.331 677.44 412.029 677.643 412.616 678.048C413.203 678.443 413.587 679.045 413.768 679.856L413.144 679.6C413.4 678.949 413.848 678.427 414.488 678.032C415.128 677.637 415.875 677.44 416.728 677.44ZM426.594 686.096C425.869 686.096 425.229 685.963 424.674 685.696C424.13 685.429 423.704 685.024 423.394 684.48C423.096 683.925 422.946 683.232 422.946 682.4V677.52H424.482V682.224C424.482 683.056 424.68 683.68 425.074 684.096C425.48 684.512 426.045 684.72 426.77 684.72C427.304 684.72 427.768 684.613 428.162 684.4C428.557 684.176 428.861 683.856 429.074 683.44C429.288 683.013 429.394 682.501 429.394 681.904V677.52H430.93V686H429.474V683.712L429.714 684.32C429.437 684.885 429.021 685.323 428.466 685.632C427.912 685.941 427.288 686.096 426.594 686.096ZM438.382 677.44C439.076 677.44 439.684 677.573 440.206 677.84C440.74 678.107 441.156 678.512 441.454 679.056C441.753 679.6 441.902 680.288 441.902 681.12V686H440.366V681.296C440.366 680.475 440.164 679.856 439.758 679.44C439.364 679.024 438.804 678.816 438.078 678.816C437.534 678.816 437.06 678.923 436.654 679.136C436.249 679.349 435.934 679.664 435.71 680.08C435.497 680.496 435.39 681.013 435.39 681.632V686H433.854V677.52H435.326V679.808L435.086 679.2C435.364 678.645 435.79 678.213 436.366 677.904C436.942 677.595 437.614 677.44 438.382 677.44ZM444.745 686V677.52H446.281V686H444.745ZM445.513 675.888C445.214 675.888 444.964 675.792 444.761 675.6C444.569 675.408 444.473 675.173 444.473 674.896C444.473 674.608 444.569 674.368 444.761 674.176C444.964 673.984 445.214 673.888 445.513 673.888C445.812 673.888 446.057 673.984 446.249 674.176C446.452 674.357 446.553 674.587 446.553 674.864C446.553 675.152 446.457 675.397 446.265 675.6C446.073 675.792 445.822 675.888 445.513 675.888ZM452.91 686.096C452.046 686.096 451.272 685.909 450.59 685.536C449.918 685.163 449.39 684.651 449.006 684C448.622 683.349 448.43 682.603 448.43 681.76C448.43 680.917 448.622 680.171 449.006 679.52C449.39 678.869 449.918 678.363 450.59 678C451.272 677.627 452.046 677.44 452.91 677.44C453.678 677.44 454.36 677.595 454.958 677.904C455.566 678.203 456.035 678.651 456.366 679.248L455.198 680C454.92 679.584 454.579 679.28 454.174 679.088C453.779 678.885 453.352 678.784 452.894 678.784C452.339 678.784 451.843 678.907 451.406 679.152C450.968 679.397 450.622 679.744 450.366 680.192C450.11 680.629 449.982 681.152 449.982 681.76C449.982 682.368 450.11 682.896 450.366 683.344C450.622 683.792 450.968 684.139 451.406 684.384C451.843 684.629 452.339 684.752 452.894 684.752C453.352 684.752 453.779 684.656 454.174 684.464C454.579 684.261 454.92 683.952 455.198 683.536L456.366 684.272C456.035 684.859 455.566 685.312 454.958 685.632C454.36 685.941 453.678 686.096 452.91 686.096ZM463.618 686V684.208L463.538 683.872V680.816C463.538 680.165 463.346 679.664 462.962 679.312C462.589 678.949 462.024 678.768 461.266 678.768C460.765 678.768 460.274 678.853 459.794 679.024C459.314 679.184 458.909 679.403 458.578 679.68L457.938 678.528C458.376 678.176 458.898 677.909 459.506 677.728C460.125 677.536 460.77 677.44 461.442 677.44C462.605 677.44 463.501 677.723 464.13 678.288C464.76 678.853 465.074 679.717 465.074 680.88V686H463.618ZM460.834 686.096C460.205 686.096 459.65 685.989 459.17 685.776C458.701 685.563 458.338 685.269 458.082 684.896C457.826 684.512 457.698 684.08 457.698 683.6C457.698 683.141 457.805 682.725 458.018 682.352C458.242 681.979 458.6 681.68 459.09 681.456C459.592 681.232 460.264 681.12 461.106 681.12H463.794V682.224H461.17C460.402 682.224 459.885 682.352 459.618 682.608C459.352 682.864 459.218 683.173 459.218 683.536C459.218 683.952 459.384 684.288 459.714 684.544C460.045 684.789 460.504 684.912 461.09 684.912C461.666 684.912 462.168 684.784 462.594 684.528C463.032 684.272 463.346 683.899 463.538 683.408L463.842 684.464C463.64 684.965 463.282 685.365 462.77 685.664C462.258 685.952 461.613 686.096 460.834 686.096ZM470.829 686.096C469.976 686.096 469.314 685.867 468.845 685.408C468.376 684.949 468.141 684.293 468.141 683.44V675.664H469.677V683.376C469.677 683.835 469.789 684.187 470.013 684.432C470.248 684.677 470.578 684.8 471.005 684.8C471.485 684.8 471.885 684.667 472.205 684.4L472.685 685.504C472.45 685.707 472.168 685.856 471.837 685.952C471.517 686.048 471.181 686.096 470.829 686.096ZM466.701 678.784V677.52H472.109V678.784H466.701ZM474.542 686V677.52H476.078V686H474.542ZM475.31 675.888C475.011 675.888 474.761 675.792 474.558 675.6C474.366 675.408 474.27 675.173 474.27 674.896C474.27 674.608 474.366 674.368 474.558 674.176C474.761 673.984 475.011 673.888 475.31 673.888C475.609 673.888 475.854 673.984 476.046 674.176C476.249 674.357 476.35 674.587 476.35 674.864C476.35 675.152 476.254 675.397 476.062 675.6C475.87 675.792 475.619 675.888 475.31 675.888ZM482.643 686.096C481.789 686.096 481.032 685.909 480.371 685.536C479.709 685.163 479.187 684.651 478.803 684C478.419 683.339 478.227 682.592 478.227 681.76C478.227 680.917 478.419 680.171 478.803 679.52C479.187 678.869 479.709 678.363 480.371 678C481.032 677.627 481.789 677.44 482.643 677.44C483.485 677.44 484.237 677.627 484.899 678C485.571 678.363 486.093 678.869 486.467 679.52C486.851 680.16 487.043 680.907 487.043 681.76C487.043 682.603 486.851 683.349 486.467 684C486.093 684.651 485.571 685.163 484.899 685.536C484.237 685.909 483.485 686.096 482.643 686.096ZM482.643 684.752C483.187 684.752 483.672 684.629 484.099 684.384C484.536 684.139 484.877 683.792 485.123 683.344C485.368 682.885 485.491 682.357 485.491 681.76C485.491 681.152 485.368 680.629 485.123 680.192C484.877 679.744 484.536 679.397 484.099 679.152C483.672 678.907 483.187 678.784 482.643 678.784C482.099 678.784 481.613 678.907 481.187 679.152C480.76 679.397 480.419 679.744 480.163 680.192C479.907 680.629 479.779 681.152 479.779 681.76C479.779 682.357 479.907 682.885 480.163 683.344C480.419 683.792 480.76 684.139 481.187 684.384C481.613 684.629 482.099 684.752 482.643 684.752ZM493.695 677.44C494.388 677.44 494.996 677.573 495.519 677.84C496.052 678.107 496.468 678.512 496.767 679.056C497.066 679.6 497.215 680.288 497.215 681.12V686H495.679V681.296C495.679 680.475 495.476 679.856 495.071 679.44C494.676 679.024 494.116 678.816 493.391 678.816C492.847 678.816 492.372 678.923 491.967 679.136C491.562 679.349 491.247 679.664 491.023 680.08C490.81 680.496 490.703 681.013 490.703 681.632V686H489.167V677.52H490.639V679.808L490.399 679.2C490.676 678.645 491.103 678.213 491.679 677.904C492.255 677.595 492.927 677.44 493.695 677.44ZM420.842 710.128C419.989 710.128 419.173 710 418.394 709.744C417.616 709.477 417.002 709.136 416.554 708.72L417.146 707.472C417.573 707.845 418.117 708.155 418.778 708.4C419.44 708.645 420.128 708.768 420.842 708.768C421.493 708.768 422.021 708.693 422.426 708.544C422.832 708.395 423.13 708.192 423.322 707.936C423.514 707.669 423.61 707.371 423.61 707.04C423.61 706.656 423.482 706.347 423.226 706.112C422.981 705.877 422.656 705.691 422.25 705.552C421.856 705.403 421.418 705.275 420.938 705.168C420.458 705.061 419.973 704.939 419.482 704.8C419.002 704.651 418.56 704.464 418.154 704.24C417.76 704.016 417.44 703.717 417.194 703.344C416.949 702.96 416.826 702.469 416.826 701.872C416.826 701.296 416.976 700.768 417.274 700.288C417.584 699.797 418.053 699.408 418.682 699.12C419.322 698.821 420.133 698.672 421.114 698.672C421.765 698.672 422.41 698.757 423.05 698.928C423.69 699.099 424.245 699.344 424.714 699.664L424.186 700.944C423.706 700.624 423.2 700.395 422.666 700.256C422.133 700.107 421.616 700.032 421.114 700.032C420.485 700.032 419.968 700.112 419.562 700.272C419.157 700.432 418.858 700.645 418.666 700.912C418.485 701.179 418.394 701.477 418.394 701.808C418.394 702.203 418.517 702.517 418.762 702.752C419.018 702.987 419.344 703.173 419.738 703.312C420.144 703.451 420.586 703.579 421.066 703.696C421.546 703.803 422.026 703.925 422.506 704.064C422.997 704.203 423.44 704.384 423.834 704.608C424.24 704.832 424.565 705.131 424.81 705.504C425.056 705.877 425.178 706.357 425.178 706.944C425.178 707.509 425.024 708.037 424.714 708.528C424.405 709.008 423.925 709.397 423.274 709.696C422.634 709.984 421.824 710.128 420.842 710.128ZM428.54 707.952L428.572 705.984L433.452 701.52H435.308L431.564 705.2L430.732 705.904L428.54 707.952ZM427.292 710V698.128H428.828V710H427.292ZM433.772 710L430.444 705.872L431.436 704.64L435.66 710H433.772ZM437.151 710V701.52H438.687V710H437.151ZM437.919 699.888C437.621 699.888 437.37 699.792 437.167 699.6C436.975 699.408 436.879 699.173 436.879 698.896C436.879 698.608 436.975 698.368 437.167 698.176C437.37 697.984 437.621 697.888 437.919 697.888C438.218 697.888 438.463 697.984 438.655 698.176C438.858 698.357 438.959 698.587 438.959 698.864C438.959 699.152 438.863 699.397 438.671 699.6C438.479 699.792 438.229 699.888 437.919 699.888ZM441.62 710V698.128H443.156V710H441.62ZM446.089 710V698.128H447.625V710H446.089Z" fill="white"/>
<rect x="733" y="435" width="100" height="100" rx="50" fill="black"/>
<path d="M756.313 480V471.6H759.769C760.513 471.6 761.149 471.72 761.677 471.96C762.213 472.2 762.625 472.544 762.913 472.992C763.201 473.44 763.345 473.972 763.345 474.588C763.345 475.204 763.201 475.736 762.913 476.184C762.625 476.632 762.213 476.976 761.677 477.216C761.149 477.456 760.513 477.576 759.769 477.576H757.177L757.873 476.844V480H756.313ZM757.873 477.012L757.177 476.256H759.697C760.385 476.256 760.901 476.112 761.245 475.824C761.597 475.528 761.773 475.116 761.773 474.588C761.773 474.052 761.597 473.64 761.245 473.352C760.901 473.064 760.385 472.92 759.697 472.92H757.177L757.873 472.152V477.012ZM764.7 480V473.592H766.128V475.356L765.96 474.84C766.152 474.408 766.452 474.08 766.86 473.856C767.276 473.632 767.792 473.52 768.408 473.52V474.948C768.344 474.932 768.284 474.924 768.228 474.924C768.172 474.916 768.116 474.912 768.06 474.912C767.492 474.912 767.04 475.08 766.704 475.416C766.368 475.744 766.2 476.236 766.2 476.892V480H764.7ZM772.502 480.084C771.846 480.084 771.262 479.944 770.75 479.664C770.238 479.376 769.834 478.984 769.538 478.488C769.242 477.992 769.094 477.428 769.094 476.796C769.094 476.156 769.242 475.592 769.538 475.104C769.834 474.608 770.238 474.22 770.75 473.94C771.262 473.66 771.846 473.52 772.502 473.52C773.166 473.52 773.754 473.66 774.266 473.94C774.786 474.22 775.19 474.604 775.478 475.092C775.774 475.58 775.922 476.148 775.922 476.796C775.922 477.428 775.774 477.992 775.478 478.488C775.19 478.984 774.786 479.376 774.266 479.664C773.754 479.944 773.166 480.084 772.502 480.084ZM772.502 478.8C772.87 478.8 773.198 478.72 773.486 478.56C773.774 478.4 773.998 478.168 774.158 477.864C774.326 477.56 774.41 477.204 774.41 476.796C774.41 476.38 774.326 476.024 774.158 475.728C773.998 475.424 773.774 475.192 773.486 475.032C773.198 474.872 772.874 474.792 772.514 474.792C772.146 474.792 771.818 474.872 771.53 475.032C771.25 475.192 771.026 475.424 770.858 475.728C770.69 476.024 770.606 476.38 770.606 476.796C770.606 477.204 770.69 477.56 770.858 477.864C771.026 478.168 771.25 478.4 771.53 478.56C771.818 478.72 772.142 478.8 772.502 478.8ZM780.908 480.084C780.364 480.084 779.88 479.964 779.456 479.724C779.032 479.484 778.696 479.124 778.448 478.644C778.208 478.156 778.088 477.54 778.088 476.796C778.088 476.044 778.212 475.428 778.46 474.948C778.716 474.468 779.056 474.112 779.48 473.88C779.912 473.64 780.388 473.52 780.908 473.52C781.54 473.52 782.096 473.656 782.576 473.928C783.064 474.2 783.448 474.58 783.728 475.068C784.016 475.556 784.16 476.132 784.16 476.796C784.16 477.46 784.016 478.036 783.728 478.524C783.448 479.012 783.064 479.396 782.576 479.676C782.096 479.948 781.54 480.084 780.908 480.084ZM777.356 480V471.096H778.856V475.08L778.736 476.784L778.784 478.488V480H777.356ZM780.74 478.8C781.1 478.8 781.42 478.72 781.7 478.56C781.988 478.4 782.216 478.168 782.384 477.864C782.552 477.56 782.636 477.204 782.636 476.796C782.636 476.38 782.552 476.024 782.384 475.728C782.216 475.424 781.988 475.192 781.7 475.032C781.42 474.872 781.1 474.792 780.74 474.792C780.38 474.792 780.056 474.872 779.768 475.032C779.48 475.192 779.252 475.424 779.084 475.728C778.916 476.024 778.832 476.38 778.832 476.796C778.832 477.204 778.916 477.56 779.084 477.864C779.252 478.168 779.48 478.4 779.768 478.56C780.056 478.72 780.38 478.8 780.74 478.8ZM785.583 480V471.096H787.083V480H785.583ZM792.064 480.084C791.352 480.084 790.728 479.944 790.192 479.664C789.664 479.376 789.252 478.984 788.956 478.488C788.668 477.992 788.524 477.428 788.524 476.796C788.524 476.156 788.664 475.592 788.944 475.104C789.232 474.608 789.624 474.22 790.12 473.94C790.624 473.66 791.196 473.52 791.836 473.52C792.46 473.52 793.016 473.656 793.504 473.928C793.992 474.2 794.376 474.584 794.656 475.08C794.936 475.576 795.076 476.16 795.076 476.832C795.076 476.896 795.072 476.968 795.064 477.048C795.064 477.128 795.06 477.204 795.052 477.276H789.712V476.28H794.26L793.672 476.592C793.68 476.224 793.604 475.9 793.444 475.62C793.284 475.34 793.064 475.12 792.784 474.96C792.512 474.8 792.196 474.72 791.836 474.72C791.468 474.72 791.144 474.8 790.864 474.96C790.592 475.12 790.376 475.344 790.216 475.632C790.064 475.912 789.988 476.244 789.988 476.628V476.868C789.988 477.252 790.076 477.592 790.252 477.888C790.428 478.184 790.676 478.412 790.996 478.572C791.316 478.732 791.684 478.812 792.1 478.812C792.46 478.812 792.784 478.756 793.072 478.644C793.36 478.532 793.616 478.356 793.84 478.116L794.644 479.04C794.356 479.376 793.992 479.636 793.552 479.82C793.12 479.996 792.624 480.084 792.064 480.084ZM804.605 473.52C805.117 473.52 805.569 473.62 805.961 473.82C806.361 474.02 806.673 474.328 806.897 474.744C807.121 475.152 807.233 475.68 807.233 476.328V480H805.733V476.52C805.733 475.952 805.609 475.528 805.361 475.248C805.113 474.968 804.757 474.828 804.293 474.828C803.965 474.828 803.673 474.9 803.417 475.044C803.169 475.188 802.973 475.4 802.829 475.68C802.693 475.96 802.625 476.316 802.625 476.748V480H801.125V476.52C801.125 475.952 801.001 475.528 800.753 475.248C800.505 474.968 800.149 474.828 799.685 474.828C799.357 474.828 799.065 474.9 798.809 475.044C798.561 475.188 798.365 475.4 798.221 475.68C798.085 475.96 798.017 476.316 798.017 476.748V480H796.517V473.592H797.945V475.296L797.693 474.792C797.909 474.376 798.221 474.06 798.629 473.844C799.045 473.628 799.517 473.52 800.045 473.52C800.645 473.52 801.165 473.668 801.605 473.964C802.053 474.26 802.349 474.708 802.493 475.308L801.905 475.104C802.113 474.624 802.457 474.24 802.937 473.952C803.417 473.664 803.973 473.52 804.605 473.52ZM764.208 498.12C763.552 498.12 762.924 498.028 762.324 497.844C761.724 497.652 761.248 497.408 760.896 497.112L761.436 495.9C761.772 496.164 762.188 496.384 762.684 496.56C763.18 496.736 763.688 496.824 764.208 496.824C764.648 496.824 765.004 496.776 765.276 496.68C765.548 496.584 765.748 496.456 765.876 496.296C766.004 496.128 766.068 495.94 766.068 495.732C766.068 495.476 765.976 495.272 765.792 495.12C765.608 494.96 765.368 494.836 765.072 494.748C764.784 494.652 764.46 494.564 764.1 494.484C763.748 494.404 763.392 494.312 763.032 494.208C762.68 494.096 762.356 493.956 762.06 493.788C761.772 493.612 761.536 493.38 761.352 493.092C761.168 492.804 761.076 492.436 761.076 491.988C761.076 491.532 761.196 491.116 761.436 490.74C761.684 490.356 762.056 490.052 762.552 489.828C763.056 489.596 763.692 489.48 764.46 489.48C764.964 489.48 765.464 489.544 765.96 489.672C766.456 489.8 766.888 489.984 767.256 490.224L766.764 491.436C766.388 491.212 766 491.048 765.6 490.944C765.2 490.832 764.816 490.776 764.448 490.776C764.016 490.776 763.664 490.828 763.392 490.932C763.128 491.036 762.932 491.172 762.804 491.34C762.684 491.508 762.624 491.7 762.624 491.916C762.624 492.172 762.712 492.38 762.888 492.54C763.072 492.692 763.308 492.812 763.596 492.9C763.892 492.988 764.22 493.076 764.58 493.164C764.94 493.244 765.296 493.336 765.648 493.44C766.008 493.544 766.332 493.68 766.62 493.848C766.916 494.016 767.152 494.244 767.328 494.532C767.512 494.82 767.604 495.184 767.604 495.624C767.604 496.072 767.48 496.488 767.232 496.872C766.992 497.248 766.62 497.552 766.116 497.784C765.612 498.008 764.976 498.12 764.208 498.12ZM771.887 498.084C771.231 498.084 770.647 497.944 770.135 497.664C769.623 497.376 769.219 496.984 768.923 496.488C768.627 495.992 768.479 495.428 768.479 494.796C768.479 494.156 768.627 493.592 768.923 493.104C769.219 492.608 769.623 492.22 770.135 491.94C770.647 491.66 771.231 491.52 771.887 491.52C772.551 491.52 773.139 491.66 773.651 491.94C774.171 492.22 774.575 492.604 774.863 493.092C775.159 493.58 775.307 494.148 775.307 494.796C775.307 495.428 775.159 495.992 774.863 496.488C774.575 496.984 774.171 497.376 773.651 497.664C773.139 497.944 772.551 498.084 771.887 498.084ZM771.887 496.8C772.255 496.8 772.583 496.72 772.871 496.56C773.159 496.4 773.383 496.168 773.543 495.864C773.711 495.56 773.795 495.204 773.795 494.796C773.795 494.38 773.711 494.024 773.543 493.728C773.383 493.424 773.159 493.192 772.871 493.032C772.583 492.872 772.259 492.792 771.899 492.792C771.531 492.792 771.203 492.872 770.915 493.032C770.635 493.192 770.411 493.424 770.243 493.728C770.075 494.024 769.991 494.38 769.991 494.796C769.991 495.204 770.075 495.56 770.243 495.864C770.411 496.168 770.635 496.4 770.915 496.56C771.203 496.72 771.527 496.8 771.887 496.8ZM776.741 498V489.096H778.241V498H776.741ZM781.914 498L779.166 491.592H780.726L783.09 497.244H782.322L784.77 491.592H786.21L783.462 498H781.914ZM787.147 498V491.592H788.647V498H787.147ZM787.903 490.536C787.623 490.536 787.391 490.448 787.207 490.272C787.031 490.096 786.943 489.884 786.943 489.636C786.943 489.38 787.031 489.168 787.207 489C787.391 488.824 787.623 488.736 787.903 488.736C788.183 488.736 788.411 488.82 788.587 488.988C788.771 489.148 788.863 489.352 788.863 489.6C788.863 489.864 788.775 490.088 788.599 490.272C788.423 490.448 788.191 490.536 787.903 490.536ZM794.252 491.52C794.764 491.52 795.22 491.62 795.62 491.82C796.028 492.02 796.348 492.328 796.58 492.744C796.812 493.152 796.928 493.68 796.928 494.328V498H795.428V494.52C795.428 493.952 795.292 493.528 795.02 493.248C794.756 492.968 794.384 492.828 793.904 492.828C793.552 492.828 793.24 492.9 792.968 493.044C792.696 493.188 792.484 493.404 792.332 493.692C792.188 493.972 792.116 494.328 792.116 494.76V498H790.616V491.592H792.044V493.32L791.792 492.792C792.016 492.384 792.34 492.072 792.764 491.856C793.196 491.632 793.692 491.52 794.252 491.52ZM801.747 500.412C801.155 500.412 800.575 500.332 800.007 500.172C799.447 500.02 798.987 499.796 798.627 499.5L799.299 498.372C799.579 498.604 799.931 498.788 800.355 498.924C800.787 499.068 801.223 499.14 801.663 499.14C802.367 499.14 802.883 498.976 803.211 498.648C803.539 498.328 803.703 497.844 803.703 497.196V496.056L803.823 494.604L803.775 493.152V491.592H805.203V497.028C805.203 498.188 804.907 499.04 804.315 499.584C803.723 500.136 802.867 500.412 801.747 500.412ZM801.555 497.712C800.947 497.712 800.395 497.584 799.899 497.328C799.411 497.064 799.023 496.7 798.735 496.236C798.455 495.772 798.315 495.228 798.315 494.604C798.315 493.988 798.455 493.448 798.735 492.984C799.023 492.52 799.411 492.16 799.899 491.904C800.395 491.648 800.947 491.52 801.555 491.52C802.099 491.52 802.587 491.628 803.019 491.844C803.451 492.06 803.795 492.396 804.051 492.852C804.315 493.308 804.447 493.892 804.447 494.604C804.447 495.316 804.315 495.904 804.051 496.368C803.795 496.824 803.451 497.164 803.019 497.388C802.587 497.604 802.099 497.712 801.555 497.712ZM801.783 496.44C802.159 496.44 802.495 496.364 802.791 496.212C803.087 496.052 803.315 495.836 803.475 495.564C803.643 495.284 803.727 494.964 803.727 494.604C803.727 494.244 803.643 493.928 803.475 493.656C803.315 493.376 803.087 493.164 802.791 493.02C802.495 492.868 802.159 492.792 801.783 492.792C801.407 492.792 801.067 492.868 800.763 493.02C800.467 493.164 800.235 493.376 800.067 493.656C799.907 493.928 799.827 494.244 799.827 494.604C799.827 494.964 799.907 495.284 800.067 495.564C800.235 495.836 800.467 496.052 800.763 496.212C801.067 496.364 801.407 496.44 801.783 496.44Z" fill="white"/>
<path d="M127.227 125.281C127.227 125.281 148.365 130.086 161.517 134.469C174.072 138.652 181.13 141.152 193 147C201.864 151.367 207.586 154.319 216 159.5C227.483 166.571 233.183 170.315 243.5 179C252.373 186.469 256.969 190.632 265 199C275.241 209.67 281.088 216.197 290 228C297.41 237.812 301.034 243.749 307 254.5C311.026 261.754 313.153 267.208 316 275C319.562 284.748 322 299.5 322 299.5" stroke="black" stroke-width="3" stroke-linecap="round"/>
<path d="M763.788 461.855C763.788 461.855 743.08 468.263 729.498 471.043C716.534 473.698 709.172 475.062 695.967 475.933C686.107 476.583 679.677 476.887 669.799 476.607C656.319 476.225 649.51 475.833 636.233 473.47C624.815 471.438 618.753 470.13 607.614 466.899C593.41 462.779 585.083 460.05 571.463 454.285C560.14 449.492 554.033 446.163 543.491 439.835C536.378 435.566 531.808 431.906 525.446 426.581C517.488 419.921 508 408.364 508 408.364" stroke="black" stroke-width="3" stroke-linecap="round"/>
<path d="M672.693 108.936C672.693 108.936 662.581 128.11 654.943 139.68C647.653 150.723 643.412 156.894 634.691 166.847C628.179 174.279 623.847 179.041 616.664 185.828C606.862 195.089 601.77 199.626 590.711 207.344C581.2 213.981 575.989 217.343 565.828 222.935C552.871 230.065 545.053 234.023 531.346 239.577C519.95 244.195 513.277 246.159 501.349 249.139C493.3 251.15 487.481 251.793 479.218 252.526C468.88 253.444 454 251.981 454 251.981" stroke="black" stroke-width="3" stroke-linecap="round"/>
<path d="M126.184 469.933C126.184 469.933 144.529 458.384 156.928 452.183C168.764 446.264 175.522 443.04 188.051 438.782C197.407 435.602 203.54 433.644 213.153 431.357C226.273 428.238 232.951 426.854 246.387 425.7C257.943 424.708 264.136 424.402 275.732 424.64C290.519 424.943 299.268 425.424 313.916 427.468C326.093 429.167 332.854 430.802 344.675 434.186C352.65 436.468 358.011 438.821 365.534 442.318C374.946 446.692 387.101 455.399 387.101 455.399" stroke="black" stroke-width="3" stroke-linecap="round"/>
<path d="M457.284 644.371C457.284 644.371 446.012 634.273 439.773 626.86C433.816 619.784 430.55 615.687 425.969 607.462C422.548 601.32 420.414 597.248 417.743 590.579C414.096 581.476 412.416 576.769 410.436 566.7C408.732 558.041 408.013 553.317 407.364 544.177C406.536 532.521 406.304 525.514 406.981 513.331C407.544 503.202 408.451 497.325 410.486 486.859C411.86 479.797 413.487 474.751 415.936 467.599C419 458.651 425.585 445.976 425.585 445.976" stroke="black" stroke-width="3" stroke-linecap="round"/>
<defs>
<filter id="filter0_dd_382_20926" x="269.378" y="199.508" width="308.244" height="308.244" filterUnits="userSpaceOnUse" color-interpolation-filters="sRGB">
<feFlood flood-opacity="0" result="BackgroundImageFix"/>
<feColorMatrix in="SourceAlpha" type="matrix" values="0 0 0 0 0 0 0 0 0 0 0 0 0 0 0 0 0 0 127 0" result="hardAlpha"/>
<feOffset dy="6.12996"/>
<feGaussianBlur stdDeviation="15.315"/>
<feColorMatrix type="matrix" values="0 0 0 0 1 0 0 0 0 0.944219 0 0 0 0 0.944219 0 0 0 0.3 0"/>
<feBlend mode="normal" in2="BackgroundImageFix" result="effect1_dropShadow_382_20926"/>
<feColorMatrix in="SourceAlpha" type="matrix" values="0 0 0 0 0 0 0 0 0 0 0 0 0 0 0 0 0 0 127 0" result="hardAlpha"/>
<feMorphology radius="0.991903" operator="dilate" in="SourceAlpha" result="effect2_dropShadow_382_20926"/>
<feOffset dy="6.12996"/>
<feGaussianBlur stdDeviation="15.315"/>
<feColorMatrix type="matrix" values="0 0 0 0 0.0156863 0 0 0 0 0.0705882 0 0 0 0 0.227451 0 0 0 0.48 0"/>
<feBlend mode="normal" in2="effect1_dropShadow_382_20926" result="effect2_dropShadow_382_20926"/>
<feBlend mode="normal" in="SourceGraphic" in2="effect2_dropShadow_382_20926" result="shape"/>
</filter>
</defs>
</svg>
