<svg width="1240" height="367" viewBox="0 0 1240 367" fill="none" xmlns="http://www.w3.org/2000/svg">
<rect width="1240" height="367" rx="53.913" fill="url(#paint0_linear_246_8836)"/>
<path d="M444.938 252.873C435.321 252.873 426.578 251.312 418.71 248.19C410.966 244.942 404.284 240.321 398.663 234.326C393.168 228.331 388.921 221.149 385.924 212.781C382.926 204.413 381.427 195.108 381.427 184.866C381.427 174.5 382.926 165.195 385.924 156.951C388.921 148.583 393.168 141.464 398.663 135.594C404.284 129.599 410.966 125.04 418.71 121.917C426.578 118.67 435.321 117.046 444.938 117.046C454.555 117.046 463.236 118.67 470.98 121.917C478.848 125.04 485.53 129.536 491.026 135.406C496.646 141.277 500.955 148.396 503.953 156.764C506.95 165.007 508.449 174.312 508.449 184.679C508.449 195.045 506.95 204.413 503.953 212.781C500.955 221.149 496.646 228.331 491.026 234.326C485.53 240.321 478.848 244.942 470.98 248.19C463.236 251.312 454.555 252.873 444.938 252.873ZM444.938 232.265C453.057 232.265 459.926 230.392 465.546 226.645C471.292 222.898 475.663 217.465 478.661 210.346C481.783 203.226 483.345 194.733 483.345 184.866C483.345 174.874 481.846 166.381 478.848 159.387C475.851 152.268 471.479 146.897 465.734 143.275C459.989 139.528 453.057 137.655 444.938 137.655C436.945 137.655 430.075 139.528 424.33 143.275C418.585 146.897 414.151 152.268 411.028 159.387C408.031 166.381 406.532 174.874 406.532 184.866C406.532 194.733 408.031 203.226 411.028 210.346C414.151 217.465 418.585 222.898 424.33 226.645C430.075 230.392 436.945 232.265 444.938 232.265ZM530.585 251V159.387H553.442V181.494H551.568C553.317 174 556.752 168.317 561.872 164.445C566.993 160.449 573.8 158.138 582.293 157.513L589.413 156.951L590.911 176.81L577.422 178.122C569.804 178.871 564.058 181.244 560.186 185.241C556.315 189.113 554.379 194.608 554.379 201.728V251H530.585ZM656.783 252.873C649.039 252.873 642.232 250.938 636.362 247.066C630.617 243.194 626.808 238.011 624.934 231.516H626.808V251H603.951V118.92H627.37V177.934H625.121C627.12 171.814 630.992 166.881 636.737 163.134C642.482 159.387 649.164 157.513 656.783 157.513C664.902 157.513 671.958 159.449 677.953 163.321C683.949 167.193 688.632 172.689 692.005 179.808C695.377 186.802 697.063 195.233 697.063 205.1C697.063 214.842 695.377 223.335 692.005 230.579C688.632 237.698 683.886 243.194 677.766 247.066C671.771 250.938 664.777 252.873 656.783 252.873ZM650.226 235.075C657.22 235.075 662.841 232.577 667.087 227.582C671.334 222.461 673.457 214.967 673.457 205.1C673.457 195.108 671.334 187.676 667.087 182.805C662.841 177.809 657.22 175.312 650.226 175.312C643.232 175.312 637.611 177.809 633.365 182.805C629.118 187.676 626.995 195.108 626.995 205.1C626.995 214.967 629.118 222.461 633.365 227.582C637.611 232.577 643.232 235.075 650.226 235.075ZM714.788 139.715V116.859H741.016V139.715H714.788ZM716.287 251V159.387H739.705V251H716.287ZM806.004 252.873C793.764 252.873 784.647 249.813 778.651 243.693C772.656 237.573 769.659 228.643 769.659 216.903V176.998H752.048V159.387H769.659V132.034H793.077V159.387H820.805V176.998H793.077V215.591C793.077 221.586 794.389 226.083 797.011 229.08C799.634 232.078 803.881 233.577 809.751 233.577C811.5 233.577 813.311 233.389 815.184 233.015C817.058 232.515 818.994 232.015 820.992 231.516L824.552 248.752C822.303 250.001 819.431 251 815.934 251.749C812.561 252.499 809.252 252.873 806.004 252.873ZM838.188 251V118.92H895.517C905.259 118.92 913.502 120.544 920.247 123.791C926.991 127.038 932.112 131.722 935.609 137.842C939.106 143.962 940.855 151.393 940.855 160.136C940.855 168.754 939.106 176.186 935.609 182.431C932.112 188.551 926.991 193.297 920.247 196.669C913.502 199.917 905.259 201.54 895.517 201.54H862.169V251H838.188ZM862.169 182.618H891.77C900.263 182.618 906.695 180.745 911.067 176.998C915.438 173.126 917.624 167.505 917.624 160.136C917.624 152.767 915.438 147.209 911.067 143.462C906.695 139.715 900.263 137.842 891.77 137.842H862.169V182.618ZM983.927 252.873C977.308 252.873 971.375 251.624 966.129 249.127C961.009 246.504 956.949 243.006 953.952 238.635C951.079 234.264 949.643 229.33 949.643 223.835C949.643 217.09 951.391 211.782 954.888 207.91C958.386 203.913 964.069 201.041 971.937 199.292C979.806 197.543 990.36 196.669 1003.6 196.669H1012.97V210.158H1003.79C997.916 210.158 992.983 210.408 988.986 210.908C984.989 211.282 981.742 211.969 979.244 212.968C976.871 213.843 975.122 215.092 973.998 216.715C972.999 218.339 972.499 220.337 972.499 222.71C972.499 226.832 973.936 230.204 976.808 232.827C979.681 235.45 983.678 236.762 988.798 236.762C992.92 236.762 996.542 235.825 999.665 233.951C1002.91 231.953 1005.47 229.268 1007.35 225.895C1009.22 222.523 1010.16 218.651 1010.16 214.28V192.735C1010.16 186.49 1008.78 181.994 1006.03 179.246C1003.29 176.498 998.665 175.124 992.171 175.124C987.05 175.124 981.804 175.936 976.433 177.56C971.063 179.058 965.63 181.432 960.134 184.679L953.39 168.754C956.637 166.506 960.446 164.57 964.818 162.947C969.314 161.198 973.998 159.887 978.869 159.012C983.865 158.013 988.549 157.513 992.92 157.513C1001.91 157.513 1009.28 158.887 1015.03 161.635C1020.9 164.383 1025.27 168.567 1028.14 174.187C1031.01 179.683 1032.45 186.802 1032.45 195.545V251H1010.53V231.516H1012.03C1011.16 235.887 1009.41 239.697 1006.78 242.944C1004.29 246.067 1001.1 248.502 997.229 250.251C993.357 251.999 988.923 252.873 983.927 252.873ZM1063.55 284.723L1082.66 242.569V252.311L1042.38 159.387H1067.3L1095.77 230.392H1090.15L1119.19 159.387H1142.8L1087.72 284.723H1063.55Z" fill="#310D61" fill-opacity="0.13"/>
<path d="M148.576 125.18C141.668 115.211 127.745 112.685 119.474 121.555C108.869 132.928 100.737 146.534 95.7215 161.505C88.3455 183.523 88.0949 207.347 95.0063 229.519C101.918 251.691 115.631 271.058 134.157 284.809C152.683 298.559 175.057 305.979 198.032 305.99C221.008 306.002 243.389 298.604 261.928 284.872C280.467 271.139 294.2 251.786 301.132 229.621C308.065 207.456 307.838 183.632 300.483 161.606C295.482 146.63 287.363 133.016 276.769 121.633C268.506 112.755 254.581 115.267 247.663 125.229C240.853 135.035 243.607 148.367 250.566 158.067C254.386 163.392 257.416 169.3 259.524 175.611C263.937 188.826 264.073 203.121 259.913 216.42C255.754 229.719 247.514 241.331 236.391 249.57C225.267 257.81 211.839 262.248 198.054 262.241C184.268 262.235 170.844 257.783 159.728 249.532C148.613 241.282 140.385 229.662 136.238 216.359C132.091 203.055 132.241 188.761 136.667 175.55C138.78 169.241 141.816 163.336 145.641 158.016C152.61 148.322 155.377 134.993 148.576 125.18Z" fill="#310D61" fill-opacity="0.13"/>
<ellipse cx="198.083" cy="91.6244" rx="30.2641" ry="30.6244" fill="#310D61" fill-opacity="0.13"/>
<path d="M562.281 205.619C559.104 205.619 556.215 205.103 553.615 204.071C551.056 202.998 548.848 201.471 546.991 199.49C545.175 197.51 543.772 195.137 542.781 192.371C541.791 189.606 541.296 186.532 541.296 183.148C541.296 179.722 541.791 176.648 542.781 173.924C543.772 171.159 545.175 168.806 546.991 166.867C548.848 164.886 551.056 163.379 553.615 162.348C556.215 161.275 559.104 160.738 562.281 160.738C565.459 160.738 568.327 161.275 570.886 162.348C573.486 163.379 575.694 164.865 577.51 166.805C579.367 168.744 580.791 171.097 581.781 173.862C582.772 176.586 583.267 179.66 583.267 183.086C583.267 186.511 582.772 189.606 581.781 192.371C580.791 195.137 579.367 197.51 577.51 199.49C575.694 201.471 573.486 202.998 570.886 204.071C568.327 205.103 565.459 205.619 562.281 205.619ZM562.281 198.81C564.964 198.81 567.234 198.19 569.091 196.952C570.989 195.714 572.434 193.919 573.424 191.567C574.456 189.214 574.972 186.408 574.972 183.148C574.972 179.846 574.477 177.04 573.486 174.729C572.496 172.376 571.051 170.602 569.153 169.405C567.254 168.167 564.964 167.548 562.281 167.548C559.64 167.548 557.37 168.167 555.472 169.405C553.573 170.602 552.108 172.376 551.077 174.729C550.086 177.04 549.591 179.846 549.591 183.148C549.591 186.408 550.086 189.214 551.077 191.567C552.108 193.919 553.573 195.714 555.472 196.952C557.37 198.19 559.64 198.81 562.281 198.81ZM590.582 205V174.729H598.134V182.033H597.515C598.093 179.557 599.228 177.679 600.92 176.4C602.612 175.079 604.861 174.316 607.667 174.11L610.02 173.924L610.515 180.486L606.058 180.919C603.54 181.167 601.642 181.951 600.363 183.271C599.083 184.551 598.443 186.367 598.443 188.719V205H590.582ZM632.281 205.619C629.722 205.619 627.473 204.979 625.533 203.7C623.635 202.421 622.376 200.708 621.757 198.562H622.376V205H614.824V161.357H622.562V180.857H621.819C622.479 178.835 623.758 177.205 625.657 175.967C627.555 174.729 629.763 174.11 632.281 174.11C634.963 174.11 637.295 174.749 639.276 176.029C641.257 177.308 642.805 179.124 643.919 181.476C645.033 183.787 645.59 186.573 645.59 189.833C645.59 193.052 645.033 195.859 643.919 198.252C642.805 200.605 641.236 202.421 639.214 203.7C637.233 204.979 634.922 205.619 632.281 205.619ZM630.114 199.738C632.425 199.738 634.282 198.913 635.685 197.262C637.089 195.57 637.79 193.094 637.79 189.833C637.79 186.532 637.089 184.076 635.685 182.467C634.282 180.816 632.425 179.99 630.114 179.99C627.803 179.99 625.946 180.816 624.543 182.467C623.139 184.076 622.438 186.532 622.438 189.833C622.438 193.094 623.139 195.57 624.543 197.262C625.946 198.913 627.803 199.738 630.114 199.738ZM651.447 168.229V160.676H660.114V168.229H651.447ZM651.942 205V174.729H659.68V205H651.942ZM681.587 205.619C677.543 205.619 674.53 204.608 672.549 202.586C670.568 200.563 669.578 197.613 669.578 193.733V180.548H663.759V174.729H669.578V165.69H677.316V174.729H686.478V180.548H677.316V193.3C677.316 195.281 677.749 196.767 678.616 197.757C679.483 198.748 680.886 199.243 682.825 199.243C683.403 199.243 684.002 199.181 684.621 199.057C685.24 198.892 685.879 198.727 686.54 198.562L687.716 204.257C686.973 204.67 686.024 205 684.868 205.248C683.754 205.495 682.66 205.619 681.587 205.619ZM692.222 205V161.357H711.165C714.384 161.357 717.108 161.894 719.336 162.967C721.565 164.04 723.257 165.587 724.412 167.61C725.568 169.632 726.146 172.087 726.146 174.976C726.146 177.824 725.568 180.279 724.412 182.343C723.257 184.365 721.565 185.933 719.336 187.048C717.108 188.121 714.384 188.657 711.165 188.657H700.146V205H692.222ZM700.146 182.405H709.927C712.733 182.405 714.858 181.786 716.303 180.548C717.747 179.268 718.47 177.411 718.47 174.976C718.47 172.541 717.747 170.705 716.303 169.467C714.858 168.229 712.733 167.61 709.927 167.61H700.146V182.405ZM740.378 205.619C738.191 205.619 736.23 205.206 734.497 204.381C732.805 203.514 731.464 202.359 730.473 200.914C729.524 199.47 729.049 197.84 729.049 196.024C729.049 193.795 729.627 192.041 730.783 190.762C731.938 189.441 733.816 188.492 736.416 187.914C739.016 187.337 742.503 187.048 746.878 187.048H749.973V191.505H746.94C745 191.505 743.37 191.587 742.049 191.752C740.729 191.876 739.656 192.103 738.83 192.433C738.046 192.722 737.468 193.135 737.097 193.671C736.767 194.208 736.602 194.868 736.602 195.652C736.602 197.014 737.076 198.129 738.026 198.995C738.975 199.862 740.295 200.295 741.988 200.295C743.349 200.295 744.546 199.986 745.578 199.367C746.651 198.706 747.497 197.819 748.116 196.705C748.735 195.59 749.045 194.311 749.045 192.867V185.748C749.045 183.684 748.591 182.198 747.683 181.29C746.775 180.383 745.248 179.929 743.102 179.929C741.41 179.929 739.676 180.197 737.902 180.733C736.127 181.229 734.332 182.013 732.516 183.086L730.288 177.824C731.361 177.081 732.619 176.441 734.064 175.905C735.549 175.327 737.097 174.894 738.707 174.605C740.357 174.275 741.905 174.11 743.349 174.11C746.321 174.11 748.756 174.563 750.654 175.471C752.594 176.379 754.038 177.762 754.988 179.619C755.937 181.435 756.411 183.787 756.411 186.676V205H749.168V198.562H749.664C749.375 200.006 748.797 201.265 747.93 202.338C747.105 203.37 746.053 204.175 744.773 204.752C743.494 205.33 742.029 205.619 740.378 205.619ZM766.687 216.143L773.001 202.214V205.433L759.692 174.729H767.925L777.335 198.19H775.478L785.073 174.729H792.873L774.673 216.143H766.687Z" fill="white"/>
<path d="M464.357 164.223C462.074 160.926 457.469 160.09 454.735 163.025C451.233 166.784 448.547 171.281 446.891 176.229C444.453 183.509 444.371 191.386 446.654 198.716C448.938 206.047 453.469 212.45 459.591 216.996C465.712 221.542 473.105 223.995 480.697 223.999C488.288 224.003 495.684 221.557 501.81 217.017C507.935 212.477 512.473 206.078 514.764 198.75C517.055 191.422 516.979 183.545 514.549 176.263C512.897 171.313 510.216 166.813 506.717 163.05C503.986 160.113 499.381 160.944 497.094 164.239C494.845 167.48 495.754 171.884 498.054 175.09C499.317 176.851 500.319 178.805 501.015 180.893C502.473 185.262 502.518 189.988 501.144 194.385C499.77 198.782 497.047 202.621 493.372 205.346C489.696 208.07 485.259 209.537 480.704 209.535C476.149 209.533 471.713 208.061 468.04 205.333C464.367 202.605 461.648 198.763 460.278 194.365C458.908 189.967 458.958 185.241 460.42 180.873C461.119 178.786 462.123 176.833 463.387 175.073C465.689 171.87 466.604 167.466 464.357 164.223Z" fill="white"/>
<ellipse cx="480.714" cy="153.125" rx="10" ry="10.125" fill="white"/>
<defs>
<linearGradient id="paint0_linear_246_8836" x1="0" y1="183.5" x2="1240" y2="183.5" gradientUnits="userSpaceOnUse">
<stop stop-color="#9747FF"/>
<stop offset="1" stop-color="#5D14AD"/>
</linearGradient>
</defs>
</svg>
