<svg width="1240" height="641" viewBox="0 0 1240 641" fill="none" xmlns="http://www.w3.org/2000/svg">
<rect width="1240" height="641" rx="40" fill="#5D14AD" fill-opacity="0.3"/>
<path d="M444.938 389.873C435.321 389.873 426.578 388.312 418.71 385.19C410.966 381.942 404.284 377.321 398.663 371.326C393.168 365.331 388.921 358.149 385.924 349.781C382.926 341.413 381.427 332.108 381.427 321.866C381.427 311.5 382.926 302.195 385.924 293.951C388.921 285.583 393.168 278.464 398.663 272.594C404.284 266.599 410.966 262.04 418.71 258.917C426.578 255.67 435.321 254.046 444.938 254.046C454.555 254.046 463.236 255.67 470.98 258.917C478.848 262.04 485.53 266.536 491.026 272.406C496.646 278.277 500.955 285.396 503.953 293.764C506.95 302.007 508.449 311.312 508.449 321.679C508.449 332.045 506.95 341.413 503.953 349.781C500.955 358.149 496.646 365.331 491.026 371.326C485.53 377.321 478.848 381.942 470.98 385.19C463.236 388.312 454.555 389.873 444.938 389.873ZM444.938 369.265C453.057 369.265 459.926 367.392 465.546 363.645C471.292 359.898 475.663 354.465 478.661 347.346C481.783 340.226 483.345 331.733 483.345 321.866C483.345 311.874 481.846 303.381 478.848 296.387C475.851 289.268 471.479 283.897 465.734 280.275C459.989 276.528 453.057 274.655 444.938 274.655C436.945 274.655 430.075 276.528 424.33 280.275C418.585 283.897 414.151 289.268 411.028 296.387C408.031 303.381 406.532 311.874 406.532 321.866C406.532 331.733 408.031 340.226 411.028 347.346C414.151 354.465 418.585 359.898 424.33 363.645C430.075 367.392 436.945 369.265 444.938 369.265ZM530.585 388V296.387H553.442V318.494H551.568C553.317 311 556.752 305.317 561.872 301.445C566.993 297.449 573.8 295.138 582.293 294.513L589.413 293.951L590.911 313.81L577.422 315.122C569.804 315.871 564.058 318.244 560.186 322.241C556.315 326.113 554.379 331.608 554.379 338.728V388H530.585ZM656.783 389.873C649.039 389.873 642.232 387.938 636.362 384.066C630.617 380.194 626.808 375.011 624.934 368.516H626.808V388H603.951V255.92H627.37V314.934H625.121C627.12 308.814 630.992 303.881 636.737 300.134C642.482 296.387 649.164 294.513 656.783 294.513C664.902 294.513 671.958 296.449 677.953 300.321C683.949 304.193 688.632 309.689 692.005 316.808C695.377 323.802 697.063 332.233 697.063 342.1C697.063 351.842 695.377 360.335 692.005 367.579C688.632 374.698 683.886 380.194 677.766 384.066C671.771 387.938 664.777 389.873 656.783 389.873ZM650.226 372.075C657.22 372.075 662.841 369.577 667.087 364.582C671.334 359.461 673.457 351.967 673.457 342.1C673.457 332.108 671.334 324.676 667.087 319.805C662.841 314.809 657.22 312.312 650.226 312.312C643.232 312.312 637.611 314.809 633.365 319.805C629.118 324.676 626.995 332.108 626.995 342.1C626.995 351.967 629.118 359.461 633.365 364.582C637.611 369.577 643.232 372.075 650.226 372.075ZM714.788 276.715V253.859H741.016V276.715H714.788ZM716.287 388V296.387H739.705V388H716.287ZM806.004 389.873C793.764 389.873 784.647 386.813 778.651 380.693C772.656 374.573 769.659 365.643 769.659 353.903V313.998H752.048V296.387H769.659V269.034H793.077V296.387H820.805V313.998H793.077V352.591C793.077 358.586 794.389 363.083 797.011 366.08C799.634 369.078 803.881 370.577 809.751 370.577C811.5 370.577 813.311 370.389 815.184 370.015C817.058 369.515 818.994 369.015 820.992 368.516L824.552 385.752C822.303 387.001 819.431 388 815.934 388.749C812.561 389.499 809.252 389.873 806.004 389.873ZM838.188 388V255.92H895.517C905.259 255.92 913.502 257.544 920.247 260.791C926.991 264.038 932.112 268.722 935.609 274.842C939.106 280.962 940.855 288.393 940.855 297.136C940.855 305.754 939.106 313.186 935.609 319.431C932.112 325.551 926.991 330.297 920.247 333.669C913.502 336.917 905.259 338.54 895.517 338.54H862.169V388H838.188ZM862.169 319.618H891.77C900.263 319.618 906.695 317.745 911.067 313.998C915.438 310.126 917.624 304.505 917.624 297.136C917.624 289.767 915.438 284.209 911.067 280.462C906.695 276.715 900.263 274.842 891.77 274.842H862.169V319.618ZM983.927 389.873C977.308 389.873 971.375 388.624 966.129 386.127C961.009 383.504 956.949 380.006 953.952 375.635C951.079 371.264 949.643 366.33 949.643 360.835C949.643 354.09 951.391 348.782 954.888 344.91C958.386 340.913 964.069 338.041 971.937 336.292C979.806 334.543 990.36 333.669 1003.6 333.669H1012.97V347.158H1003.79C997.916 347.158 992.983 347.408 988.986 347.908C984.989 348.282 981.742 348.969 979.244 349.968C976.871 350.843 975.122 352.092 973.998 353.715C972.999 355.339 972.499 357.337 972.499 359.71C972.499 363.832 973.936 367.204 976.808 369.827C979.681 372.45 983.678 373.762 988.798 373.762C992.92 373.762 996.542 372.825 999.665 370.951C1002.91 368.953 1005.47 366.268 1007.35 362.895C1009.22 359.523 1010.16 355.651 1010.16 351.28V329.735C1010.16 323.49 1008.78 318.994 1006.03 316.246C1003.29 313.498 998.665 312.124 992.171 312.124C987.05 312.124 981.804 312.936 976.433 314.56C971.063 316.058 965.63 318.432 960.134 321.679L953.39 305.754C956.637 303.506 960.446 301.57 964.818 299.947C969.314 298.198 973.998 296.887 978.869 296.012C983.865 295.013 988.549 294.513 992.92 294.513C1001.91 294.513 1009.28 295.887 1015.03 298.635C1020.9 301.383 1025.27 305.567 1028.14 311.187C1031.01 316.683 1032.45 323.802 1032.45 332.545V388H1010.53V368.516H1012.03C1011.16 372.887 1009.41 376.697 1006.78 379.944C1004.29 383.067 1001.1 385.502 997.229 387.251C993.357 388.999 988.923 389.873 983.927 389.873ZM1063.55 421.723L1082.66 379.569V389.311L1042.38 296.387H1067.3L1095.77 367.392H1090.15L1119.19 296.387H1142.8L1087.72 421.723H1063.55Z" fill="#310D61" fill-opacity="0.08"/>
<path d="M148.576 262.18C141.668 252.211 127.745 249.685 119.474 258.555C108.869 269.928 100.737 283.534 95.7215 298.505C88.3455 320.523 88.0949 344.347 95.0063 366.519C101.918 388.691 115.631 408.058 134.157 421.809C152.683 435.559 175.057 442.979 198.032 442.99C221.008 443.002 243.389 435.604 261.928 421.872C280.467 408.139 294.2 388.786 301.132 366.621C308.065 344.456 307.838 320.632 300.483 298.606C295.482 283.63 287.363 270.016 276.769 258.633C268.506 249.755 254.581 252.267 247.663 262.229C240.853 272.035 243.607 285.367 250.566 295.067C254.386 300.392 257.416 306.3 259.524 312.611C263.937 325.826 264.073 340.121 259.913 353.42C255.754 366.719 247.514 378.331 236.391 386.57C225.267 394.81 211.839 399.248 198.054 399.241C184.268 399.235 170.844 394.783 159.728 386.532C148.613 378.282 140.385 366.662 136.238 353.359C132.091 340.055 132.241 325.761 136.667 312.55C138.78 306.241 141.816 300.336 145.641 295.016C152.61 285.322 155.377 271.993 148.576 262.18Z" fill="#310D61" fill-opacity="0.08"/>
<ellipse cx="198.083" cy="228.624" rx="30.2641" ry="30.6244" fill="#310D61" fill-opacity="0.08"/>
<path d="M630.839 177.909V207H624.689V177.909H630.839ZM641.837 194.386V207H635.786V185.182H641.553V189.031H641.809C642.292 187.762 643.101 186.759 644.238 186.02C645.374 185.272 646.752 184.898 648.371 184.898C649.886 184.898 651.207 185.229 652.334 185.892C653.461 186.555 654.337 187.502 654.962 188.733C655.587 189.955 655.9 191.413 655.9 193.108V207H649.848V194.188C649.858 192.852 649.517 191.811 648.826 191.062C648.134 190.305 647.183 189.926 645.971 189.926C645.156 189.926 644.436 190.101 643.811 190.452C643.196 190.802 642.713 191.313 642.363 191.986C642.022 192.649 641.846 193.449 641.837 194.386ZM672.274 185.182V189.727H659.135V185.182H672.274ZM662.118 179.955H668.169V200.295C668.169 200.854 668.254 201.29 668.424 201.602C668.595 201.905 668.832 202.118 669.135 202.241C669.447 202.365 669.807 202.426 670.214 202.426C670.498 202.426 670.782 202.402 671.066 202.355C671.35 202.298 671.568 202.256 671.72 202.227L672.672 206.73C672.368 206.825 671.942 206.934 671.393 207.057C670.844 207.189 670.176 207.27 669.39 207.298C667.932 207.355 666.654 207.161 665.555 206.716C664.466 206.271 663.618 205.58 663.012 204.642C662.406 203.705 662.108 202.521 662.118 201.091V179.955ZM685.924 207.426C683.68 207.426 681.748 206.972 680.129 206.062C678.519 205.144 677.279 203.847 676.407 202.17C675.536 200.485 675.1 198.491 675.1 196.19C675.1 193.946 675.536 191.976 676.407 190.281C677.279 188.586 678.505 187.265 680.086 186.318C681.677 185.371 683.543 184.898 685.683 184.898C687.122 184.898 688.462 185.13 689.703 185.594C690.953 186.048 692.042 186.735 692.97 187.653C693.907 188.572 694.636 189.727 695.157 191.119C695.678 192.502 695.939 194.121 695.939 195.977V197.639H677.515V193.889H690.243C690.243 193.018 690.053 192.246 689.674 191.574C689.296 190.902 688.77 190.376 688.098 189.997C687.435 189.609 686.663 189.415 685.782 189.415C684.864 189.415 684.049 189.628 683.339 190.054C682.638 190.471 682.089 191.034 681.691 191.744C681.294 192.445 681.09 193.226 681.081 194.088V197.653C681.081 198.733 681.279 199.666 681.677 200.452C682.084 201.238 682.657 201.844 683.396 202.27C684.135 202.696 685.011 202.909 686.024 202.909C686.696 202.909 687.312 202.814 687.87 202.625C688.429 202.436 688.907 202.152 689.305 201.773C689.703 201.394 690.006 200.93 690.214 200.381L695.811 200.75C695.527 202.095 694.944 203.269 694.064 204.273C693.192 205.267 692.065 206.044 690.683 206.602C689.31 207.152 687.724 207.426 685.924 207.426ZM699.887 207V185.182H705.754V188.989H705.981C706.379 187.634 707.047 186.612 707.984 185.92C708.922 185.22 710.001 184.869 711.223 184.869C711.526 184.869 711.852 184.888 712.203 184.926C712.553 184.964 712.861 185.016 713.126 185.082V190.452C712.842 190.366 712.449 190.291 711.947 190.224C711.445 190.158 710.986 190.125 710.569 190.125C709.679 190.125 708.884 190.319 708.183 190.707C707.492 191.086 706.942 191.616 706.535 192.298C706.137 192.98 705.939 193.766 705.939 194.656V207H699.887Z" fill="black"/>
<path d="M624.114 282V264.545H630.216C631.432 264.545 632.435 264.756 633.224 265.176C634.014 265.591 634.602 266.151 634.989 266.855C635.375 267.554 635.568 268.33 635.568 269.182C635.568 269.932 635.435 270.551 635.168 271.04C634.906 271.528 634.56 271.915 634.128 272.199C633.702 272.483 633.239 272.693 632.739 272.83V273C633.273 273.034 633.81 273.222 634.349 273.562C634.889 273.903 635.341 274.392 635.705 275.028C636.068 275.665 636.25 276.443 636.25 277.364C636.25 278.239 636.051 279.026 635.653 279.724C635.256 280.423 634.628 280.977 633.77 281.386C632.912 281.795 631.795 282 630.42 282H624.114ZM626.227 280.125H630.42C631.801 280.125 632.781 279.858 633.361 279.324C633.946 278.784 634.239 278.131 634.239 277.364C634.239 276.773 634.088 276.227 633.787 275.727C633.486 275.222 633.057 274.818 632.5 274.517C631.943 274.21 631.284 274.057 630.523 274.057H626.227V280.125ZM626.227 272.216H630.148C630.784 272.216 631.358 272.091 631.869 271.841C632.386 271.591 632.795 271.239 633.097 270.784C633.403 270.33 633.557 269.795 633.557 269.182C633.557 268.415 633.29 267.764 632.756 267.23C632.222 266.69 631.375 266.42 630.216 266.42H626.227V272.216ZM644.768 282.273C643.587 282.273 642.55 281.991 641.658 281.429C640.771 280.866 640.078 280.08 639.578 279.068C639.084 278.057 638.837 276.875 638.837 275.523C638.837 274.159 639.084 272.969 639.578 271.952C640.078 270.935 640.771 270.145 641.658 269.582C642.55 269.02 643.587 268.739 644.768 268.739C645.95 268.739 646.984 269.02 647.871 269.582C648.763 270.145 649.456 270.935 649.95 271.952C650.45 272.969 650.7 274.159 650.7 275.523C650.7 276.875 650.45 278.057 649.95 279.068C649.456 280.08 648.763 280.866 647.871 281.429C646.984 281.991 645.95 282.273 644.768 282.273ZM644.768 280.466C645.666 280.466 646.405 280.236 646.984 279.776C647.564 279.315 647.993 278.71 648.271 277.96C648.55 277.21 648.689 276.398 648.689 275.523C648.689 274.648 648.55 273.832 648.271 273.077C647.993 272.321 647.564 271.71 646.984 271.244C646.405 270.778 645.666 270.545 644.768 270.545C643.871 270.545 643.132 270.778 642.553 271.244C641.973 271.71 641.544 272.321 641.266 273.077C640.987 273.832 640.848 274.648 640.848 275.523C640.848 276.398 640.987 277.21 641.266 277.96C641.544 278.71 641.973 279.315 642.553 279.776C643.132 280.236 643.871 280.466 644.768 280.466ZM655.782 264.545V282H653.771V264.545H655.782ZM664.409 282.273C663.318 282.273 662.355 281.997 661.52 281.446C660.685 280.889 660.031 280.105 659.56 279.094C659.088 278.077 658.852 276.875 658.852 275.489C658.852 274.114 659.088 272.92 659.56 271.909C660.031 270.898 660.688 270.116 661.528 269.565C662.369 269.014 663.341 268.739 664.443 268.739C665.295 268.739 665.969 268.881 666.463 269.165C666.963 269.443 667.344 269.761 667.605 270.119C667.872 270.472 668.08 270.761 668.227 270.989H668.398V264.545H670.409V282H668.466V279.989H668.227C668.08 280.227 667.869 280.528 667.597 280.892C667.324 281.25 666.935 281.571 666.429 281.855C665.923 282.134 665.25 282.273 664.409 282.273ZM664.682 280.466C665.489 280.466 666.17 280.256 666.727 279.835C667.284 279.409 667.707 278.821 667.997 278.071C668.287 277.315 668.432 276.443 668.432 275.455C668.432 274.477 668.29 273.622 668.006 272.889C667.722 272.151 667.301 271.577 666.744 271.168C666.188 270.753 665.5 270.545 664.682 270.545C663.83 270.545 663.119 270.764 662.551 271.202C661.989 271.634 661.565 272.222 661.281 272.966C661.003 273.705 660.864 274.534 660.864 275.455C660.864 276.386 661.006 277.233 661.29 277.994C661.58 278.75 662.006 279.352 662.568 279.801C663.136 280.244 663.841 280.466 664.682 280.466Z" fill="black"/>
<path d="M733.659 268.909C733.557 268.045 733.142 267.375 732.415 266.898C731.688 266.42 730.795 266.182 729.739 266.182C728.966 266.182 728.29 266.307 727.71 266.557C727.136 266.807 726.688 267.151 726.364 267.588C726.045 268.026 725.886 268.523 725.886 269.08C725.886 269.545 725.997 269.946 726.219 270.281C726.446 270.611 726.736 270.886 727.088 271.108C727.44 271.324 727.81 271.503 728.196 271.645C728.582 271.781 728.938 271.892 729.261 271.977L731.034 272.455C731.489 272.574 731.994 272.739 732.551 272.949C733.114 273.159 733.651 273.446 734.162 273.81C734.679 274.168 735.105 274.628 735.44 275.19C735.776 275.753 735.943 276.443 735.943 277.261C735.943 278.205 735.696 279.057 735.202 279.818C734.713 280.58 733.997 281.185 733.054 281.634C732.116 282.082 730.977 282.307 729.636 282.307C728.386 282.307 727.304 282.105 726.389 281.702C725.48 281.298 724.764 280.736 724.241 280.014C723.724 279.293 723.432 278.455 723.364 277.5H725.545C725.602 278.159 725.824 278.705 726.21 279.136C726.602 279.562 727.097 279.881 727.693 280.091C728.295 280.295 728.943 280.398 729.636 280.398C730.443 280.398 731.168 280.267 731.81 280.006C732.452 279.739 732.96 279.369 733.335 278.898C733.71 278.42 733.898 277.864 733.898 277.227C733.898 276.648 733.736 276.176 733.412 275.812C733.088 275.449 732.662 275.153 732.134 274.926C731.605 274.699 731.034 274.5 730.42 274.33L728.273 273.716C726.909 273.324 725.83 272.764 725.034 272.037C724.239 271.31 723.841 270.358 723.841 269.182C723.841 268.205 724.105 267.352 724.634 266.625C725.168 265.892 725.884 265.324 726.781 264.92C727.685 264.511 728.693 264.307 729.807 264.307C730.932 264.307 731.932 264.509 732.807 264.912C733.682 265.31 734.375 265.855 734.886 266.548C735.403 267.241 735.676 268.028 735.705 268.909H733.659ZM744.634 282.273C743.373 282.273 742.285 281.994 741.37 281.438C740.461 280.875 739.759 280.091 739.265 279.085C738.776 278.074 738.532 276.898 738.532 275.557C738.532 274.216 738.776 273.034 739.265 272.011C739.759 270.983 740.447 270.182 741.327 269.608C742.214 269.028 743.248 268.739 744.43 268.739C745.112 268.739 745.785 268.852 746.45 269.08C747.114 269.307 747.719 269.676 748.265 270.188C748.81 270.693 749.245 271.364 749.569 272.199C749.893 273.034 750.055 274.062 750.055 275.284V276.136H739.964V274.398H748.009C748.009 273.659 747.862 273 747.566 272.42C747.276 271.841 746.862 271.384 746.322 271.048C745.788 270.713 745.157 270.545 744.43 270.545C743.629 270.545 742.935 270.744 742.35 271.142C741.771 271.534 741.325 272.045 741.012 272.676C740.7 273.307 740.543 273.983 740.543 274.705V275.864C740.543 276.852 740.714 277.69 741.055 278.378C741.401 279.06 741.881 279.58 742.495 279.938C743.109 280.29 743.822 280.466 744.634 280.466C745.163 280.466 745.64 280.392 746.066 280.244C746.498 280.091 746.87 279.864 747.183 279.562C747.495 279.256 747.737 278.875 747.907 278.42L749.85 278.966C749.646 279.625 749.302 280.205 748.819 280.705C748.336 281.199 747.739 281.585 747.029 281.864C746.319 282.136 745.521 282.273 744.634 282.273ZM753.114 282V268.909H755.058V270.955H755.228C755.501 270.256 755.941 269.713 756.549 269.327C757.157 268.935 757.887 268.739 758.739 268.739C759.603 268.739 760.322 268.935 760.896 269.327C761.475 269.713 761.927 270.256 762.251 270.955H762.387C762.722 270.278 763.225 269.741 763.896 269.344C764.566 268.94 765.37 268.739 766.308 268.739C767.478 268.739 768.435 269.105 769.18 269.838C769.924 270.565 770.296 271.699 770.296 273.239V282H768.285V273.239C768.285 272.273 768.021 271.582 767.492 271.168C766.964 270.753 766.342 270.545 765.626 270.545C764.705 270.545 763.992 270.824 763.487 271.381C762.981 271.932 762.728 272.631 762.728 273.477V282H760.683V273.034C760.683 272.29 760.441 271.69 759.958 271.236C759.475 270.776 758.853 270.545 758.092 270.545C757.569 270.545 757.08 270.685 756.626 270.963C756.177 271.241 755.813 271.628 755.535 272.122C755.262 272.611 755.126 273.176 755.126 273.818V282H753.114ZM773.974 282V268.909H775.985V282H773.974ZM774.996 266.727C774.604 266.727 774.266 266.594 773.982 266.327C773.704 266.06 773.565 265.739 773.565 265.364C773.565 264.989 773.704 264.668 773.982 264.401C774.266 264.134 774.604 264 774.996 264C775.388 264 775.724 264.134 776.002 264.401C776.286 264.668 776.428 264.989 776.428 265.364C776.428 265.739 776.286 266.06 776.002 266.327C775.724 266.594 775.388 266.727 774.996 266.727ZM779.942 282V264.545H786.044C787.26 264.545 788.263 264.756 789.053 265.176C789.842 265.591 790.43 266.151 790.817 266.855C791.203 267.554 791.396 268.33 791.396 269.182C791.396 269.932 791.263 270.551 790.996 271.04C790.734 271.528 790.388 271.915 789.956 272.199C789.53 272.483 789.067 272.693 788.567 272.83V273C789.101 273.034 789.638 273.222 790.178 273.562C790.717 273.903 791.169 274.392 791.533 275.028C791.896 275.665 792.078 276.443 792.078 277.364C792.078 278.239 791.879 279.026 791.482 279.724C791.084 280.423 790.456 280.977 789.598 281.386C788.74 281.795 787.624 282 786.249 282H779.942ZM782.055 280.125H786.249C787.629 280.125 788.609 279.858 789.189 279.324C789.774 278.784 790.067 278.131 790.067 277.364C790.067 276.773 789.916 276.227 789.615 275.727C789.314 275.222 788.885 274.818 788.328 274.517C787.771 274.21 787.112 274.057 786.351 274.057H782.055V280.125ZM782.055 272.216H785.976C786.612 272.216 787.186 272.091 787.697 271.841C788.214 271.591 788.624 271.239 788.925 270.784C789.232 270.33 789.385 269.795 789.385 269.182C789.385 268.415 789.118 267.764 788.584 267.23C788.05 266.69 787.203 266.42 786.044 266.42H782.055V272.216ZM800.597 282.273C799.415 282.273 798.378 281.991 797.486 281.429C796.599 280.866 795.906 280.08 795.406 279.068C794.912 278.057 794.665 276.875 794.665 275.523C794.665 274.159 794.912 272.969 795.406 271.952C795.906 270.935 796.599 270.145 797.486 269.582C798.378 269.02 799.415 268.739 800.597 268.739C801.778 268.739 802.813 269.02 803.699 269.582C804.591 270.145 805.284 270.935 805.778 271.952C806.278 272.969 806.528 274.159 806.528 275.523C806.528 276.875 806.278 278.057 805.778 279.068C805.284 280.08 804.591 280.866 803.699 281.429C802.813 281.991 801.778 282.273 800.597 282.273ZM800.597 280.466C801.494 280.466 802.233 280.236 802.812 279.776C803.392 279.315 803.821 278.71 804.099 277.96C804.378 277.21 804.517 276.398 804.517 275.523C804.517 274.648 804.378 273.832 804.099 273.077C803.821 272.321 803.392 271.71 802.812 271.244C802.233 270.778 801.494 270.545 800.597 270.545C799.699 270.545 798.96 270.778 798.381 271.244C797.801 271.71 797.372 272.321 797.094 273.077C796.815 273.832 796.676 274.648 796.676 275.523C796.676 276.398 796.815 277.21 797.094 277.96C797.372 278.71 797.801 279.315 798.381 279.776C798.96 280.236 799.699 280.466 800.597 280.466ZM811.61 264.545V282H809.599V264.545H811.61ZM820.237 282.273C819.146 282.273 818.183 281.997 817.348 281.446C816.513 280.889 815.859 280.105 815.388 279.094C814.916 278.077 814.68 276.875 814.68 275.489C814.68 274.114 814.916 272.92 815.388 271.909C815.859 270.898 816.516 270.116 817.357 269.565C818.197 269.014 819.169 268.739 820.271 268.739C821.124 268.739 821.797 268.881 822.291 269.165C822.791 269.443 823.172 269.761 823.433 270.119C823.7 270.472 823.908 270.761 824.055 270.989H824.226V264.545H826.237V282H824.294V279.989H824.055C823.908 280.227 823.697 280.528 823.425 280.892C823.152 281.25 822.763 281.571 822.257 281.855C821.751 282.134 821.078 282.273 820.237 282.273ZM820.51 280.466C821.317 280.466 821.999 280.256 822.555 279.835C823.112 279.409 823.536 278.821 823.825 278.071C824.115 277.315 824.26 276.443 824.26 275.455C824.26 274.477 824.118 273.622 823.834 272.889C823.55 272.151 823.129 271.577 822.572 271.168C822.016 270.753 821.328 270.545 820.51 270.545C819.658 270.545 818.947 270.764 818.379 271.202C817.817 271.634 817.393 272.222 817.109 272.966C816.831 273.705 816.692 274.534 816.692 275.455C816.692 276.386 816.834 277.233 817.118 277.994C817.408 278.75 817.834 279.352 818.396 279.801C818.964 280.244 819.669 280.466 820.51 280.466Z" fill="black"/>
<path d="M884.114 264.545H886.636L892.568 279.034H892.773L898.705 264.545H901.227V282H899.25V268.739H899.08L893.625 282H891.716L886.261 268.739H886.091V282H884.114V264.545ZM910.681 282.273C909.42 282.273 908.332 281.994 907.417 281.438C906.508 280.875 905.806 280.091 905.312 279.085C904.823 278.074 904.579 276.898 904.579 275.557C904.579 274.216 904.823 273.034 905.312 272.011C905.806 270.983 906.494 270.182 907.374 269.608C908.261 269.028 909.295 268.739 910.477 268.739C911.158 268.739 911.832 268.852 912.496 269.08C913.161 269.307 913.766 269.676 914.312 270.188C914.857 270.693 915.292 271.364 915.616 272.199C915.94 273.034 916.102 274.062 916.102 275.284V276.136H906.011V274.398H914.056C914.056 273.659 913.908 273 913.613 272.42C913.323 271.841 912.908 271.384 912.369 271.048C911.835 270.713 911.204 270.545 910.477 270.545C909.675 270.545 908.982 270.744 908.397 271.142C907.817 271.534 907.371 272.045 907.059 272.676C906.746 273.307 906.59 273.983 906.59 274.705V275.864C906.59 276.852 906.761 277.69 907.102 278.378C907.448 279.06 907.928 279.58 908.542 279.938C909.156 280.29 909.869 280.466 910.681 280.466C911.21 280.466 911.687 280.392 912.113 280.244C912.545 280.091 912.917 279.864 913.229 279.562C913.542 279.256 913.783 278.875 913.954 278.42L915.897 278.966C915.692 279.625 915.349 280.205 914.866 280.705C914.383 281.199 913.786 281.585 913.076 281.864C912.366 282.136 911.567 282.273 910.681 282.273ZM924.104 282.273C923.013 282.273 922.05 281.997 921.215 281.446C920.38 280.889 919.727 280.105 919.255 279.094C918.783 278.077 918.548 276.875 918.548 275.489C918.548 274.114 918.783 272.92 919.255 271.909C919.727 270.898 920.383 270.116 921.224 269.565C922.065 269.014 923.036 268.739 924.138 268.739C924.991 268.739 925.664 268.881 926.158 269.165C926.658 269.443 927.039 269.761 927.3 270.119C927.567 270.472 927.775 270.761 927.923 270.989H928.093V264.545H930.104V282H928.161V279.989H927.923C927.775 280.227 927.565 280.528 927.292 280.892C927.019 281.25 926.63 281.571 926.124 281.855C925.619 282.134 924.945 282.273 924.104 282.273ZM924.377 280.466C925.184 280.466 925.866 280.256 926.423 279.835C926.979 279.409 927.403 278.821 927.692 278.071C927.982 277.315 928.127 276.443 928.127 275.455C928.127 274.477 927.985 273.622 927.701 272.889C927.417 272.151 926.996 271.577 926.44 271.168C925.883 270.753 925.195 270.545 924.377 270.545C923.525 270.545 922.815 270.764 922.246 271.202C921.684 271.634 921.261 272.222 920.977 272.966C920.698 273.705 920.559 274.534 920.559 275.455C920.559 276.386 920.701 277.233 920.985 277.994C921.275 278.75 921.701 279.352 922.263 279.801C922.832 280.244 923.536 280.466 924.377 280.466ZM934.067 282V268.909H936.079V282H934.067ZM935.09 266.727C934.698 266.727 934.36 266.594 934.076 266.327C933.798 266.06 933.658 265.739 933.658 265.364C933.658 264.989 933.798 264.668 934.076 264.401C934.36 264.134 934.698 264 935.09 264C935.482 264 935.817 264.134 936.096 264.401C936.38 264.668 936.522 264.989 936.522 265.364C936.522 265.739 936.38 266.06 936.096 266.327C935.817 266.594 935.482 266.727 935.09 266.727ZM948.013 276.648V268.909H950.024V282H948.013V279.784H947.876C947.57 280.449 947.092 281.014 946.445 281.48C945.797 281.94 944.979 282.17 943.99 282.17C943.172 282.17 942.445 281.991 941.808 281.634C941.172 281.27 940.672 280.724 940.308 279.997C939.945 279.264 939.763 278.341 939.763 277.227V268.909H941.774V277.091C941.774 278.045 942.041 278.807 942.575 279.375C943.115 279.943 943.803 280.227 944.638 280.227C945.138 280.227 945.646 280.099 946.163 279.844C946.686 279.588 947.124 279.196 947.476 278.668C947.834 278.139 948.013 277.466 948.013 276.648ZM953.708 282V268.909H955.651V270.955H955.822C956.094 270.256 956.535 269.713 957.143 269.327C957.751 268.935 958.481 268.739 959.333 268.739C960.197 268.739 960.915 268.935 961.489 269.327C962.069 269.713 962.521 270.256 962.844 270.955H962.981C963.316 270.278 963.819 269.741 964.489 269.344C965.16 268.94 965.964 268.739 966.901 268.739C968.072 268.739 969.029 269.105 969.773 269.838C970.518 270.565 970.89 271.699 970.89 273.239V282H968.879V273.239C968.879 272.273 968.614 271.582 968.086 271.168C967.558 270.753 966.935 270.545 966.219 270.545C965.299 270.545 964.586 270.824 964.08 271.381C963.575 271.932 963.322 272.631 963.322 273.477V282H961.276V273.034C961.276 272.29 961.035 271.69 960.552 271.236C960.069 270.776 959.447 270.545 958.685 270.545C958.163 270.545 957.674 270.685 957.219 270.963C956.771 271.241 956.407 271.628 956.129 272.122C955.856 272.611 955.719 273.176 955.719 273.818V282H953.708Z" fill="black"/>
<path d="M1024.11 282V264.545H1030.01C1031.38 264.545 1032.49 264.778 1033.37 265.244C1034.24 265.705 1034.89 266.338 1035.31 267.145C1035.73 267.952 1035.94 268.869 1035.94 269.898C1035.94 270.926 1035.73 271.838 1035.31 272.634C1034.89 273.429 1034.25 274.054 1033.38 274.509C1032.51 274.957 1031.4 275.182 1030.05 275.182H1025.27V273.273H1029.98C1030.91 273.273 1031.66 273.136 1032.23 272.864C1032.8 272.591 1033.22 272.205 1033.47 271.705C1033.73 271.199 1033.86 270.597 1033.86 269.898C1033.86 269.199 1033.73 268.588 1033.47 268.065C1033.21 267.543 1032.79 267.139 1032.22 266.855C1031.64 266.565 1030.89 266.42 1029.94 266.42H1026.23V282H1024.11ZM1032.33 274.159L1036.62 282H1034.17L1029.94 274.159H1032.33ZM1044.54 282.273C1043.28 282.273 1042.19 281.994 1041.28 281.438C1040.37 280.875 1039.67 280.091 1039.17 279.085C1038.68 278.074 1038.44 276.898 1038.44 275.557C1038.44 274.216 1038.68 273.034 1039.17 272.011C1039.67 270.983 1040.35 270.182 1041.23 269.608C1042.12 269.028 1043.15 268.739 1044.34 268.739C1045.02 268.739 1045.69 268.852 1046.36 269.08C1047.02 269.307 1047.63 269.676 1048.17 270.188C1048.72 270.693 1049.15 271.364 1049.48 272.199C1049.8 273.034 1049.96 274.062 1049.96 275.284V276.136H1039.87V274.398H1047.92C1047.92 273.659 1047.77 273 1047.47 272.42C1047.18 271.841 1046.77 271.384 1046.23 271.048C1045.69 270.713 1045.06 270.545 1044.34 270.545C1043.53 270.545 1042.84 270.744 1042.26 271.142C1041.68 271.534 1041.23 272.045 1040.92 272.676C1040.61 273.307 1040.45 273.983 1040.45 274.705V275.864C1040.45 276.852 1040.62 277.69 1040.96 278.378C1041.31 279.06 1041.79 279.58 1042.4 279.938C1043.01 280.29 1043.73 280.466 1044.54 280.466C1045.07 280.466 1045.55 280.392 1045.97 280.244C1046.4 280.091 1046.78 279.864 1047.09 279.562C1047.4 279.256 1047.64 278.875 1047.81 278.42L1049.76 278.966C1049.55 279.625 1049.21 280.205 1048.73 280.705C1048.24 281.199 1047.65 281.585 1046.94 281.864C1046.23 282.136 1045.43 282.273 1044.54 282.273ZM1058.3 287.182C1057.33 287.182 1056.5 287.057 1055.8 286.807C1055.1 286.562 1054.52 286.239 1054.05 285.835C1053.59 285.438 1053.23 285.011 1052.95 284.557L1054.55 283.432C1054.74 283.67 1054.97 283.943 1055.25 284.25C1055.52 284.562 1055.9 284.832 1056.39 285.06C1056.88 285.293 1057.51 285.409 1058.3 285.409C1059.36 285.409 1060.23 285.153 1060.92 284.642C1061.61 284.131 1061.95 283.33 1061.95 282.239V279.58H1061.78C1061.63 279.818 1061.42 280.114 1061.15 280.466C1060.88 280.812 1060.5 281.122 1059.99 281.395C1059.49 281.662 1058.82 281.795 1057.96 281.795C1056.91 281.795 1055.96 281.545 1055.12 281.045C1054.28 280.545 1053.62 279.818 1053.13 278.864C1052.65 277.909 1052.41 276.75 1052.41 275.386C1052.41 274.045 1052.64 272.878 1053.11 271.884C1053.59 270.884 1054.24 270.111 1055.08 269.565C1055.92 269.014 1056.9 268.739 1058 268.739C1058.85 268.739 1059.53 268.881 1060.03 269.165C1060.53 269.443 1060.92 269.761 1061.19 270.119C1061.46 270.472 1061.67 270.761 1061.82 270.989H1062.02V268.909H1063.96V282.375C1063.96 283.5 1063.71 284.415 1063.2 285.119C1062.69 285.83 1062.01 286.349 1061.15 286.679C1060.3 287.014 1059.35 287.182 1058.3 287.182ZM1058.24 279.989C1059.04 279.989 1059.73 279.804 1060.28 279.435C1060.84 279.065 1061.26 278.534 1061.55 277.841C1061.84 277.148 1061.99 276.318 1061.99 275.352C1061.99 274.409 1061.84 273.577 1061.56 272.855C1061.28 272.134 1060.86 271.568 1060.3 271.159C1059.74 270.75 1059.05 270.545 1058.24 270.545C1057.38 270.545 1056.67 270.761 1056.11 271.193C1055.54 271.625 1055.12 272.205 1054.84 272.932C1054.56 273.659 1054.42 274.466 1054.42 275.352C1054.42 276.261 1054.56 277.065 1054.84 277.764C1055.13 278.457 1055.56 279.003 1056.12 279.401C1056.69 279.793 1057.4 279.989 1058.24 279.989ZM1075.9 276.648V268.909H1077.91V282H1075.9V279.784H1075.76C1075.45 280.449 1074.98 281.014 1074.33 281.48C1073.68 281.94 1072.86 282.17 1071.87 282.17C1071.05 282.17 1070.33 281.991 1069.69 281.634C1069.05 281.27 1068.55 280.724 1068.19 279.997C1067.83 279.264 1067.65 278.341 1067.65 277.227V268.909H1069.66V277.091C1069.66 278.045 1069.92 278.807 1070.46 279.375C1071 279.943 1071.69 280.227 1072.52 280.227C1073.02 280.227 1073.53 280.099 1074.05 279.844C1074.57 279.588 1075.01 279.196 1075.36 278.668C1075.72 278.139 1075.9 277.466 1075.9 276.648ZM1083.6 264.545V282H1081.59V264.545H1083.6ZM1091.14 282.307C1090.31 282.307 1089.56 282.151 1088.88 281.838C1088.2 281.52 1087.67 281.062 1087.27 280.466C1086.87 279.864 1086.67 279.136 1086.67 278.284C1086.67 277.534 1086.82 276.926 1087.12 276.46C1087.41 275.989 1087.81 275.619 1088.3 275.352C1088.79 275.085 1089.34 274.886 1089.94 274.756C1090.54 274.619 1091.14 274.511 1091.75 274.432C1092.55 274.33 1093.19 274.253 1093.69 274.202C1094.19 274.145 1094.55 274.051 1094.78 273.92C1095.01 273.79 1095.13 273.562 1095.13 273.239V273.17C1095.13 272.33 1094.9 271.676 1094.44 271.21C1093.98 270.744 1093.29 270.511 1092.37 270.511C1091.41 270.511 1090.65 270.722 1090.11 271.142C1089.56 271.562 1089.18 272.011 1088.96 272.489L1087.05 271.807C1087.39 271.011 1087.84 270.392 1088.41 269.949C1088.99 269.5 1089.61 269.187 1090.29 269.011C1090.97 268.83 1091.64 268.739 1092.3 268.739C1092.72 268.739 1093.2 268.79 1093.75 268.892C1094.3 268.989 1094.83 269.19 1095.34 269.497C1095.86 269.804 1096.29 270.267 1096.63 270.886C1096.97 271.506 1097.14 272.335 1097.14 273.375V282H1095.13V280.227H1095.02C1094.89 280.511 1094.66 280.815 1094.34 281.139C1094.02 281.463 1093.6 281.739 1093.07 281.966C1092.54 282.193 1091.9 282.307 1091.14 282.307ZM1091.45 280.5C1092.24 280.5 1092.91 280.344 1093.46 280.031C1094.01 279.719 1094.42 279.315 1094.7 278.821C1094.99 278.327 1095.13 277.807 1095.13 277.261V275.42C1095.04 275.523 1094.85 275.616 1094.56 275.702C1094.28 275.781 1093.95 275.852 1093.58 275.915C1093.21 275.972 1092.85 276.023 1092.49 276.068C1092.15 276.108 1091.87 276.142 1091.65 276.17C1091.13 276.239 1090.64 276.349 1090.18 276.503C1089.74 276.651 1089.37 276.875 1089.09 277.176C1088.82 277.472 1088.68 277.875 1088.68 278.386C1088.68 279.085 1088.94 279.614 1089.46 279.972C1089.98 280.324 1090.64 280.5 1091.45 280.5ZM1100.81 282V268.909H1102.75V270.886H1102.89C1103.13 270.239 1103.56 269.713 1104.18 269.31C1104.81 268.906 1105.51 268.705 1106.3 268.705C1106.45 268.705 1106.63 268.707 1106.85 268.713C1107.07 268.719 1107.24 268.727 1107.36 268.739V270.784C1107.29 270.767 1107.13 270.741 1106.89 270.707C1106.65 270.668 1106.39 270.648 1106.13 270.648C1105.49 270.648 1104.92 270.781 1104.42 271.048C1103.93 271.31 1103.54 271.673 1103.25 272.139C1102.96 272.599 1102.82 273.125 1102.82 273.716V282H1100.81Z" fill="black"/>
<path d="M136.262 282H95.0689L188.02 100.182H237.558L270.051 282H228.858L206.752 141.73H205.332L136.262 282ZM145.673 210.533H242.974L237.825 240.54H140.523L145.673 210.533ZM329.755 284.575C321.114 284.575 313.627 283.065 307.294 280.047C301.02 276.969 296.404 272.412 293.444 266.375C290.485 260.338 289.745 252.851 291.225 243.914C292.527 236.338 294.983 230.005 298.593 224.915C302.263 219.766 306.731 215.623 311.999 212.487C317.266 209.35 323.096 206.953 329.488 205.295C335.94 203.638 342.598 202.514 349.463 201.922C357.394 201.093 363.846 200.294 368.817 199.525C373.848 198.755 377.606 197.661 380.092 196.24C382.578 194.76 384.087 192.571 384.62 189.67V189.138C385.507 183.574 384.472 179.254 381.512 176.176C378.612 173.039 373.966 171.471 367.574 171.471C360.827 171.471 355.086 172.951 350.351 175.91C345.676 178.869 342.332 182.627 340.319 187.185L305.873 184.344C308.951 176.058 313.597 168.896 319.811 162.859C326.085 156.763 333.631 152.088 342.45 148.832C351.269 145.518 361.153 143.861 372.102 143.861C379.678 143.861 386.75 144.749 393.32 146.524C399.949 148.3 405.66 151.052 410.454 154.781C415.307 158.509 418.799 163.303 420.93 169.163C423.12 174.963 423.564 181.917 422.262 190.026L406.903 282H371.037L374.233 263.09H373.167C370.267 267.352 366.716 271.11 362.514 274.365C358.312 277.561 353.488 280.076 348.043 281.911C342.598 283.687 336.502 284.575 329.755 284.575ZM344.936 258.474C350.44 258.474 355.5 257.379 360.117 255.189C364.792 252.94 368.64 249.921 371.658 246.134C374.736 242.346 376.689 238.055 377.517 233.261L379.826 218.79C378.642 219.559 376.926 220.24 374.676 220.832C372.487 221.424 370.09 221.986 367.485 222.518C364.94 222.992 362.366 223.436 359.762 223.85C357.158 224.205 354.82 224.56 352.748 224.915C348.191 225.567 344.107 226.602 340.497 228.023C336.886 229.443 333.957 231.367 331.708 233.793C329.459 236.161 328.068 239.12 327.535 242.671C326.707 247.82 327.92 251.756 331.175 254.479C334.489 257.142 339.076 258.474 344.936 258.474Z" fill="#5D14AD"/>
<rect x="40" y="421" width="280" height="180" rx="40" fill="#5D14AD"/>
<path d="M78.2585 568L81.1222 550.545H83.1676L80.304 568H78.2585ZM70.358 563.33L70.6903 561.284H83.9176L83.5852 563.33H70.358ZM72.1222 568L74.9858 550.545H77.0312L74.1676 568H72.1222ZM71.3722 557.261L71.7045 555.216H84.9318L84.5994 557.261H71.3722ZM92.7216 568.239C91.6534 568.239 90.6932 568.034 89.8409 567.625C88.9943 567.21 88.3182 566.642 87.8125 565.92C87.3068 565.199 87.0369 564.375 87.0028 563.449H89.5597C89.6222 564.199 89.9545 564.815 90.5568 565.298C91.1591 565.781 91.8807 566.023 92.7216 566.023C93.392 566.023 93.9858 565.869 94.5028 565.562C95.0256 565.25 95.4347 564.821 95.7301 564.276C96.0313 563.73 96.1818 563.108 96.1818 562.409C96.1818 561.699 96.0284 561.065 95.7216 560.509C95.4148 559.952 94.9915 559.514 94.4517 559.196C93.9176 558.878 93.304 558.716 92.6108 558.71C92.0824 558.71 91.5511 558.801 91.017 558.983C90.483 559.165 90.0511 559.403 89.7216 559.699L87.3097 559.341L88.2898 550.545H97.8864V552.804H90.4801L89.9261 557.688H90.0284C90.3693 557.358 90.821 557.082 91.3835 556.861C91.9517 556.639 92.5597 556.528 93.2074 556.528C94.2699 556.528 95.2159 556.781 96.0455 557.287C96.8807 557.793 97.5369 558.483 98.0142 559.358C98.4972 560.227 98.7358 561.227 98.7301 562.358C98.7358 563.489 98.4801 564.497 97.9631 565.384C97.4517 566.27 96.7415 566.969 95.8324 567.48C94.929 567.986 93.892 568.239 92.7216 568.239ZM107.732 568H102.082V550.545H107.911C109.621 550.545 111.09 550.895 112.317 551.594C113.545 552.287 114.485 553.284 115.138 554.585C115.798 555.881 116.127 557.435 116.127 559.247C116.127 561.065 115.795 562.628 115.13 563.935C114.471 565.241 113.516 566.247 112.266 566.952C111.016 567.651 109.505 568 107.732 568ZM104.715 565.699H107.587C108.917 565.699 110.022 565.449 110.903 564.949C111.783 564.443 112.442 563.713 112.88 562.759C113.317 561.798 113.536 560.628 113.536 559.247C113.536 557.878 113.317 556.716 112.88 555.761C112.448 554.807 111.803 554.082 110.945 553.588C110.087 553.094 109.022 552.847 107.749 552.847H104.715V565.699ZM125.786 550.545V568H123.143V553.188H123.041L118.865 555.915V553.392L123.22 550.545H125.786ZM130.141 564.591V562.46L137.683 550.545H139.362V553.682H138.297L132.902 562.222V562.358H143.24V564.591H130.141ZM138.416 568V563.943L138.433 562.972V550.545H140.93V568H138.416ZM147.923 568H145.128L151.409 550.545H154.452L160.733 568H157.938L153.003 553.716H152.866L147.923 568ZM148.392 561.165H157.46V563.381H148.392V561.165ZM168.904 568H163.254V550.545H169.083C170.793 550.545 172.262 550.895 173.489 551.594C174.717 552.287 175.657 553.284 176.31 554.585C176.969 555.881 177.299 557.435 177.299 559.247C177.299 561.065 176.967 562.628 176.302 563.935C175.643 565.241 174.688 566.247 173.438 566.952C172.188 567.651 170.677 568 168.904 568ZM165.887 565.699H168.759C170.089 565.699 171.194 565.449 172.075 564.949C172.955 564.443 173.614 563.713 174.052 562.759C174.489 561.798 174.708 560.628 174.708 559.247C174.708 557.878 174.489 556.716 174.052 555.761C173.62 554.807 172.975 554.082 172.117 553.588C171.259 553.094 170.194 552.847 168.921 552.847H165.887V565.699Z" fill="white"/>
<rect x="580" y="421" width="180" height="180" rx="40" fill="black"/>
<path d="M618.259 568L621.122 550.545H623.168L620.304 568H618.259ZM610.358 563.33L610.69 561.284H623.918L623.585 563.33H610.358ZM612.122 568L614.986 550.545H617.031L614.168 568H612.122ZM611.372 557.261L611.705 555.216H624.932L624.599 557.261H611.372ZM633.037 568.29C631.69 568.284 630.54 567.929 629.585 567.224C628.631 566.52 627.901 565.494 627.395 564.148C626.889 562.801 626.636 561.179 626.636 559.281C626.636 557.389 626.889 555.773 627.395 554.432C627.906 553.091 628.639 552.068 629.594 551.364C630.554 550.659 631.702 550.307 633.037 550.307C634.372 550.307 635.517 550.662 636.472 551.372C637.426 552.077 638.156 553.099 638.662 554.44C639.173 555.776 639.429 557.389 639.429 559.281C639.429 561.185 639.176 562.81 638.67 564.156C638.165 565.497 637.435 566.523 636.48 567.233C635.526 567.938 634.378 568.29 633.037 568.29ZM633.037 566.014C634.219 566.014 635.142 565.438 635.807 564.284C636.477 563.131 636.812 561.463 636.812 559.281C636.812 557.832 636.659 556.608 636.352 555.608C636.051 554.602 635.616 553.841 635.048 553.324C634.486 552.801 633.815 552.54 633.037 552.54C631.861 552.54 630.938 553.119 630.267 554.278C629.597 555.437 629.259 557.105 629.253 559.281C629.253 560.736 629.403 561.966 629.705 562.972C630.011 563.972 630.446 564.73 631.009 565.247C631.571 565.759 632.247 566.014 633.037 566.014ZM648.529 568.29C647.183 568.284 646.032 567.929 645.077 567.224C644.123 566.52 643.393 565.494 642.887 564.148C642.381 562.801 642.129 561.179 642.129 559.281C642.129 557.389 642.381 555.773 642.887 554.432C643.398 553.091 644.131 552.068 645.086 551.364C646.046 550.659 647.194 550.307 648.529 550.307C649.864 550.307 651.009 550.662 651.964 551.372C652.918 552.077 653.648 553.099 654.154 554.44C654.665 555.776 654.921 557.389 654.921 559.281C654.921 561.185 654.668 562.81 654.163 564.156C653.657 565.497 652.927 566.523 651.972 567.233C651.018 567.938 649.87 568.29 648.529 568.29ZM648.529 566.014C649.711 566.014 650.634 565.438 651.299 564.284C651.969 563.131 652.305 561.463 652.305 559.281C652.305 557.832 652.151 556.608 651.844 555.608C651.543 554.602 651.109 553.841 650.54 553.324C649.978 552.801 649.308 552.54 648.529 552.54C647.353 552.54 646.43 553.119 645.759 554.278C645.089 555.437 644.751 557.105 644.745 559.281C644.745 560.736 644.896 561.966 645.197 562.972C645.504 563.972 645.938 564.73 646.501 565.247C647.063 565.759 647.739 566.014 648.529 566.014ZM664.021 568.29C662.675 568.284 661.524 567.929 660.57 567.224C659.615 566.52 658.885 565.494 658.379 564.148C657.874 562.801 657.621 561.179 657.621 559.281C657.621 557.389 657.874 555.773 658.379 554.432C658.891 553.091 659.624 552.068 660.578 551.364C661.538 550.659 662.686 550.307 664.021 550.307C665.357 550.307 666.501 550.662 667.456 551.372C668.411 552.077 669.141 553.099 669.646 554.44C670.158 555.776 670.413 557.389 670.413 559.281C670.413 561.185 670.161 562.81 669.655 564.156C669.149 565.497 668.419 566.523 667.464 567.233C666.51 567.938 665.362 568.29 664.021 568.29ZM664.021 566.014C665.203 566.014 666.126 565.438 666.791 564.284C667.462 563.131 667.797 561.463 667.797 559.281C667.797 557.832 667.643 556.608 667.337 555.608C667.036 554.602 666.601 553.841 666.033 553.324C665.47 552.801 664.8 552.54 664.021 552.54C662.845 552.54 661.922 553.119 661.251 554.278C660.581 555.437 660.243 557.105 660.237 559.281C660.237 560.736 660.388 561.966 660.689 562.972C660.996 563.972 661.43 564.73 661.993 565.247C662.555 565.759 663.232 566.014 664.021 566.014ZM679.513 568.29C678.167 568.284 677.016 567.929 676.062 567.224C675.107 566.52 674.377 565.494 673.871 564.148C673.366 562.801 673.113 561.179 673.113 559.281C673.113 557.389 673.366 555.773 673.871 554.432C674.383 553.091 675.116 552.068 676.07 551.364C677.031 550.659 678.178 550.307 679.513 550.307C680.849 550.307 681.994 550.662 682.948 551.372C683.903 552.077 684.633 553.099 685.138 554.44C685.65 555.776 685.906 557.389 685.906 559.281C685.906 561.185 685.653 562.81 685.147 564.156C684.641 565.497 683.911 566.523 682.957 567.233C682.002 567.938 680.854 568.29 679.513 568.29ZM679.513 566.014C680.695 566.014 681.619 565.438 682.283 564.284C682.954 563.131 683.289 561.463 683.289 559.281C683.289 557.832 683.136 556.608 682.829 555.608C682.528 554.602 682.093 553.841 681.525 553.324C680.962 552.801 680.292 552.54 679.513 552.54C678.337 552.54 677.414 553.119 676.744 554.278C676.073 555.437 675.735 557.105 675.729 559.281C675.729 560.736 675.88 561.966 676.181 562.972C676.488 563.972 676.923 564.73 677.485 565.247C678.048 565.759 678.724 566.014 679.513 566.014ZM695.006 568.29C693.659 568.284 692.509 567.929 691.554 567.224C690.599 566.52 689.869 565.494 689.364 564.148C688.858 562.801 688.605 561.179 688.605 559.281C688.605 557.389 688.858 555.773 689.364 554.432C689.875 553.091 690.608 552.068 691.562 551.364C692.523 550.659 693.67 550.307 695.006 550.307C696.341 550.307 697.486 550.662 698.44 551.372C699.395 552.077 700.125 553.099 700.631 554.44C701.142 555.776 701.398 557.389 701.398 559.281C701.398 561.185 701.145 562.81 700.639 564.156C700.134 565.497 699.403 566.523 698.449 567.233C697.494 567.938 696.347 568.29 695.006 568.29ZM695.006 566.014C696.188 566.014 697.111 565.438 697.776 564.284C698.446 563.131 698.781 561.463 698.781 559.281C698.781 557.832 698.628 556.608 698.321 555.608C698.02 554.602 697.585 553.841 697.017 553.324C696.455 552.801 695.784 552.54 695.006 552.54C693.83 552.54 692.906 553.119 692.236 554.278C691.565 555.437 691.227 557.105 691.222 559.281C691.222 560.736 691.372 561.966 691.673 562.972C691.98 563.972 692.415 564.73 692.977 565.247C693.54 565.759 694.216 566.014 695.006 566.014ZM710.498 568.29C709.151 568.284 708.001 567.929 707.046 567.224C706.092 566.52 705.362 565.494 704.856 564.148C704.35 562.801 704.097 561.179 704.097 559.281C704.097 557.389 704.35 555.773 704.856 554.432C705.367 553.091 706.1 552.068 707.055 551.364C708.015 550.659 709.163 550.307 710.498 550.307C711.833 550.307 712.978 550.662 713.933 551.372C714.887 552.077 715.617 553.099 716.123 554.44C716.634 555.776 716.89 557.389 716.89 559.281C716.89 561.185 716.637 562.81 716.131 564.156C715.626 565.497 714.896 566.523 713.941 567.233C712.987 567.938 711.839 568.29 710.498 568.29ZM710.498 566.014C711.68 566.014 712.603 565.438 713.268 564.284C713.938 563.131 714.273 561.463 714.273 559.281C714.273 557.832 714.12 556.608 713.813 555.608C713.512 554.602 713.077 553.841 712.509 553.324C711.947 552.801 711.276 552.54 710.498 552.54C709.322 552.54 708.398 553.119 707.728 554.278C707.058 555.437 706.719 557.105 706.714 559.281C706.714 560.736 706.864 561.966 707.165 562.972C707.472 563.972 707.907 564.73 708.469 565.247C709.032 565.759 709.708 566.014 710.498 566.014Z" fill="white"/>
<rect x="360" y="421" width="180" height="180" rx="40" fill="#9747FF"/>
<path d="M398.259 568L401.122 550.545H403.168L400.304 568H398.259ZM390.358 563.33L390.69 561.284H403.918L403.585 563.33H390.358ZM392.122 568L394.986 550.545H397.031L394.168 568H392.122ZM391.372 557.261L391.705 555.216H404.932L404.599 557.261H391.372ZM412.764 550.307C413.543 550.312 414.31 550.455 415.065 550.733C415.821 551.011 416.503 551.466 417.111 552.097C417.724 552.727 418.213 553.58 418.577 554.653C418.946 555.722 419.134 557.051 419.139 558.642C419.139 560.17 418.986 561.531 418.679 562.724C418.372 563.912 417.932 564.915 417.358 565.733C416.79 566.551 416.099 567.173 415.287 567.599C414.474 568.026 413.56 568.239 412.543 568.239C411.503 568.239 410.58 568.034 409.773 567.625C408.966 567.216 408.31 566.651 407.804 565.929C407.298 565.202 406.983 564.366 406.858 563.423H409.457C409.628 564.173 409.974 564.781 410.497 565.247C411.026 565.707 411.707 565.938 412.543 565.938C413.821 565.938 414.818 565.381 415.534 564.267C416.25 563.148 416.611 561.585 416.616 559.58H416.48C416.185 560.068 415.815 560.489 415.372 560.841C414.935 561.193 414.443 561.466 413.898 561.659C413.352 561.852 412.77 561.949 412.151 561.949C411.145 561.949 410.23 561.702 409.406 561.207C408.582 560.713 407.926 560.034 407.438 559.17C406.949 558.307 406.705 557.321 406.705 556.213C406.705 555.111 406.955 554.111 407.455 553.213C407.96 552.315 408.665 551.605 409.568 551.082C410.477 550.554 411.543 550.295 412.764 550.307ZM412.773 552.523C412.108 552.523 411.509 552.687 410.974 553.017C410.446 553.341 410.028 553.781 409.722 554.338C409.415 554.889 409.261 555.503 409.261 556.179C409.261 556.855 409.409 557.469 409.705 558.02C410.006 558.565 410.415 559 410.932 559.324C411.455 559.642 412.051 559.801 412.722 559.801C413.222 559.801 413.688 559.705 414.119 559.511C414.551 559.318 414.929 559.051 415.253 558.71C415.577 558.364 415.83 557.972 416.011 557.534C416.193 557.097 416.284 556.636 416.284 556.153C416.284 555.511 416.131 554.915 415.824 554.364C415.523 553.812 415.108 553.369 414.58 553.034C414.051 552.693 413.449 552.523 412.773 552.523ZM422.337 568L429.957 552.932V552.804H421.144V550.545H432.684V552.881L425.09 568H422.337ZM433.875 564.591V562.46L441.418 550.545H443.097V553.682H442.031L436.636 562.222V562.358H446.974V564.591H433.875ZM442.151 568V563.943L442.168 562.972V550.545H444.665V568H442.151ZM450.533 568L458.152 552.932V552.804H449.339V550.545H460.879V552.881L453.286 568H450.533ZM464.082 568V550.545H474.906V552.812H466.715V558.131H474.13V560.389H466.715V568H464.082ZM478.144 568V550.545H488.968V552.812H480.778V558.131H488.192V560.389H480.778V568H478.144Z" fill="white"/>
<rect x="800" y="421" width="180" height="180" rx="40" fill="white"/>
<path d="M838.259 568L841.122 550.545H843.168L840.304 568H838.259ZM830.358 563.33L830.69 561.284H843.918L843.585 563.33H830.358ZM832.122 568L834.986 550.545H837.031L834.168 568H832.122ZM831.372 557.261L831.705 555.216H844.932L844.599 557.261H831.372ZM847.199 568V550.545H858.023V552.812H849.832V558.131H857.247V560.389H849.832V568H847.199ZM861.261 568V550.545H872.085V552.812H863.895V558.131H871.31V560.389H863.895V568H861.261ZM875.324 568V550.545H886.148V552.812H877.957V558.131H885.372V560.389H877.957V568H875.324ZM889.386 568V550.545H900.21V552.812H892.02V558.131H899.435V560.389H892.02V568H889.386ZM903.449 568V550.545H914.273V552.812H906.082V558.131H913.497V560.389H906.082V568H903.449ZM917.511 568V550.545H928.335V552.812H920.145V558.131H927.56V560.389H920.145V568H917.511Z" fill="black"/>
<rect x="1020" y="421" width="180" height="180" rx="40" fill="#E8E8E8"/>
<path d="M1058.26 568L1061.12 550.545H1063.17L1060.3 568H1058.26ZM1050.36 563.33L1050.69 561.284H1063.92L1063.59 563.33H1050.36ZM1052.12 568L1054.99 550.545H1057.03L1054.17 568H1052.12ZM1051.37 557.261L1051.7 555.216H1064.93L1064.6 557.261H1051.37ZM1067.2 568V550.545H1078.14V552.812H1069.83V558.131H1077.57V560.389H1069.83V565.733H1078.24V568H1067.2ZM1087.32 568.239C1086.1 568.239 1085.02 568.028 1084.08 567.608C1083.15 567.187 1082.42 566.608 1081.89 565.869C1081.36 565.131 1081.1 564.29 1081.11 563.347C1081.1 562.608 1081.25 561.929 1081.56 561.31C1081.87 560.685 1082.29 560.165 1082.83 559.75C1083.36 559.33 1083.96 559.062 1084.62 558.949V558.847C1083.75 558.636 1083.05 558.17 1082.53 557.449C1082.01 556.727 1081.75 555.898 1081.75 554.96C1081.75 554.068 1081.98 553.273 1082.46 552.574C1082.94 551.869 1083.61 551.315 1084.45 550.912C1085.29 550.509 1086.25 550.307 1087.32 550.307C1088.38 550.307 1089.33 550.511 1090.17 550.92C1091.01 551.324 1091.67 551.878 1092.15 552.582C1092.63 553.281 1092.88 554.074 1092.88 554.96C1092.88 555.898 1092.61 556.727 1092.08 557.449C1091.55 558.17 1090.87 558.636 1090.02 558.847V558.949C1090.67 559.062 1091.26 559.33 1091.78 559.75C1092.31 560.165 1092.73 560.685 1093.05 561.31C1093.36 561.929 1093.53 562.608 1093.53 563.347C1093.53 564.29 1093.26 565.131 1092.73 565.869C1092.2 566.608 1091.47 567.187 1090.53 567.608C1089.6 568.028 1088.53 568.239 1087.32 568.239ZM1087.32 566.082C1088.04 566.082 1088.67 565.963 1089.19 565.724C1089.72 565.48 1090.13 565.142 1090.42 564.71C1090.71 564.273 1090.86 563.761 1090.86 563.176C1090.86 562.568 1090.7 562.031 1090.39 561.565C1090.08 561.099 1089.66 560.733 1089.13 560.466C1088.61 560.199 1088 560.065 1087.32 560.065C1086.63 560.065 1086.02 560.199 1085.49 560.466C1084.95 560.733 1084.53 561.099 1084.23 561.565C1083.92 562.031 1083.77 562.568 1083.77 563.176C1083.77 563.761 1083.91 564.273 1084.19 564.71C1084.48 565.142 1084.89 565.48 1085.43 565.724C1085.96 565.963 1086.59 566.082 1087.32 566.082ZM1087.32 557.96C1087.9 557.96 1088.41 557.844 1088.86 557.611C1089.31 557.378 1089.66 557.054 1089.92 556.639C1090.18 556.224 1090.31 555.739 1090.32 555.182C1090.31 554.636 1090.18 554.159 1089.93 553.75C1089.68 553.341 1089.33 553.026 1088.88 552.804C1088.43 552.577 1087.91 552.463 1087.32 552.463C1086.72 552.463 1086.19 552.577 1085.73 552.804C1085.28 553.026 1084.94 553.341 1084.69 553.75C1084.44 554.159 1084.31 554.636 1084.32 555.182C1084.31 555.739 1084.44 556.224 1084.69 556.639C1084.95 557.054 1085.3 557.378 1085.75 557.611C1086.21 557.844 1086.73 557.96 1087.32 557.96ZM1096.82 568V550.545H1107.77V552.812H1099.46V558.131H1107.2V560.389H1099.46V565.733H1107.87V568H1096.82ZM1116.94 568.239C1115.72 568.239 1114.64 568.028 1113.71 567.608C1112.77 567.187 1112.04 566.608 1111.51 565.869C1110.99 565.131 1110.73 564.29 1110.73 563.347C1110.73 562.608 1110.88 561.929 1111.18 561.31C1111.5 560.685 1111.92 560.165 1112.45 559.75C1112.99 559.33 1113.58 559.062 1114.24 558.949V558.847C1113.37 558.636 1112.68 558.17 1112.15 557.449C1111.63 556.727 1111.37 555.898 1111.38 554.96C1111.37 554.068 1111.61 553.273 1112.09 552.574C1112.57 551.869 1113.23 551.315 1114.07 550.912C1114.91 550.509 1115.87 550.307 1116.94 550.307C1118.01 550.307 1118.96 550.511 1119.79 550.92C1120.63 551.324 1121.29 551.878 1121.78 552.582C1122.26 553.281 1122.5 554.074 1122.51 554.96C1122.5 555.898 1122.24 556.727 1121.71 557.449C1121.18 558.17 1120.49 558.636 1119.65 558.847V558.949C1120.3 559.062 1120.89 559.33 1121.41 559.75C1121.94 560.165 1122.36 560.685 1122.67 561.31C1122.99 561.929 1123.15 562.608 1123.16 563.347C1123.15 564.29 1122.88 565.131 1122.36 565.869C1121.83 566.608 1121.09 567.187 1120.16 567.608C1119.23 568.028 1118.15 568.239 1116.94 568.239ZM1116.94 566.082C1117.67 566.082 1118.29 565.963 1118.82 565.724C1119.35 565.48 1119.76 565.142 1120.05 564.71C1120.34 564.273 1120.48 563.761 1120.49 563.176C1120.48 562.568 1120.32 562.031 1120.01 561.565C1119.71 561.099 1119.29 560.733 1118.76 560.466C1118.23 560.199 1117.63 560.065 1116.94 560.065C1116.26 560.065 1115.65 560.199 1115.11 560.466C1114.58 560.733 1114.16 561.099 1113.85 561.565C1113.54 562.031 1113.39 562.568 1113.4 563.176C1113.39 563.761 1113.53 564.273 1113.82 564.71C1114.11 565.142 1114.52 565.48 1115.05 565.724C1115.59 565.963 1116.22 566.082 1116.94 566.082ZM1116.94 557.96C1117.52 557.96 1118.04 557.844 1118.49 557.611C1118.94 557.378 1119.29 557.054 1119.54 556.639C1119.8 556.224 1119.94 555.739 1119.94 555.182C1119.94 554.636 1119.81 554.159 1119.55 553.75C1119.3 553.341 1118.95 553.026 1118.5 552.804C1118.05 552.577 1117.53 552.463 1116.94 552.463C1116.34 552.463 1115.81 552.577 1115.36 552.804C1114.91 553.026 1114.56 553.341 1114.31 553.75C1114.06 554.159 1113.94 554.636 1113.94 555.182C1113.94 555.739 1114.06 556.224 1114.32 556.639C1114.57 557.054 1114.93 557.378 1115.38 557.611C1115.83 557.844 1116.35 557.96 1116.94 557.96ZM1126.45 568V550.545H1137.39V552.812H1129.08V558.131H1136.82V560.389H1129.08V565.733H1137.49V568H1126.45ZM1146.57 568.239C1145.35 568.239 1144.27 568.028 1143.33 567.608C1142.4 567.187 1141.67 566.608 1141.14 565.869C1140.61 565.131 1140.35 564.29 1140.36 563.347C1140.35 562.608 1140.5 561.929 1140.81 561.31C1141.12 560.685 1141.54 560.165 1142.08 559.75C1142.61 559.33 1143.21 559.062 1143.87 558.949V558.847C1143 558.636 1142.3 558.17 1141.78 557.449C1141.26 556.727 1141 555.898 1141 554.96C1141 554.068 1141.23 553.273 1141.71 552.574C1142.19 551.869 1142.86 551.315 1143.7 550.912C1144.54 550.509 1145.5 550.307 1146.57 550.307C1147.63 550.307 1148.58 550.511 1149.42 550.92C1150.26 551.324 1150.92 551.878 1151.4 552.582C1151.88 553.281 1152.13 554.074 1152.13 554.96C1152.13 555.898 1151.86 556.727 1151.33 557.449C1150.8 558.17 1150.12 558.636 1149.27 558.847V558.949C1149.92 559.062 1150.51 559.33 1151.03 559.75C1151.56 560.165 1151.98 560.685 1152.3 561.31C1152.61 561.929 1152.78 562.608 1152.78 563.347C1152.78 564.29 1152.51 565.131 1151.98 565.869C1151.45 566.608 1150.72 567.187 1149.78 567.608C1148.85 568.028 1147.78 568.239 1146.57 568.239ZM1146.57 566.082C1147.29 566.082 1147.92 565.963 1148.44 565.724C1148.97 565.48 1149.38 565.142 1149.67 564.71C1149.96 564.273 1150.11 563.761 1150.11 563.176C1150.11 562.568 1149.95 562.031 1149.64 561.565C1149.33 561.099 1148.91 560.733 1148.38 560.466C1147.86 560.199 1147.25 560.065 1146.57 560.065C1145.88 560.065 1145.27 560.199 1144.74 560.466C1144.2 560.733 1143.78 561.099 1143.48 561.565C1143.17 562.031 1143.02 562.568 1143.02 563.176C1143.02 563.761 1143.16 564.273 1143.44 564.71C1143.73 565.142 1144.14 565.48 1144.68 565.724C1145.21 565.963 1145.84 566.082 1146.57 566.082ZM1146.57 557.96C1147.15 557.96 1147.66 557.844 1148.11 557.611C1148.56 557.378 1148.91 557.054 1149.17 556.639C1149.43 556.224 1149.56 555.739 1149.57 555.182C1149.56 554.636 1149.43 554.159 1149.18 553.75C1148.93 553.341 1148.58 553.026 1148.13 552.804C1147.68 552.577 1147.16 552.463 1146.57 552.463C1145.97 552.463 1145.44 552.577 1144.98 552.804C1144.53 553.026 1144.19 553.341 1143.94 553.75C1143.69 554.159 1143.56 554.636 1143.57 555.182C1143.56 555.739 1143.69 556.224 1143.94 556.639C1144.2 557.054 1144.55 557.378 1145 557.611C1145.46 557.844 1145.98 557.96 1146.57 557.96Z" fill="black"/>
</svg>
