<svg width="805" height="202" viewBox="0 0 805 202" fill="none" xmlns="http://www.w3.org/2000/svg">
<path d="M161.638 198H111.122V120.707H51.2198V198H0.703425V4.76803H51.2198V74.6076H111.122V4.76803H161.638V198ZM315.505 4.76803V48.6593H245.39V76.2639H309.985V120.431H245.39V151.9H317.99V198H194.873V4.76803H315.505ZM395.08 4.76803V152.729H464.919V198H344.564V4.76803H395.08ZM532.639 4.76803V152.729H602.479V198H482.123V4.76803H532.639ZM804.434 101.384C804.434 130.829 795.141 154.937 776.553 173.708C758.15 192.295 734.318 201.589 705.058 201.589C691.991 201.589 679.569 199.472 667.791 195.24C656.198 191.007 645.708 184.842 636.322 176.744C627.121 168.647 619.76 158.157 614.239 145.275C608.902 132.209 606.233 117.579 606.233 101.384C606.233 80.0365 611.11 61.6334 620.864 46.1749C630.617 30.5323 642.855 19.1224 657.578 11.9452C672.484 4.584 688.587 0.90339 705.886 0.90339C718.4 0.90339 730.454 3.11175 742.048 7.52848C753.826 11.7612 764.315 17.9262 773.517 26.0236C782.902 34.1209 790.356 44.7026 795.877 57.7688C801.582 70.6509 804.434 85.1893 804.434 101.384ZM656.75 101.384C656.75 117.763 661.534 130.645 671.104 140.03C680.674 149.232 692.083 153.833 705.334 153.833C718.4 153.833 729.718 149.232 739.287 140.03C749.041 130.645 753.918 117.763 753.918 101.384C753.918 85.0053 749.133 72.2152 739.563 63.0137C729.994 53.6281 718.768 48.9353 705.886 48.9353C692.267 48.9353 680.674 53.5361 671.104 62.7376C661.534 71.7551 656.75 84.6372 656.75 101.384Z" fill="url(#paint0_linear_113_2736)"/>
<defs>
<linearGradient id="paint0_linear_113_2736" x1="397.5" y1="-9" x2="397.748" y2="240.065" gradientUnits="userSpaceOnUse">
<stop stop-color="#3240A6" stop-opacity="0.32"/>
<stop offset="1" stop-color="#031035" stop-opacity="0"/>
</linearGradient>
</defs>
</svg>
