<svg width="640" height="636" viewBox="0 0 640 636" fill="none" xmlns="http://www.w3.org/2000/svg">
<path d="M251.051 567.009L250.016 568.093C249.921 568.002 249.826 567.91 249.73 567.818C249.226 567.334 248.725 566.846 248.229 566.35L246.462 564.583L248.584 562.462L250.35 564.228C250.648 564.527 250.948 564.823 251.249 565.116C251.29 565.156 251.332 565.195 251.373 565.234C251.61 565.465 251.847 565.695 252.086 565.923L251.051 567.009ZM4.82718 318.706L2.70586 320.827L0.939477 319.061L3.0608 316.939L4.82718 318.706ZM11.8927 325.771L9.77141 327.892L6.23863 324.36L8.35995 322.238L11.8927 325.771ZM18.9583 332.837L16.8369 334.958L13.3042 331.425L15.4255 329.304L18.9583 332.837ZM26.0231 339.902L23.9018 342.023L20.369 338.49L22.4904 336.369L26.0231 339.902ZM33.0887 346.967L30.9673 349.088L27.4346 345.556L29.5559 343.434L33.0887 346.967ZM40.1542 354.033L38.0329 356.154L34.5001 352.621L36.6214 350.5L40.1542 354.033ZM47.2198 361.098L45.0984 363.219L41.5657 359.687L43.687 357.565L47.2198 361.098ZM54.2853 368.164L52.164 370.285L48.6312 366.752L50.7525 364.631L54.2853 368.164ZM61.3501 375.229L59.2288 377.35L55.6967 373.818L57.8181 371.696L61.3501 375.229ZM68.4157 382.294L66.2944 384.415L62.7616 380.883L64.8829 378.761L68.4157 382.294ZM75.4812 389.36L73.3599 391.481L69.8271 387.948L71.9485 385.827L75.4812 389.36ZM82.5468 396.425L80.4255 398.547L76.8927 395.014L79.014 392.892L82.5468 396.425ZM89.6123 403.491L87.491 405.612L83.9582 402.079L86.0796 399.958L89.6123 403.491ZM96.6772 410.556L94.5559 412.677L91.0238 409.145L93.1451 407.024L96.6772 410.556ZM103.743 417.621L101.621 419.742L98.0886 416.21L100.21 414.088L103.743 417.621ZM110.808 424.687L108.687 426.808L105.154 423.275L107.275 421.154L110.808 424.687ZM117.874 431.752L115.752 433.874L112.22 430.341L114.341 428.219L117.874 431.752ZM124.939 438.818L122.818 440.939L119.285 437.406L121.407 435.285L124.939 438.818ZM132.005 445.883L129.884 448.005L126.351 444.472L128.472 442.351L132.005 445.883ZM139.07 452.948L136.948 455.069L133.416 451.537L135.537 449.415L139.07 452.948ZM146.135 460.014L144.014 462.135L140.481 458.602L142.603 456.481L146.135 460.014ZM153.201 467.079L151.08 469.201L147.547 465.668L149.668 463.546L153.201 467.079ZM160.266 474.145L158.145 476.266L154.612 472.733L156.734 470.612L160.266 474.145ZM167.332 481.21L165.211 483.332L161.678 479.799L163.799 477.678L167.332 481.21ZM174.397 488.275L172.275 490.396L168.743 486.864L170.864 484.742L174.397 488.275ZM181.462 495.341L179.341 497.462L175.808 493.929L177.93 491.808L181.462 495.341ZM188.528 502.406L186.407 504.528L182.874 500.995L184.995 498.873L188.528 502.406ZM195.593 509.472L193.472 511.593L189.939 508.06L192.061 505.939L195.593 509.472ZM202.659 516.537L200.538 518.659L197.005 515.126L199.126 513.005L202.659 516.537ZM209.724 523.602L207.602 525.724L204.07 522.191L206.192 520.07L209.724 523.602ZM216.789 530.668L214.668 532.789L211.135 529.256L213.257 527.135L216.789 530.668ZM223.855 537.733L221.734 539.855L218.201 536.322L220.322 534.201L223.855 537.733ZM230.92 544.799L228.799 546.92L225.266 543.387L227.388 541.266L230.92 544.799ZM237.986 551.864L235.865 553.986L232.332 550.453L234.453 548.332L237.986 551.864ZM245.052 558.93L242.93 561.051L239.397 557.518L241.519 555.397L245.052 558.93ZM258.475 573.426L257.553 574.605C257.44 574.517 257.328 574.428 257.216 574.34C256.084 573.447 254.966 572.527 253.864 571.579C253.811 571.533 253.759 571.486 253.706 571.44L254.685 570.308L255.666 569.173C255.715 569.215 255.765 569.256 255.813 569.298C255.946 569.412 256.079 569.525 256.211 569.638C256.377 569.78 256.544 569.921 256.71 570.061C256.881 570.205 257.053 570.346 257.224 570.488C257.378 570.616 257.532 570.743 257.686 570.87C257.812 570.973 257.938 571.076 258.065 571.178C258.273 571.347 258.481 571.514 258.69 571.681C258.798 571.767 258.906 571.853 259.014 571.938C259.143 572.04 259.271 572.143 259.4 572.244L258.475 573.426ZM266.493 579.085L265.69 580.349C265.642 580.318 265.594 580.289 265.546 580.258C264.277 579.451 263.023 578.612 261.784 577.742C261.706 577.687 261.628 577.633 261.55 577.578L262.415 576.354L263.28 575.128C263.358 575.183 263.436 575.236 263.514 575.29C263.675 575.403 263.836 575.516 263.998 575.628C264.203 575.77 264.408 575.911 264.614 576.052C264.725 576.127 264.836 576.202 264.947 576.278C265.154 576.417 265.362 576.556 265.57 576.695C265.733 576.803 265.896 576.911 266.059 577.018C266.22 577.123 266.381 577.228 266.542 577.333C266.701 577.435 266.859 577.537 267.018 577.639C267.111 577.698 267.203 577.76 267.296 577.819L266.493 579.085ZM275.03 583.927L274.356 585.265C274.301 585.237 274.247 585.211 274.193 585.183C272.859 584.509 271.538 583.802 270.23 583.065C270.141 583.015 270.052 582.965 269.963 582.914L270.701 581.612L271.442 580.307C271.561 580.375 271.682 580.441 271.802 580.508C271.941 580.586 272.08 580.664 272.219 580.741C272.446 580.868 272.674 580.993 272.903 581.117C273.03 581.187 273.158 581.256 273.285 581.325C273.503 581.442 273.721 581.558 273.939 581.673C274.082 581.749 274.225 581.824 274.367 581.898C274.603 582.022 274.839 582.145 275.076 582.266C275.182 582.32 275.289 582.375 275.395 582.429C275.498 582.481 275.6 582.535 275.704 582.587L275.03 583.927ZM284.002 587.901L283.465 589.3C283.383 589.268 283.301 589.237 283.219 589.205C281.852 588.674 280.494 588.113 279.147 587.521C279.051 587.479 278.955 587.437 278.859 587.394L279.466 586.025L280.074 584.654C280.197 584.708 280.321 584.76 280.444 584.814C280.608 584.885 280.771 584.957 280.934 585.028C281.134 585.114 281.334 585.199 281.534 585.284C281.695 585.352 281.857 585.42 282.018 585.487C282.247 585.583 282.477 585.678 282.707 585.772C282.844 585.828 282.981 585.884 283.118 585.939C283.341 586.029 283.565 586.118 283.788 586.207C283.964 586.276 284.14 586.344 284.316 586.412C284.391 586.442 284.466 586.472 284.542 586.502L284.002 587.901ZM293.323 590.973L292.925 592.417C292.809 592.385 292.694 592.353 292.579 592.321C291.185 591.931 289.798 591.512 288.418 591.062C288.331 591.033 288.244 591.004 288.156 590.975L288.626 589.552L289.094 588.128C289.209 588.166 289.325 588.201 289.44 588.239C289.596 588.289 289.751 588.339 289.907 588.389C290.158 588.469 290.409 588.548 290.661 588.626C290.761 588.658 290.862 588.689 290.963 588.72C291.24 588.805 291.518 588.889 291.796 588.972C291.915 589.007 292.034 589.043 292.154 589.078C292.391 589.148 292.629 589.216 292.867 589.284C293.045 589.335 293.223 589.385 293.401 589.435C293.509 589.465 293.615 589.497 293.722 589.527L293.323 590.973ZM302.902 593.114L302.647 594.591C302.542 594.573 302.438 594.554 302.333 594.536C300.87 594.279 299.41 593.989 297.957 593.667C297.891 593.653 297.825 593.638 297.759 593.623L298.086 592.161L298.413 590.697C298.492 590.715 298.571 590.731 298.649 590.748C298.845 590.792 299.041 590.834 299.237 590.876C299.435 590.919 299.634 590.96 299.832 591.002C300.017 591.04 300.203 591.078 300.388 591.116C300.603 591.159 300.817 591.202 301.032 591.244C301.199 591.277 301.367 591.308 301.535 591.34C301.742 591.379 301.95 591.419 302.157 591.457C302.356 591.493 302.554 591.528 302.753 591.563C302.887 591.587 303.022 591.613 303.157 591.636L302.902 593.114ZM312.643 594.309L312.533 595.804C310.913 595.686 309.296 595.528 307.682 595.331C307.647 595.327 307.611 595.323 307.575 595.318L307.758 593.831L307.94 592.342C308.002 592.35 308.064 592.356 308.126 592.364C308.282 592.382 308.439 592.399 308.595 592.417C308.817 592.443 309.04 592.469 309.262 592.493C309.462 592.515 309.661 592.536 309.861 592.556C310.057 592.576 310.253 592.597 310.449 592.616C310.672 592.637 310.895 592.658 311.118 592.678C311.293 592.693 311.469 592.709 311.645 592.724C311.841 592.741 312.037 592.756 312.234 592.772C312.407 592.785 312.58 592.8 312.753 592.813L312.643 594.309ZM322.454 594.548L322.491 596.048C321.661 596.068 320.83 596.079 320 596.079C319.17 596.079 318.339 596.068 317.509 596.048L317.582 593.049C319.043 593.085 320.504 593.086 321.965 593.057C322.116 593.054 322.267 593.053 322.418 593.049L322.454 594.548ZM332.242 593.831L332.425 595.318C332.387 595.323 332.348 595.327 332.31 595.332C330.699 595.528 329.084 595.686 327.467 595.804L327.357 594.309L327.247 592.813C327.4 592.802 327.552 592.788 327.704 592.776C327.922 592.759 328.139 592.743 328.356 592.725C328.552 592.708 328.747 592.689 328.942 592.671C329.143 592.653 329.343 592.636 329.544 592.617C329.742 592.598 329.941 592.577 330.139 592.556C330.339 592.536 330.538 592.515 330.738 592.493C330.96 592.469 331.183 592.443 331.405 592.417C331.569 592.398 331.734 592.381 331.898 592.361C331.952 592.354 332.006 592.349 332.06 592.342L332.242 593.831ZM341.914 592.161L342.241 593.623C342.175 593.638 342.109 593.653 342.043 593.667C340.672 593.971 339.296 594.246 337.916 594.492C337.729 594.526 337.541 594.558 337.354 594.59L337.098 593.114L336.843 591.636C336.972 591.614 337.101 591.589 337.23 591.567C337.453 591.527 337.676 591.487 337.899 591.446C338.053 591.418 338.208 591.389 338.363 591.359C338.577 591.319 338.791 591.278 339.006 591.236C339.241 591.19 339.477 591.144 339.712 591.096C339.864 591.065 340.016 591.033 340.168 591.002C340.382 590.957 340.596 590.911 340.81 590.865C340.99 590.826 341.171 590.788 341.351 590.748C341.429 590.731 341.508 590.715 341.587 590.697L341.914 592.161ZM351.375 589.552L351.844 590.975C351.754 591.005 351.664 591.035 351.573 591.065C350.197 591.514 348.812 591.932 347.421 592.321C347.306 592.353 347.191 592.385 347.075 592.417L346.677 590.973L346.278 589.527C346.385 589.497 346.491 589.465 346.599 589.435C346.786 589.383 346.973 589.33 347.16 589.277C347.351 589.222 347.542 589.167 347.733 589.111C347.933 589.053 348.132 588.994 348.331 588.934C348.519 588.878 348.707 588.821 348.895 588.764C349.083 588.706 349.271 588.649 349.458 588.59C349.661 588.527 349.864 588.463 350.067 588.398C350.231 588.345 350.395 588.292 350.56 588.239C350.675 588.201 350.79 588.166 350.906 588.128L351.375 589.552ZM360.534 586.025L361.141 587.394C361.045 587.437 360.949 587.479 360.853 587.521C359.46 588.133 358.056 588.713 356.642 589.259C356.607 589.272 356.572 589.286 356.537 589.3L355.998 587.901L355.458 586.502C355.534 586.472 355.61 586.441 355.686 586.412C355.884 586.335 356.082 586.257 356.28 586.178C356.471 586.103 356.662 586.027 356.853 585.951C357.008 585.888 357.162 585.825 357.316 585.762C357.539 585.671 357.761 585.58 357.982 585.487C358.138 585.422 358.293 585.357 358.448 585.292C358.668 585.199 358.887 585.104 359.106 585.009C359.24 584.951 359.374 584.894 359.508 584.835C359.647 584.774 359.787 584.715 359.926 584.654L360.534 586.025ZM369.299 581.612L370.038 582.914C369.961 582.957 369.884 583.001 369.806 583.045C368.484 583.79 367.15 584.504 365.802 585.185C365.75 585.212 365.697 585.238 365.645 585.264L364.97 583.927L364.296 582.587C364.4 582.535 364.502 582.481 364.605 582.429C364.729 582.366 364.852 582.303 364.975 582.24C365.195 582.127 365.414 582.013 365.633 581.898C365.784 581.819 365.935 581.74 366.086 581.66C366.303 581.545 366.52 581.43 366.737 581.314C366.888 581.232 367.04 581.149 367.191 581.066C367.388 580.959 367.585 580.85 367.781 580.741C367.951 580.647 368.12 580.552 368.289 580.457C368.379 580.407 368.469 580.358 368.558 580.307L369.299 581.612ZM377.585 576.354L378.45 577.578C378.372 577.633 378.294 577.687 378.216 577.742C377.022 578.58 375.814 579.39 374.593 580.171C374.499 580.231 374.404 580.289 374.31 580.349L373.507 579.085L372.704 577.819C372.807 577.753 372.909 577.685 373.012 577.619C373.128 577.545 373.244 577.471 373.36 577.396C373.584 577.251 373.809 577.105 374.032 576.958C374.162 576.873 374.291 576.787 374.42 576.702C374.598 576.583 374.776 576.465 374.953 576.345C375.132 576.225 375.309 576.104 375.487 575.983C375.65 575.872 375.812 575.76 375.974 575.648C376.152 575.525 376.33 575.401 376.507 575.276C376.578 575.227 376.649 575.178 376.72 575.128L377.585 576.354ZM385.315 570.308L386.295 571.44C386.244 571.485 386.192 571.53 386.141 571.574C384.995 572.56 383.833 573.516 382.655 574.443C382.586 574.497 382.517 574.55 382.448 574.604L381.525 573.426L380.6 572.244C380.709 572.159 380.817 572.072 380.925 571.987C381.086 571.86 381.246 571.733 381.406 571.605C381.581 571.465 381.755 571.325 381.929 571.184C382.058 571.079 382.188 570.974 382.317 570.869C382.489 570.727 382.661 570.585 382.833 570.442C382.982 570.318 383.13 570.195 383.278 570.07C383.446 569.929 383.613 569.787 383.78 569.645C383.918 569.528 384.055 569.411 384.191 569.293C384.239 569.253 384.287 569.213 384.334 569.173L385.315 570.308ZM389.65 564.228L391.416 562.462L393.538 564.583L391.771 566.35C391.181 566.94 390.585 567.521 389.984 568.093L388.949 567.009L387.914 565.923C388.498 565.367 389.077 564.802 389.65 564.228ZM400.603 557.518L397.07 561.051L394.949 558.929L398.482 555.396L400.603 557.518ZM407.668 550.453L404.136 553.985L402.015 551.864L405.547 548.332L407.668 550.453ZM414.734 543.387L411.201 546.92L409.08 544.799L412.612 541.266L414.734 543.387ZM421.799 536.322L418.266 539.855L416.145 537.733L419.678 534.201L421.799 536.322ZM428.865 529.256L425.332 532.789L423.211 530.668L426.743 527.135L428.865 529.256ZM435.93 522.191L432.398 525.724L430.276 523.602L433.809 520.069L435.93 522.191ZM442.995 515.126L439.463 518.658L437.342 516.537L440.874 513.005L442.995 515.126ZM450.061 508.06L446.528 511.593L444.407 509.472L447.939 505.939L450.061 508.06ZM457.126 500.995L453.593 504.528L451.472 502.406L455.005 498.873L457.126 500.995ZM464.192 493.929L460.659 497.462L458.538 495.341L462.07 491.808L464.192 493.929ZM471.257 486.864L467.725 490.396L465.603 488.275L469.136 484.742L471.257 486.864ZM478.322 479.799L474.79 483.331L472.669 481.21L476.201 477.678L478.322 479.799ZM485.388 472.733L481.855 476.266L479.734 474.145L483.266 470.612L485.388 472.733ZM492.453 465.668L488.92 469.201L486.799 467.079L490.332 463.546L492.453 465.668ZM499.519 458.602L495.986 462.135L493.865 460.014L497.397 456.481L499.519 458.602ZM506.584 451.537L503.052 455.069L500.93 452.948L504.463 449.415L506.584 451.537ZM513.649 444.472L510.117 448.004L507.996 445.883L511.528 442.351L513.649 444.472ZM520.715 437.406L517.182 440.939L515.061 438.818L518.593 435.285L520.715 437.406ZM527.78 430.341L524.248 433.874L522.126 431.752L525.659 428.219L527.78 430.341ZM534.846 423.275L531.313 426.808L529.192 424.687L532.725 421.154L534.846 423.275ZM541.911 416.21L538.379 419.742L536.257 417.621L539.79 414.088L541.911 416.21ZM548.977 409.144L545.444 412.677L543.323 410.556L546.856 407.023L548.977 409.144ZM556.042 402.079L552.509 405.612L550.388 403.491L553.92 399.958L556.042 402.079ZM563.107 395.014L559.575 398.547L557.453 396.425L560.986 392.892L563.107 395.014ZM570.173 387.948L566.64 391.481L564.519 389.36L568.052 385.827L570.173 387.948ZM577.238 380.883L573.706 384.415L571.584 382.294L575.117 378.761L577.238 380.883ZM584.304 373.817L580.771 377.35L578.65 375.229L582.183 371.696L584.304 373.817ZM591.369 366.752L587.836 370.285L585.715 368.164L589.247 364.631L591.369 366.752ZM598.434 359.687L594.902 363.219L592.78 361.098L596.313 357.565L598.434 359.687ZM605.5 352.621L601.967 356.154L599.846 354.033L603.379 350.5L605.5 352.621ZM612.565 345.556L609.033 349.088L606.911 346.967L610.444 343.434L612.565 345.556ZM619.631 338.49L616.098 342.023L613.977 339.902L617.51 336.369L619.631 338.49ZM626.696 331.425L623.164 334.957L621.042 332.836L624.575 329.304L626.696 331.425ZM633.761 324.36L630.229 327.892L628.107 325.771L631.64 322.238L633.761 324.36ZM639.061 319.061L637.294 320.827L635.173 318.706L636.939 316.939L639.061 319.061Z" fill="url(#paint0_linear_116_2764)"/>
<defs>
<linearGradient id="paint0_linear_116_2764" x1="320" y1="121.5" x2="320" y2="600" gradientUnits="userSpaceOnUse">
<stop offset="0.459019" stop-color="#175DC2" stop-opacity="0"/>
<stop offset="1" stop-color="#175DC2"/>
</linearGradient>
</defs>
</svg>
