<svg width="1240" height="367" viewBox="0 0 1240 367" fill="none" xmlns="http://www.w3.org/2000/svg">
<g clip-path="url(#clip0_230_7569)">
<rect width="1240" height="367" rx="40" fill="#240744"/>
<path d="M516.763 231.424L525.618 187.147H543.519C549.043 187.147 553.302 188.37 556.296 190.815C559.332 193.219 560.85 196.592 560.85 200.936C560.85 204.647 559.985 207.894 558.257 210.677C556.528 213.418 554.04 215.526 550.793 217.002C547.588 218.478 543.772 219.216 539.344 219.216H524.985L530.425 214.535L527.073 231.424H516.763ZM530.172 215.737L526.567 210.867H539.787C543.16 210.867 545.775 210.108 547.63 208.589C549.528 207.029 550.476 204.773 550.476 201.821C550.476 199.671 549.76 198.089 548.326 197.077C546.892 196.023 544.868 195.496 542.254 195.496H529.793L535.232 190.499L530.172 215.737ZM561.778 231.424L568.547 197.394H577.908L575.947 207.071L575.062 204.288C576.58 201.547 578.562 199.629 581.007 198.532C583.453 197.436 586.384 196.888 589.8 196.888L588.028 205.996C587.607 205.954 587.206 205.933 586.827 205.933C586.489 205.891 586.131 205.87 585.751 205.87C582.842 205.87 580.459 206.586 578.604 208.02C576.791 209.454 575.568 211.773 574.935 214.978L571.646 231.424H561.778ZM606.299 231.93C602.841 231.93 599.826 231.297 597.254 230.032C594.682 228.767 592.679 226.996 591.245 224.719C589.853 222.442 589.158 219.764 589.158 216.686C589.158 212.891 590.043 209.517 591.814 206.565C593.585 203.571 596.01 201.21 599.088 199.481C602.209 197.752 605.751 196.888 609.715 196.888C613.215 196.888 616.23 197.52 618.76 198.785C621.332 200.05 623.314 201.821 624.706 204.099C626.14 206.333 626.856 209.011 626.856 212.132C626.856 215.885 625.971 219.258 624.2 222.252C622.429 225.246 620.004 227.608 616.926 229.336C613.847 231.065 610.305 231.93 606.299 231.93ZM606.932 223.833C608.871 223.833 610.579 223.37 612.055 222.442C613.573 221.472 614.754 220.144 615.597 218.457C616.441 216.77 616.862 214.809 616.862 212.574C616.862 210.297 616.188 208.463 614.838 207.071C613.489 205.68 611.591 204.984 609.146 204.984C607.206 204.984 605.477 205.469 603.959 206.439C602.483 207.367 601.302 208.674 600.417 210.361C599.573 212.047 599.152 214.008 599.152 216.243C599.152 218.562 599.826 220.418 601.176 221.809C602.525 223.159 604.444 223.833 606.932 223.833ZM651.67 231.93C648.929 231.93 646.526 231.403 644.46 230.349C642.435 229.294 640.917 227.671 639.905 225.478C638.893 223.243 638.535 220.376 638.83 216.876C639.083 212.827 639.905 209.306 641.297 206.312C642.731 203.318 644.67 200.999 647.116 199.355C649.562 197.71 652.451 196.888 655.782 196.888C658.438 196.888 660.884 197.499 663.119 198.722C665.354 199.903 667.146 201.632 668.496 203.909C669.845 206.144 670.52 208.885 670.52 212.132C670.52 214.957 670.035 217.593 669.065 220.038C668.095 222.442 666.746 224.529 665.017 226.3C663.33 228.071 661.348 229.463 659.071 230.475C656.794 231.445 654.327 231.93 651.67 231.93ZM627.444 243.695L636.679 197.394H646.041L644.649 204.162L642.499 214.282L641.17 224.403L637.312 243.695H627.444ZM650.532 223.77C652.514 223.77 654.243 223.306 655.719 222.379C657.194 221.409 658.354 220.102 659.198 218.457C660.083 216.77 660.526 214.809 660.526 212.574C660.526 210.255 659.851 208.421 658.502 207.071C657.152 205.722 655.234 205.047 652.746 205.047C650.848 205.047 649.14 205.532 647.622 206.502C646.104 207.43 644.923 208.737 644.08 210.424C643.237 212.068 642.815 214.008 642.815 216.243C642.815 218.562 643.49 220.397 644.839 221.746C646.188 223.096 648.086 223.77 650.532 223.77ZM673.583 231.424L680.351 197.394H690.155L683.387 231.424H673.583ZM686.93 192.65C685.201 192.65 683.809 192.165 682.755 191.195C681.701 190.183 681.173 188.96 681.173 187.526C681.173 185.839 681.764 184.448 682.945 183.352C684.167 182.213 685.749 181.644 687.689 181.644C689.417 181.644 690.809 182.129 691.863 183.099C692.96 184.026 693.508 185.186 693.508 186.577C693.508 188.391 692.896 189.867 691.673 191.005C690.493 192.102 688.911 192.65 686.93 192.65Z" fill="white"/>
<path d="M707.538 207.071H728.854L727.146 215.294H705.893L707.538 207.071ZM703.489 231.424H693.179L702.035 187.147H735.495L733.788 195.37H710.637L703.489 231.424ZM732.945 231.424L739.713 197.394H749.517L742.749 231.424H732.945ZM746.291 192.65C744.562 192.65 743.17 192.165 742.116 191.195C741.062 190.183 740.535 188.96 740.535 187.526C740.535 185.839 741.125 184.448 742.306 183.352C743.529 182.213 745.11 181.644 747.05 181.644C748.779 181.644 750.17 182.129 751.225 183.099C752.321 184.026 752.869 185.186 752.869 186.577C752.869 188.391 752.258 189.867 751.035 191.005C749.854 192.102 748.273 192.65 746.291 192.65ZM747.354 231.424L766.962 211.309L765.697 216.306L755.324 197.394H765.571L772.655 210.487L768.101 210.424L780.435 197.394H791.315L772.592 216.876L773.414 211.626L784.42 231.424H773.983L766.709 217.888H771.327L758.613 231.424H747.354Z" fill="#CAB2E5"/>
<path d="M534.058 120H551.423L503.188 173.419H485.824L534.058 120Z" fill="#CAB2E5"/>
<path d="M553.396 120.441L543.048 131.9L579.443 173.419H596.807L553.396 120.441Z" fill="#CAB2E5"/>
<path d="M493.235 120H510.599L462.364 173.419H445L493.235 120Z" fill="#CAB2E5"/>
<path d="M514.063 120H531.428L463.899 192.812H446.535L514.063 120Z" fill="white"/>
<g opacity="0.05">
<path d="M385.255 294.785L408.026 180.93H454.056C468.261 180.93 479.213 184.074 486.912 190.363C494.719 196.544 498.622 205.219 498.622 216.388C498.622 225.93 496.4 234.279 491.954 241.436C487.508 248.484 481.11 253.906 472.761 257.701C464.52 261.496 454.707 263.394 443.321 263.394H406.4L420.387 251.357L411.767 294.785H385.255ZM419.737 254.448L410.466 241.924H444.46C453.134 241.924 459.857 239.972 464.628 236.068C469.508 232.056 471.948 226.255 471.948 218.665C471.948 213.135 470.104 209.068 466.418 206.466C462.731 203.755 457.526 202.4 450.803 202.4H418.761L432.749 189.55L419.737 254.448ZM501.01 294.785L518.414 207.279H542.486L537.444 232.165L535.167 225.008C539.07 217.96 544.167 213.026 550.456 210.207C556.745 207.388 564.281 205.978 573.064 205.978L568.51 229.4C567.426 229.291 566.396 229.237 565.42 229.237C564.552 229.129 563.631 229.074 562.655 229.074C555.173 229.074 549.046 230.918 544.275 234.604C539.613 238.291 536.468 244.255 534.841 252.496L526.384 294.785H501.01ZM615.492 296.086C606.6 296.086 598.847 294.46 592.233 291.207C585.618 287.954 580.468 283.4 576.781 277.544C573.203 271.689 571.414 264.803 571.414 256.888C571.414 247.129 573.691 238.454 578.245 230.863C582.799 223.165 589.034 217.092 596.95 212.647C604.974 208.201 614.082 205.978 624.275 205.978C633.275 205.978 641.028 207.604 647.534 210.857C654.149 214.11 659.245 218.665 662.823 224.52C666.51 230.267 668.353 237.153 668.353 245.177C668.353 254.827 666.076 263.502 661.522 271.201C656.968 278.9 650.733 284.972 642.817 289.418C634.902 293.863 625.793 296.086 615.492 296.086ZM617.118 275.267C622.106 275.267 626.498 274.074 630.293 271.689C634.197 269.195 637.233 265.779 639.402 261.442C641.57 257.104 642.655 252.062 642.655 246.315C642.655 240.46 640.92 235.743 637.45 232.165C633.98 228.586 629.1 226.797 622.811 226.797C617.823 226.797 613.378 228.044 609.474 230.538C605.679 232.924 602.643 236.285 600.365 240.623C598.197 244.96 597.112 250.002 597.112 255.749C597.112 261.713 598.847 266.484 602.317 270.062C605.787 273.532 610.721 275.267 617.118 275.267ZM732.161 296.086C725.113 296.086 718.932 294.731 713.619 292.02C708.414 289.309 704.51 285.135 701.908 279.496C699.305 273.749 698.384 266.376 699.143 257.376C699.793 246.966 701.908 237.912 705.486 230.213C709.173 222.514 714.161 216.55 720.45 212.321C726.739 208.092 734.167 205.978 742.733 205.978C749.564 205.978 755.854 207.55 761.6 210.695C767.347 213.731 771.956 218.177 775.426 224.032C778.896 229.779 780.631 236.827 780.631 245.177C780.631 252.442 779.384 259.219 776.89 265.508C774.396 271.689 770.926 277.056 766.48 281.61C762.143 286.165 757.046 289.743 751.191 292.345C745.335 294.839 738.992 296.086 732.161 296.086ZM669.866 326.339L693.613 207.279H717.685L714.107 224.683L708.576 250.707L705.161 276.731L695.239 326.339H669.866ZM729.233 275.104C734.329 275.104 738.775 273.912 742.57 271.526C746.366 269.032 749.347 265.671 751.516 261.442C753.793 257.104 754.932 252.062 754.932 246.315C754.932 240.351 753.197 235.635 749.727 232.165C746.257 228.695 741.323 226.96 734.926 226.96C730.046 226.96 725.655 228.207 721.751 230.701C717.847 233.086 714.811 236.448 712.643 240.785C710.474 245.014 709.39 250.002 709.39 255.749C709.39 261.713 711.125 266.43 714.594 269.9C718.064 273.369 722.944 275.104 729.233 275.104ZM788.508 294.785L805.911 207.279H831.122L813.719 294.785H788.508ZM822.827 195.08C818.381 195.08 814.803 193.833 812.092 191.339C809.381 188.737 808.026 185.592 808.026 181.906C808.026 177.568 809.544 173.99 812.58 171.171C815.725 168.243 819.791 166.779 824.779 166.779C829.225 166.779 832.803 168.026 835.514 170.52C838.333 172.906 839.743 175.888 839.743 179.466C839.743 184.129 838.17 187.924 835.026 190.851C831.99 193.671 827.923 195.08 822.827 195.08Z" fill="white"/>
<path d="M875.819 232.165H930.633L926.241 253.309H871.59L875.819 232.165ZM865.41 294.785H838.898L861.669 180.93H947.711L943.319 202.074H883.789L865.41 294.785ZM941.152 294.785L958.555 207.279H983.766L966.362 294.785H941.152ZM975.471 195.08C971.025 195.08 967.447 193.833 964.736 191.339C962.025 188.737 960.67 185.592 960.67 181.906C960.67 177.568 962.188 173.99 965.224 171.171C968.368 168.243 972.435 166.779 977.423 166.779C981.868 166.779 985.447 168.026 988.158 170.52C990.977 172.906 992.386 175.888 992.386 179.466C992.386 184.129 990.814 187.924 987.67 190.851C984.633 193.671 980.567 195.08 975.471 195.08ZM978.204 294.785L1028.63 243.062L1025.37 255.912L998.698 207.279H1025.05L1043.26 240.948L1031.55 240.785L1063.27 207.279H1091.25L1043.1 257.376L1045.22 243.876L1073.52 294.785H1046.68L1027.98 259.978H1039.85L1007.16 294.785H978.204Z" fill="#CAB2E5"/>
<path d="M315.522 -40H377.041L206.153 148.345H144.633L315.522 -40Z" fill="#CAB2E5"/>
<path d="M384.032 -38.446L347.369 1.95796L476.312 148.345H537.831L384.032 -38.446Z" fill="#CAB2E5"/>
<path d="M170.888 -40H232.408L61.5197 148.345H0L170.888 -40Z" fill="#CAB2E5"/>
<path d="M244.681 -40H306.2L66.9571 216.721H5.43735L244.681 -40Z" fill="white"/>
</g>
</g>
<defs>
<clipPath id="clip0_230_7569">
<rect width="1240" height="367" rx="40" fill="white"/>
</clipPath>
</defs>
</svg>
