<svg width="1240" height="641" viewBox="0 0 1240 641" fill="none" xmlns="http://www.w3.org/2000/svg">
<rect width="1240" height="641" rx="40" fill="#01071A"/>
<g opacity="0.05">
<path d="M385.255 334.785L408.026 220.93H454.056C468.261 220.93 479.213 224.074 486.912 230.363C494.719 236.544 498.622 245.219 498.622 256.388C498.622 265.93 496.4 274.279 491.954 281.436C487.508 288.484 481.11 293.906 472.761 297.701C464.52 301.496 454.707 303.394 443.321 303.394H406.4L420.387 291.357L411.767 334.785H385.255ZM419.737 294.448L410.466 281.924H444.46C453.134 281.924 459.857 279.972 464.628 276.068C469.508 272.056 471.948 266.255 471.948 258.665C471.948 253.135 470.104 249.068 466.418 246.466C462.731 243.755 457.526 242.4 450.803 242.4H418.761L432.749 229.55L419.737 294.448ZM501.01 334.785L518.414 247.279H542.486L537.444 272.165L535.167 265.008C539.07 257.96 544.167 253.026 550.456 250.207C556.745 247.388 564.281 245.978 573.064 245.978L568.51 269.4C567.426 269.291 566.396 269.237 565.42 269.237C564.552 269.129 563.631 269.074 562.655 269.074C555.173 269.074 549.046 270.918 544.275 274.604C539.613 278.291 536.468 284.255 534.841 292.496L526.384 334.785H501.01ZM615.492 336.086C606.6 336.086 598.847 334.46 592.233 331.207C585.618 327.954 580.468 323.4 576.781 317.544C573.203 311.689 571.414 304.803 571.414 296.888C571.414 287.129 573.691 278.454 578.245 270.863C582.799 263.165 589.034 257.092 596.95 252.647C604.974 248.201 614.082 245.978 624.275 245.978C633.275 245.978 641.028 247.604 647.534 250.857C654.149 254.11 659.245 258.665 662.823 264.52C666.51 270.267 668.353 277.153 668.353 285.177C668.353 294.827 666.076 303.502 661.522 311.201C656.968 318.9 650.733 324.972 642.817 329.418C634.902 333.863 625.793 336.086 615.492 336.086ZM617.118 315.267C622.106 315.267 626.498 314.074 630.293 311.689C634.197 309.195 637.233 305.779 639.402 301.442C641.57 297.104 642.655 292.062 642.655 286.315C642.655 280.46 640.92 275.743 637.45 272.165C633.98 268.586 629.1 266.797 622.811 266.797C617.823 266.797 613.378 268.044 609.474 270.538C605.679 272.924 602.643 276.285 600.365 280.623C598.197 284.96 597.112 290.002 597.112 295.749C597.112 301.713 598.847 306.484 602.317 310.062C605.787 313.532 610.721 315.267 617.118 315.267ZM732.161 336.086C725.113 336.086 718.932 334.731 713.619 332.02C708.414 329.309 704.51 325.135 701.908 319.496C699.305 313.749 698.384 306.376 699.143 297.376C699.793 286.966 701.908 277.912 705.486 270.213C709.173 262.514 714.161 256.55 720.45 252.321C726.739 248.092 734.167 245.978 742.733 245.978C749.564 245.978 755.854 247.55 761.6 250.695C767.347 253.731 771.956 258.177 775.426 264.032C778.896 269.779 780.631 276.827 780.631 285.177C780.631 292.442 779.384 299.219 776.89 305.508C774.396 311.689 770.926 317.056 766.48 321.61C762.143 326.165 757.046 329.743 751.191 332.345C745.335 334.839 738.992 336.086 732.161 336.086ZM669.866 366.339L693.613 247.279H717.685L714.107 264.683L708.576 290.707L705.161 316.731L695.239 366.339H669.866ZM729.233 315.104C734.329 315.104 738.775 313.912 742.57 311.526C746.366 309.032 749.347 305.671 751.516 301.442C753.793 297.104 754.932 292.062 754.932 286.315C754.932 280.351 753.197 275.635 749.727 272.165C746.257 268.695 741.323 266.96 734.926 266.96C730.046 266.96 725.655 268.207 721.751 270.701C717.847 273.086 714.811 276.448 712.643 280.785C710.474 285.014 709.39 290.002 709.39 295.749C709.39 301.713 711.125 306.43 714.594 309.9C718.064 313.369 722.944 315.104 729.233 315.104ZM788.508 334.785L805.911 247.279H831.122L813.719 334.785H788.508ZM822.827 235.08C818.381 235.08 814.803 233.833 812.092 231.339C809.381 228.737 808.026 225.592 808.026 221.906C808.026 217.568 809.544 213.99 812.58 211.171C815.725 208.243 819.791 206.779 824.779 206.779C829.225 206.779 832.803 208.026 835.514 210.52C838.333 212.906 839.743 215.888 839.743 219.466C839.743 224.129 838.17 227.924 835.026 230.851C831.99 233.671 827.923 235.08 822.827 235.08Z" fill="white"/>
<path d="M875.819 272.165H930.633L926.241 293.309H871.59L875.819 272.165ZM865.41 334.785H838.898L861.669 220.93H947.711L943.319 242.074H883.789L865.41 334.785ZM941.152 334.785L958.555 247.279H983.766L966.362 334.785H941.152ZM975.471 235.08C971.025 235.08 967.447 233.833 964.736 231.339C962.025 228.737 960.67 225.592 960.67 221.906C960.67 217.568 962.188 213.99 965.224 211.171C968.368 208.243 972.435 206.779 977.423 206.779C981.868 206.779 985.447 208.026 988.158 210.52C990.977 212.906 992.386 215.888 992.386 219.466C992.386 224.129 990.814 227.924 987.67 230.851C984.633 233.671 980.567 235.08 975.471 235.08ZM978.204 334.785L1028.63 283.062L1025.37 295.912L998.698 247.279H1025.05L1043.26 280.948L1031.55 280.785L1063.27 247.279H1091.25L1043.1 297.376L1045.22 283.876L1073.52 334.785H1046.68L1027.98 299.978H1039.85L1007.16 334.785H978.204Z" fill="#CAB2E5"/>
<path d="M315.522 0H377.041L206.153 188.345H144.633L315.522 0Z" fill="#CAB2E5"/>
<path d="M384.032 1.554L347.369 41.958L476.312 188.345H537.831L384.032 1.554Z" fill="#CAB2E5"/>
<path d="M170.888 0H232.408L61.5197 188.345H0L170.888 0Z" fill="#CAB2E5"/>
<path d="M244.681 0H306.2L66.9571 256.721H5.43735L244.681 0Z" fill="white"/>
</g>
<path d="M625.429 207V179H630.789L642.709 198.76H639.869L651.589 179H656.909L656.989 207H650.909L650.869 188.32H651.989L642.629 204.04H639.709L630.149 188.32H631.509V207H625.429ZM673.433 207.32C671.139 207.32 669.099 206.84 667.313 205.88C665.553 204.92 664.153 203.613 663.113 201.96C662.099 200.28 661.593 198.373 661.593 196.24C661.593 194.08 662.099 192.173 663.113 190.52C664.153 188.84 665.553 187.533 667.313 186.6C669.099 185.64 671.139 185.16 673.433 185.16C675.699 185.16 677.726 185.64 679.513 186.6C681.299 187.533 682.699 188.827 683.713 190.48C684.726 192.133 685.233 194.053 685.233 196.24C685.233 198.373 684.726 200.28 683.713 201.96C682.699 203.613 681.299 204.92 679.513 205.88C677.726 206.84 675.699 207.32 673.433 207.32ZM673.433 202.2C674.473 202.2 675.406 201.96 676.233 201.48C677.059 201 677.713 200.32 678.193 199.44C678.673 198.533 678.913 197.467 678.913 196.24C678.913 194.987 678.673 193.92 678.193 193.04C677.713 192.16 677.059 191.48 676.233 191C675.406 190.52 674.473 190.28 673.433 190.28C672.393 190.28 671.459 190.52 670.633 191C669.806 191.48 669.139 192.16 668.633 193.04C668.153 193.92 667.913 194.987 667.913 196.24C667.913 197.467 668.153 198.533 668.633 199.44C669.139 200.32 669.806 201 670.633 201.48C671.459 201.96 672.393 202.2 673.433 202.2ZM702.483 185.16C704.19 185.16 705.71 185.507 707.043 186.2C708.403 186.867 709.47 187.907 710.243 189.32C711.017 190.707 711.403 192.493 711.403 194.68V207H705.163V195.64C705.163 193.907 704.777 192.627 704.003 191.8C703.257 190.973 702.19 190.56 700.803 190.56C699.817 190.56 698.923 190.773 698.123 191.2C697.35 191.6 696.737 192.227 696.283 193.08C695.857 193.933 695.643 195.027 695.643 196.36V207H689.403V185.48H695.363V191.44L694.243 189.64C695.017 188.2 696.123 187.093 697.563 186.32C699.003 185.547 700.643 185.16 702.483 185.16ZM725.86 207.32C723.326 207.32 721.353 206.68 719.94 205.4C718.526 204.093 717.82 202.16 717.82 199.6V180.72H724.06V199.52C724.06 200.427 724.3 201.133 724.78 201.64C725.26 202.12 725.913 202.36 726.74 202.36C727.726 202.36 728.566 202.093 729.26 201.56L730.94 205.96C730.3 206.413 729.526 206.76 728.62 207C727.74 207.213 726.82 207.32 725.86 207.32ZM714.5 190.76V185.96H729.42V190.76H714.5ZM741.683 207.32C739.843 207.32 738.069 207.107 736.363 206.68C734.683 206.227 733.349 205.667 732.363 205L734.443 200.52C735.429 201.133 736.589 201.64 737.923 202.04C739.283 202.413 740.616 202.6 741.923 202.6C743.363 202.6 744.376 202.427 744.963 202.08C745.576 201.733 745.883 201.253 745.883 200.64C745.883 200.133 745.643 199.76 745.163 199.52C744.709 199.253 744.096 199.053 743.322 198.92C742.549 198.787 741.696 198.653 740.763 198.52C739.856 198.387 738.936 198.213 738.003 198C737.069 197.76 736.216 197.413 735.443 196.96C734.669 196.507 734.043 195.893 733.563 195.12C733.109 194.347 732.882 193.347 732.882 192.12C732.882 190.76 733.269 189.56 734.043 188.52C734.843 187.48 735.989 186.667 737.483 186.08C738.976 185.467 740.763 185.16 742.843 185.16C744.309 185.16 745.803 185.32 747.323 185.64C748.843 185.96 750.109 186.427 751.123 187.04L749.043 191.48C748.003 190.867 746.949 190.453 745.883 190.24C744.843 190 743.829 189.88 742.843 189.88C741.456 189.88 740.443 190.067 739.803 190.44C739.163 190.813 738.843 191.293 738.843 191.88C738.843 192.413 739.069 192.813 739.523 193.08C740.003 193.347 740.629 193.56 741.403 193.72C742.176 193.88 743.016 194.027 743.923 194.16C744.856 194.267 745.789 194.44 746.723 194.68C747.656 194.92 748.496 195.267 749.243 195.72C750.016 196.147 750.643 196.747 751.123 197.52C751.603 198.267 751.843 199.253 751.843 200.48C751.843 201.813 751.443 203 750.643 204.04C749.843 205.053 748.683 205.853 747.163 206.44C745.669 207.027 743.843 207.32 741.683 207.32ZM766.373 207.32C763.919 207.32 761.759 206.84 759.893 205.88C758.053 204.92 756.626 203.613 755.613 201.96C754.599 200.28 754.093 198.373 754.093 196.24C754.093 194.08 754.586 192.173 755.573 190.52C756.586 188.84 757.959 187.533 759.693 186.6C761.426 185.64 763.386 185.16 765.573 185.16C767.679 185.16 769.573 185.613 771.253 186.52C772.959 187.4 774.306 188.68 775.293 190.36C776.279 192.013 776.773 194 776.773 196.32C776.773 196.56 776.759 196.84 776.733 197.16C776.706 197.453 776.679 197.733 776.653 198H759.173V194.36H773.372L770.973 195.44C770.973 194.32 770.746 193.347 770.293 192.52C769.839 191.693 769.213 191.053 768.413 190.6C767.613 190.12 766.679 189.88 765.613 189.88C764.546 189.88 763.599 190.12 762.773 190.6C761.973 191.053 761.346 191.707 760.893 192.56C760.439 193.387 760.213 194.373 760.213 195.52V196.48C760.213 197.653 760.466 198.693 760.973 199.6C761.506 200.48 762.239 201.16 763.173 201.64C764.133 202.093 765.253 202.32 766.533 202.32C767.679 202.32 768.679 202.147 769.533 201.8C770.413 201.453 771.213 200.933 771.933 200.24L775.253 203.84C774.266 204.96 773.026 205.827 771.533 206.44C770.039 207.027 768.319 207.32 766.373 207.32ZM780.927 207V185.48H786.887V191.56L786.047 189.8C786.687 188.28 787.714 187.133 789.127 186.36C790.54 185.56 792.26 185.16 794.287 185.16V190.92C794.02 190.893 793.78 190.88 793.567 190.88C793.354 190.853 793.127 190.84 792.887 190.84C791.18 190.84 789.794 191.333 788.727 192.32C787.687 193.28 787.167 194.787 787.167 196.84V207H780.927ZM798.036 207V185.48H803.996V191.56L803.156 189.8C803.796 188.28 804.823 187.133 806.236 186.36C807.65 185.56 809.37 185.16 811.396 185.16V190.92C811.13 190.893 810.89 190.88 810.676 190.88C810.463 190.853 810.236 190.84 809.996 190.84C808.29 190.84 806.903 191.333 805.836 192.32C804.796 193.28 804.276 194.787 804.276 196.84V207H798.036ZM826.9 207V202.8L826.5 201.88V194.36C826.5 193.027 826.087 191.987 825.26 191.24C824.46 190.493 823.22 190.12 821.54 190.12C820.394 190.12 819.26 190.307 818.14 190.68C817.047 191.027 816.114 191.507 815.34 192.12L813.1 187.76C814.274 186.933 815.687 186.293 817.34 185.84C818.994 185.387 820.674 185.16 822.38 185.16C825.66 185.16 828.207 185.933 830.02 187.48C831.834 189.027 832.74 191.44 832.74 194.72V207H826.9ZM820.34 207.32C818.66 207.32 817.22 207.04 816.02 206.48C814.82 205.893 813.9 205.107 813.26 204.12C812.62 203.133 812.3 202.027 812.3 200.8C812.3 199.52 812.607 198.4 813.22 197.44C813.86 196.48 814.86 195.733 816.22 195.2C817.58 194.64 819.354 194.36 821.54 194.36H827.26V198H822.22C820.754 198 819.74 198.24 819.18 198.72C818.647 199.2 818.38 199.8 818.38 200.52C818.38 201.32 818.687 201.96 819.3 202.44C819.94 202.893 820.807 203.12 821.9 203.12C822.94 203.12 823.874 202.88 824.7 202.4C825.527 201.893 826.127 201.16 826.5 200.2L827.46 203.08C827.007 204.467 826.18 205.52 824.98 206.24C823.78 206.96 822.234 207.32 820.34 207.32ZM847.188 207.32C844.654 207.32 842.681 206.68 841.268 205.4C839.854 204.093 839.148 202.16 839.148 199.6V180.72H845.388V199.52C845.388 200.427 845.628 201.133 846.108 201.64C846.588 202.12 847.241 202.36 848.068 202.36C849.054 202.36 849.894 202.093 850.588 201.56L852.268 205.96C851.628 206.413 850.854 206.76 849.948 207C849.068 207.213 848.148 207.32 847.188 207.32ZM835.828 190.76V185.96H850.748V190.76H835.828Z" fill="white"/>
<path d="M624.736 282V265.2H631.984C633.856 265.2 635.304 265.576 636.328 266.328C637.368 267.08 637.888 268.144 637.888 269.52C637.888 270.432 637.672 271.2 637.24 271.824C636.824 272.448 636.248 272.92 635.512 273.24C634.792 273.56 634 273.72 633.136 273.72L633.544 273.144C634.616 273.144 635.536 273.312 636.304 273.648C637.088 273.968 637.696 274.456 638.128 275.112C638.56 275.752 638.776 276.552 638.776 277.512C638.776 278.936 638.248 280.04 637.192 280.824C636.152 281.608 634.576 282 632.464 282H624.736ZM626.512 280.536H632.44C633.912 280.536 635.04 280.288 635.824 279.792C636.608 279.28 637 278.472 637 277.368C637 276.28 636.608 275.488 635.824 274.992C635.04 274.48 633.912 274.224 632.44 274.224H626.32V272.76H631.864C633.208 272.76 634.248 272.504 634.984 271.992C635.736 271.48 636.112 270.72 636.112 269.712C636.112 268.688 635.736 267.928 634.984 267.432C634.248 266.92 633.208 266.664 631.864 266.664H626.512V280.536ZM647.606 282.12C646.39 282.12 645.294 281.848 644.318 281.304C643.358 280.744 642.598 279.984 642.038 279.024C641.478 278.048 641.198 276.936 641.198 275.688C641.198 274.424 641.478 273.312 642.038 272.352C642.598 271.392 643.358 270.64 644.318 270.096C645.278 269.552 646.374 269.28 647.606 269.28C648.854 269.28 649.958 269.552 650.918 270.096C651.894 270.64 652.654 271.392 653.198 272.352C653.758 273.312 654.038 274.424 654.038 275.688C654.038 276.936 653.758 278.048 653.198 279.024C652.654 279.984 651.894 280.744 650.918 281.304C649.942 281.848 648.838 282.12 647.606 282.12ZM647.606 280.608C648.518 280.608 649.326 280.408 650.03 280.008C650.734 279.592 651.286 279.016 651.686 278.28C652.102 277.528 652.31 276.664 652.31 275.688C652.31 274.696 652.102 273.832 651.686 273.096C651.286 272.36 650.734 271.792 650.03 271.392C649.326 270.976 648.526 270.768 647.63 270.768C646.734 270.768 645.934 270.976 645.23 271.392C644.526 271.792 643.966 272.36 643.55 273.096C643.134 273.832 642.926 274.696 642.926 275.688C642.926 276.664 643.134 277.528 643.55 278.28C643.966 279.016 644.526 279.592 645.23 280.008C645.934 280.408 646.726 280.608 647.606 280.608ZM657.517 282V264.192H659.221V282H657.517ZM668.978 282.12C667.778 282.12 666.698 281.848 665.738 281.304C664.794 280.76 664.05 280.008 663.506 279.048C662.962 278.072 662.69 276.952 662.69 275.688C662.69 274.408 662.962 273.288 663.506 272.328C664.05 271.368 664.794 270.624 665.738 270.096C666.698 269.552 667.778 269.28 668.978 269.28C670.082 269.28 671.066 269.528 671.93 270.024C672.81 270.52 673.506 271.248 674.018 272.208C674.546 273.152 674.81 274.312 674.81 275.688C674.81 277.048 674.554 278.208 674.042 279.168C673.53 280.128 672.834 280.864 671.954 281.376C671.09 281.872 670.098 282.12 668.978 282.12ZM669.098 280.608C669.994 280.608 670.794 280.408 671.498 280.008C672.218 279.592 672.778 279.016 673.178 278.28C673.594 277.528 673.802 276.664 673.802 275.688C673.802 274.696 673.594 273.832 673.178 273.096C672.778 272.36 672.218 271.792 671.498 271.392C670.794 270.976 669.994 270.768 669.098 270.768C668.218 270.768 667.426 270.976 666.722 271.392C666.018 271.792 665.458 272.36 665.042 273.096C664.626 273.832 664.418 274.696 664.418 275.688C664.418 276.664 664.626 277.528 665.042 278.28C665.458 279.016 666.018 279.592 666.722 280.008C667.426 280.408 668.218 280.608 669.098 280.608ZM673.85 282V278.208L674.018 275.664L673.778 273.12V264.192H675.482V282H673.85Z" fill="white"/>
<path d="M729.368 282.144C728.12 282.144 726.92 281.944 725.768 281.544C724.632 281.128 723.752 280.6 723.128 279.96L723.824 278.592C724.416 279.168 725.208 279.656 726.2 280.056C727.208 280.44 728.264 280.632 729.368 280.632C730.424 280.632 731.28 280.504 731.936 280.248C732.608 279.976 733.096 279.616 733.4 279.168C733.72 278.72 733.88 278.224 733.88 277.68C733.88 277.024 733.688 276.496 733.304 276.096C732.936 275.696 732.448 275.384 731.84 275.16C731.232 274.92 730.56 274.712 729.824 274.536C729.088 274.36 728.352 274.176 727.616 273.984C726.88 273.776 726.2 273.504 725.576 273.168C724.968 272.832 724.472 272.392 724.088 271.848C723.72 271.288 723.536 270.56 723.536 269.664C723.536 268.832 723.752 268.072 724.184 267.384C724.632 266.68 725.312 266.12 726.224 265.704C727.136 265.272 728.304 265.056 729.728 265.056C730.672 265.056 731.608 265.192 732.536 265.464C733.464 265.72 734.264 266.08 734.936 266.544L734.336 267.96C733.616 267.48 732.848 267.128 732.032 266.904C731.232 266.68 730.456 266.568 729.704 266.568C728.696 266.568 727.864 266.704 727.208 266.976C726.552 267.248 726.064 267.616 725.744 268.08C725.44 268.528 725.288 269.04 725.288 269.616C725.288 270.272 725.472 270.8 725.84 271.2C726.224 271.6 726.72 271.912 727.328 272.136C727.952 272.36 728.632 272.56 729.368 272.736C730.104 272.912 730.832 273.104 731.552 273.312C732.288 273.52 732.96 273.792 733.568 274.128C734.192 274.448 734.688 274.88 735.056 275.424C735.44 275.968 735.632 276.68 735.632 277.56C735.632 278.376 735.408 279.136 734.96 279.84C734.512 280.528 733.824 281.088 732.896 281.52C731.984 281.936 730.808 282.144 729.368 282.144ZM744.494 282.12C743.182 282.12 742.03 281.848 741.038 281.304C740.046 280.744 739.27 279.984 738.71 279.024C738.15 278.048 737.87 276.936 737.87 275.688C737.87 274.44 738.134 273.336 738.662 272.376C739.206 271.416 739.942 270.664 740.87 270.12C741.814 269.56 742.87 269.28 744.038 269.28C745.222 269.28 746.27 269.552 747.182 270.096C748.11 270.624 748.838 271.376 749.366 272.352C749.894 273.312 750.158 274.424 750.158 275.688C750.158 275.768 750.15 275.856 750.134 275.952C750.134 276.032 750.134 276.12 750.134 276.216H739.166V274.944H749.222L748.55 275.448C748.55 274.536 748.35 273.728 747.95 273.024C747.566 272.304 747.038 271.744 746.366 271.344C745.694 270.944 744.918 270.744 744.038 270.744C743.174 270.744 742.398 270.944 741.71 271.344C741.022 271.744 740.486 272.304 740.102 273.024C739.718 273.744 739.526 274.568 739.526 275.496V275.76C739.526 276.72 739.734 277.568 740.15 278.304C740.582 279.024 741.174 279.592 741.926 280.008C742.694 280.408 743.566 280.608 744.542 280.608C745.31 280.608 746.022 280.472 746.678 280.2C747.35 279.928 747.926 279.512 748.406 278.952L749.366 280.056C748.806 280.728 748.102 281.24 747.254 281.592C746.422 281.944 745.502 282.12 744.494 282.12ZM769.37 269.28C770.394 269.28 771.282 269.48 772.034 269.88C772.802 270.264 773.394 270.856 773.81 271.656C774.242 272.456 774.458 273.464 774.458 274.68V282H772.754V274.848C772.754 273.52 772.434 272.52 771.794 271.848C771.17 271.16 770.282 270.816 769.13 270.816C768.266 270.816 767.514 271 766.874 271.368C766.25 271.72 765.762 272.24 765.41 272.928C765.074 273.6 764.906 274.416 764.906 275.376V282H763.202V274.848C763.202 273.52 762.882 272.52 762.242 271.848C761.602 271.16 760.706 270.816 759.554 270.816C758.706 270.816 757.962 271 757.322 271.368C756.682 271.72 756.186 272.24 755.834 272.928C755.498 273.6 755.33 274.416 755.33 275.376V282H753.626V269.4H755.258V272.808L754.994 272.208C755.378 271.296 755.994 270.584 756.842 270.072C757.706 269.544 758.722 269.28 759.89 269.28C761.122 269.28 762.17 269.592 763.034 270.216C763.898 270.824 764.458 271.744 764.714 272.976L764.042 272.712C764.41 271.688 765.058 270.864 765.986 270.24C766.93 269.6 768.058 269.28 769.37 269.28ZM779.079 282V269.4H780.783V282H779.079ZM779.943 266.616C779.591 266.616 779.295 266.496 779.055 266.256C778.815 266.016 778.695 265.728 778.695 265.392C778.695 265.056 778.815 264.776 779.055 264.552C779.295 264.312 779.591 264.192 779.943 264.192C780.295 264.192 780.591 264.304 780.831 264.528C781.071 264.752 781.191 265.032 781.191 265.368C781.191 265.72 781.071 266.016 780.831 266.256C780.607 266.496 780.311 266.616 779.943 266.616ZM785.884 282V265.2H793.132C795.004 265.2 796.452 265.576 797.476 266.328C798.516 267.08 799.036 268.144 799.036 269.52C799.036 270.432 798.82 271.2 798.388 271.824C797.972 272.448 797.396 272.92 796.66 273.24C795.94 273.56 795.148 273.72 794.284 273.72L794.692 273.144C795.764 273.144 796.684 273.312 797.452 273.648C798.236 273.968 798.844 274.456 799.276 275.112C799.708 275.752 799.924 276.552 799.924 277.512C799.924 278.936 799.396 280.04 798.34 280.824C797.3 281.608 795.724 282 793.612 282H785.884ZM787.66 280.536H793.588C795.06 280.536 796.188 280.288 796.972 279.792C797.756 279.28 798.148 278.472 798.148 277.368C798.148 276.28 797.756 275.488 796.972 274.992C796.188 274.48 795.06 274.224 793.588 274.224H787.468V272.76H793.012C794.356 272.76 795.396 272.504 796.132 271.992C796.884 271.48 797.26 270.72 797.26 269.712C797.26 268.688 796.884 267.928 796.132 267.432C795.396 266.92 794.356 266.664 793.012 266.664H787.66V280.536ZM808.754 282.12C807.538 282.12 806.442 281.848 805.466 281.304C804.506 280.744 803.746 279.984 803.186 279.024C802.626 278.048 802.346 276.936 802.346 275.688C802.346 274.424 802.626 273.312 803.186 272.352C803.746 271.392 804.506 270.64 805.466 270.096C806.426 269.552 807.522 269.28 808.754 269.28C810.002 269.28 811.106 269.552 812.066 270.096C813.042 270.64 813.802 271.392 814.346 272.352C814.906 273.312 815.186 274.424 815.186 275.688C815.186 276.936 814.906 278.048 814.346 279.024C813.802 279.984 813.042 280.744 812.066 281.304C811.09 281.848 809.986 282.12 808.754 282.12ZM808.754 280.608C809.666 280.608 810.474 280.408 811.178 280.008C811.882 279.592 812.434 279.016 812.834 278.28C813.25 277.528 813.458 276.664 813.458 275.688C813.458 274.696 813.25 273.832 812.834 273.096C812.434 272.36 811.882 271.792 811.178 271.392C810.474 270.976 809.674 270.768 808.778 270.768C807.882 270.768 807.082 270.976 806.378 271.392C805.674 271.792 805.114 272.36 804.698 273.096C804.282 273.832 804.074 274.696 804.074 275.688C804.074 276.664 804.282 277.528 804.698 278.28C805.114 279.016 805.674 279.592 806.378 280.008C807.082 280.408 807.874 280.608 808.754 280.608ZM818.665 282V264.192H820.369V282H818.665ZM830.126 282.12C828.926 282.12 827.846 281.848 826.886 281.304C825.942 280.76 825.198 280.008 824.654 279.048C824.11 278.072 823.838 276.952 823.838 275.688C823.838 274.408 824.11 273.288 824.654 272.328C825.198 271.368 825.942 270.624 826.886 270.096C827.846 269.552 828.926 269.28 830.126 269.28C831.23 269.28 832.214 269.528 833.078 270.024C833.958 270.52 834.654 271.248 835.166 272.208C835.694 273.152 835.958 274.312 835.958 275.688C835.958 277.048 835.702 278.208 835.19 279.168C834.678 280.128 833.982 280.864 833.102 281.376C832.238 281.872 831.246 282.12 830.126 282.12ZM830.246 280.608C831.142 280.608 831.942 280.408 832.646 280.008C833.366 279.592 833.926 279.016 834.326 278.28C834.742 277.528 834.95 276.664 834.95 275.688C834.95 274.696 834.742 273.832 834.326 273.096C833.926 272.36 833.366 271.792 832.646 271.392C831.942 270.976 831.142 270.768 830.246 270.768C829.366 270.768 828.574 270.976 827.87 271.392C827.166 271.792 826.606 272.36 826.19 273.096C825.774 273.832 825.566 274.696 825.566 275.688C825.566 276.664 825.774 277.528 826.19 278.28C826.606 279.016 827.166 279.592 827.87 280.008C828.574 280.408 829.366 280.608 830.246 280.608ZM834.998 282V278.208L835.166 275.664L834.926 273.12V264.192H836.63V282H834.998Z" fill="white"/>
<path d="M884.736 282V265.2H886.2L893.88 278.304H893.112L900.72 265.2H902.184V282H900.48V267.864H900.888L893.88 279.864H893.04L885.984 267.864H886.44V282H884.736ZM912.65 282.12C911.338 282.12 910.186 281.848 909.194 281.304C908.202 280.744 907.426 279.984 906.866 279.024C906.306 278.048 906.026 276.936 906.026 275.688C906.026 274.44 906.29 273.336 906.818 272.376C907.362 271.416 908.098 270.664 909.026 270.12C909.97 269.56 911.026 269.28 912.194 269.28C913.378 269.28 914.426 269.552 915.338 270.096C916.266 270.624 916.994 271.376 917.522 272.352C918.05 273.312 918.314 274.424 918.314 275.688C918.314 275.768 918.306 275.856 918.29 275.952C918.29 276.032 918.29 276.12 918.29 276.216H907.322V274.944H917.378L916.706 275.448C916.706 274.536 916.506 273.728 916.106 273.024C915.722 272.304 915.194 271.744 914.522 271.344C913.85 270.944 913.074 270.744 912.194 270.744C911.33 270.744 910.554 270.944 909.866 271.344C909.178 271.744 908.642 272.304 908.258 273.024C907.874 273.744 907.682 274.568 907.682 275.496V275.76C907.682 276.72 907.89 277.568 908.306 278.304C908.738 279.024 909.33 279.592 910.082 280.008C910.85 280.408 911.722 280.608 912.698 280.608C913.466 280.608 914.178 280.472 914.834 280.2C915.506 279.928 916.082 279.512 916.562 278.952L917.522 280.056C916.962 280.728 916.258 281.24 915.41 281.592C914.578 281.944 913.658 282.12 912.65 282.12ZM926.798 282.12C925.598 282.12 924.518 281.848 923.558 281.304C922.614 280.76 921.87 280.008 921.326 279.048C920.782 278.072 920.51 276.952 920.51 275.688C920.51 274.408 920.782 273.288 921.326 272.328C921.87 271.368 922.614 270.624 923.558 270.096C924.518 269.552 925.598 269.28 926.798 269.28C927.902 269.28 928.886 269.528 929.75 270.024C930.63 270.52 931.326 271.248 931.838 272.208C932.366 273.152 932.63 274.312 932.63 275.688C932.63 277.048 932.374 278.208 931.862 279.168C931.35 280.128 930.654 280.864 929.774 281.376C928.91 281.872 927.918 282.12 926.798 282.12ZM926.918 280.608C927.814 280.608 928.614 280.408 929.318 280.008C930.038 279.592 930.598 279.016 930.998 278.28C931.414 277.528 931.622 276.664 931.622 275.688C931.622 274.696 931.414 273.832 930.998 273.096C930.598 272.36 930.038 271.792 929.318 271.392C928.614 270.976 927.814 270.768 926.918 270.768C926.038 270.768 925.246 270.976 924.542 271.392C923.838 271.792 923.278 272.36 922.862 273.096C922.446 273.832 922.238 274.696 922.238 275.688C922.238 276.664 922.446 277.528 922.862 278.28C923.278 279.016 923.838 279.592 924.542 280.008C925.246 280.408 926.038 280.608 926.918 280.608ZM931.67 282V278.208L931.838 275.664L931.598 273.12V264.192H933.302V282H931.67ZM938.048 282V269.4H939.752V282H938.048ZM938.912 266.616C938.56 266.616 938.264 266.496 938.024 266.256C937.784 266.016 937.664 265.728 937.664 265.392C937.664 265.056 937.784 264.776 938.024 264.552C938.264 264.312 938.56 264.192 938.912 264.192C939.264 264.192 939.56 264.304 939.8 264.528C940.04 264.752 940.16 265.032 940.16 265.368C940.16 265.72 940.04 266.016 939.8 266.256C939.576 266.496 939.28 266.616 938.912 266.616ZM949.701 282.12C948.629 282.12 947.693 281.92 946.893 281.52C946.093 281.12 945.469 280.52 945.021 279.72C944.589 278.92 944.373 277.92 944.373 276.72V269.4H946.077V276.528C946.077 277.872 946.405 278.888 947.061 279.576C947.733 280.248 948.669 280.584 949.869 280.584C950.749 280.584 951.509 280.408 952.149 280.056C952.805 279.688 953.301 279.16 953.637 278.472C953.989 277.784 954.165 276.96 954.165 276V269.4H955.869V282H954.237V278.544L954.501 279.168C954.101 280.096 953.477 280.824 952.629 281.352C951.797 281.864 950.821 282.12 949.701 282.12ZM976.362 269.28C977.386 269.28 978.274 269.48 979.026 269.88C979.794 270.264 980.386 270.856 980.802 271.656C981.234 272.456 981.45 273.464 981.45 274.68V282H979.746V274.848C979.746 273.52 979.426 272.52 978.786 271.848C978.162 271.16 977.274 270.816 976.122 270.816C975.258 270.816 974.506 271 973.866 271.368C973.242 271.72 972.754 272.24 972.402 272.928C972.066 273.6 971.898 274.416 971.898 275.376V282H970.194V274.848C970.194 273.52 969.874 272.52 969.234 271.848C968.594 271.16 967.698 270.816 966.546 270.816C965.698 270.816 964.954 271 964.314 271.368C963.674 271.72 963.178 272.24 962.826 272.928C962.49 273.6 962.322 274.416 962.322 275.376V282H960.618V269.4H962.25V272.808L961.986 272.208C962.37 271.296 962.986 270.584 963.834 270.072C964.698 269.544 965.714 269.28 966.882 269.28C968.114 269.28 969.162 269.592 970.026 270.216C970.89 270.824 971.45 271.744 971.706 272.976L971.034 272.712C971.402 271.688 972.05 270.864 972.978 270.24C973.922 269.6 975.05 269.28 976.362 269.28Z" fill="white"/>
<path d="M1024.74 282V265.2H1031.02C1032.45 265.2 1033.67 265.432 1034.7 265.896C1035.72 266.344 1036.5 267 1037.05 267.864C1037.61 268.712 1037.89 269.744 1037.89 270.96C1037.89 272.144 1037.61 273.168 1037.05 274.032C1036.5 274.88 1035.72 275.536 1034.7 276C1033.67 276.448 1032.45 276.672 1031.02 276.672H1025.72L1026.51 275.856V282H1024.74ZM1036.21 282L1031.89 275.904H1033.81L1038.15 282H1036.21ZM1026.51 276L1025.72 275.16H1030.98C1032.66 275.16 1033.93 274.792 1034.79 274.056C1035.67 273.32 1036.11 272.288 1036.11 270.96C1036.11 269.616 1035.67 268.576 1034.79 267.84C1033.93 267.104 1032.66 266.736 1030.98 266.736H1025.72L1026.51 265.896V276ZM1047.07 282.12C1045.76 282.12 1044.61 281.848 1043.62 281.304C1042.62 280.744 1041.85 279.984 1041.29 279.024C1040.73 278.048 1040.45 276.936 1040.45 275.688C1040.45 274.44 1040.71 273.336 1041.24 272.376C1041.78 271.416 1042.52 270.664 1043.45 270.12C1044.39 269.56 1045.45 269.28 1046.62 269.28C1047.8 269.28 1048.85 269.552 1049.76 270.096C1050.69 270.624 1051.42 271.376 1051.94 272.352C1052.47 273.312 1052.74 274.424 1052.74 275.688C1052.74 275.768 1052.73 275.856 1052.71 275.952C1052.71 276.032 1052.71 276.12 1052.71 276.216H1041.74V274.944H1051.8L1051.13 275.448C1051.13 274.536 1050.93 273.728 1050.53 273.024C1050.14 272.304 1049.62 271.744 1048.94 271.344C1048.27 270.944 1047.5 270.744 1046.62 270.744C1045.75 270.744 1044.98 270.944 1044.29 271.344C1043.6 271.744 1043.06 272.304 1042.68 273.024C1042.3 273.744 1042.1 274.568 1042.1 275.496V275.76C1042.1 276.72 1042.31 277.568 1042.73 278.304C1043.16 279.024 1043.75 279.592 1044.5 280.008C1045.27 280.408 1046.14 280.608 1047.12 280.608C1047.89 280.608 1048.6 280.472 1049.26 280.2C1049.93 279.928 1050.5 279.512 1050.98 278.952L1051.94 280.056C1051.38 280.728 1050.68 281.24 1049.83 281.592C1049 281.944 1048.08 282.12 1047.07 282.12ZM1061.58 286.776C1060.43 286.776 1059.32 286.608 1058.27 286.272C1057.21 285.936 1056.36 285.456 1055.7 284.832L1056.56 283.536C1057.16 284.064 1057.88 284.48 1058.75 284.784C1059.63 285.104 1060.56 285.264 1061.53 285.264C1063.13 285.264 1064.31 284.888 1065.06 284.136C1065.81 283.4 1066.19 282.248 1066.19 280.68V277.536L1066.43 275.376L1066.26 273.216V269.4H1067.89V280.464C1067.89 282.64 1067.36 284.232 1066.28 285.24C1065.23 286.264 1063.66 286.776 1061.58 286.776ZM1061.27 281.52C1060.07 281.52 1058.99 281.264 1058.03 280.752C1057.07 280.224 1056.31 279.496 1055.75 278.568C1055.2 277.64 1054.93 276.576 1054.93 275.376C1054.93 274.176 1055.2 273.12 1055.75 272.208C1056.31 271.28 1057.07 270.56 1058.03 270.048C1058.99 269.536 1060.07 269.28 1061.27 269.28C1062.39 269.28 1063.4 269.512 1064.29 269.976C1065.19 270.44 1065.9 271.128 1066.43 272.04C1066.96 272.952 1067.22 274.064 1067.22 275.376C1067.22 276.688 1066.96 277.8 1066.43 278.712C1065.9 279.624 1065.19 280.32 1064.29 280.8C1063.4 281.28 1062.39 281.52 1061.27 281.52ZM1061.44 280.008C1062.36 280.008 1063.19 279.816 1063.91 279.432C1064.63 279.032 1065.2 278.488 1065.61 277.8C1066.03 277.096 1066.24 276.288 1066.24 275.376C1066.24 274.464 1066.03 273.664 1065.61 272.976C1065.2 272.288 1064.63 271.752 1063.91 271.368C1063.19 270.968 1062.36 270.768 1061.44 270.768C1060.52 270.768 1059.7 270.968 1058.96 271.368C1058.24 271.752 1057.68 272.288 1057.26 272.976C1056.86 273.664 1056.66 274.464 1056.66 275.376C1056.66 276.288 1056.86 277.096 1057.26 277.8C1057.68 278.488 1058.24 279.032 1058.96 279.432C1059.7 279.816 1060.52 280.008 1061.44 280.008ZM1077.84 282.12C1076.77 282.12 1075.83 281.92 1075.03 281.52C1074.23 281.12 1073.61 280.52 1073.16 279.72C1072.73 278.92 1072.51 277.92 1072.51 276.72V269.4H1074.22V276.528C1074.22 277.872 1074.55 278.888 1075.2 279.576C1075.87 280.248 1076.81 280.584 1078.01 280.584C1078.89 280.584 1079.65 280.408 1080.29 280.056C1080.95 279.688 1081.44 279.16 1081.78 278.472C1082.13 277.784 1082.31 276.96 1082.31 276V269.4H1084.01V282H1082.38V278.544L1082.64 279.168C1082.24 280.096 1081.62 280.824 1080.77 281.352C1079.94 281.864 1078.96 282.12 1077.84 282.12ZM1088.76 282V264.192H1090.46V282H1088.76ZM1103.1 282V279.216L1103.03 278.76V274.104C1103.03 273.032 1102.72 272.208 1102.12 271.632C1101.52 271.056 1100.64 270.768 1099.45 270.768C1098.64 270.768 1097.86 270.904 1097.12 271.176C1096.39 271.448 1095.76 271.808 1095.25 272.256L1094.48 270.984C1095.12 270.44 1095.89 270.024 1096.79 269.736C1097.68 269.432 1098.63 269.28 1099.62 269.28C1101.25 269.28 1102.51 269.688 1103.39 270.504C1104.28 271.304 1104.73 272.528 1104.73 274.176V282H1103.1ZM1098.76 282.12C1097.81 282.12 1096.99 281.968 1096.28 281.664C1095.6 281.344 1095.07 280.912 1094.7 280.368C1094.33 279.808 1094.15 279.168 1094.15 278.448C1094.15 277.792 1094.3 277.2 1094.6 276.672C1094.92 276.128 1095.44 275.696 1096.14 275.376C1096.86 275.04 1097.82 274.872 1099.02 274.872H1103.36V276.144H1099.07C1097.85 276.144 1097 276.36 1096.52 276.792C1096.06 277.224 1095.83 277.76 1095.83 278.4C1095.83 279.12 1096.11 279.696 1096.67 280.128C1097.23 280.56 1098.01 280.776 1099.02 280.776C1099.98 280.776 1100.8 280.56 1101.49 280.128C1102.2 279.68 1102.71 279.04 1103.03 278.208L1103.41 279.384C1103.09 280.216 1102.53 280.88 1101.73 281.376C1100.95 281.872 1099.96 282.12 1098.76 282.12ZM1109.36 282V269.4H1110.99V272.832L1110.82 272.232C1111.18 271.272 1111.77 270.544 1112.6 270.048C1113.43 269.536 1114.46 269.28 1115.7 269.28V270.936C1115.63 270.936 1115.57 270.936 1115.5 270.936C1115.44 270.92 1115.38 270.912 1115.31 270.912C1113.98 270.912 1112.94 271.32 1112.19 272.136C1111.44 272.936 1111.06 274.08 1111.06 275.568V282H1109.36Z" fill="white"/>
<path d="M69.3535 282L182.354 107H222.604L265.604 282H225.104L191.104 127H207.104L112.604 282H69.3535ZM116.104 244.5L132.604 213.75H222.854L227.604 244.5H116.104ZM340.789 284C330.456 284 320.872 281.667 312.039 277C303.206 272.167 296.122 265.25 290.789 256.25C285.456 247.25 282.789 236.417 282.789 223.75C282.789 212.417 284.622 202 288.289 192.5C292.122 183 297.456 174.75 304.289 167.75C311.122 160.75 319.039 155.333 328.039 151.5C337.039 147.5 346.706 145.5 357.039 145.5C368.206 145.5 377.789 147.583 385.789 151.75C393.789 155.917 399.706 162.417 403.539 171.25C407.539 179.917 408.956 191.167 407.789 205C406.956 220.833 403.706 234.75 398.039 246.75C392.372 258.583 384.706 267.75 375.039 274.25C365.539 280.75 354.122 284 340.789 284ZM352.789 251.75C360.456 251.75 367.206 249.917 373.039 246.25C379.039 242.417 383.706 237.25 387.039 230.75C390.539 224.083 392.289 216.333 392.289 207.5C392.289 198.333 389.539 191.083 384.039 185.75C378.706 180.417 371.206 177.75 361.539 177.75C354.039 177.75 347.289 179.667 341.289 183.5C335.289 187.167 330.539 192.333 327.039 199C323.706 205.5 322.039 213.167 322.039 222C322.039 231.167 324.706 238.417 330.039 243.75C335.539 249.083 343.122 251.75 352.789 251.75ZM379.539 282L384.789 255.25L393.539 215.25L398.789 175.25L404.289 147.5H443.289L416.539 282H379.539Z" fill="#5D14AD"/>
<rect x="40" y="421" width="280" height="180" rx="40" fill="#5D14AD"/>
<path d="M78.2585 568L81.1222 550.545H83.1676L80.304 568H78.2585ZM70.358 563.33L70.6903 561.284H83.9176L83.5852 563.33H70.358ZM72.1222 568L74.9858 550.545H77.0312L74.1676 568H72.1222ZM71.3722 557.261L71.7045 555.216H84.9318L84.5994 557.261H71.3722ZM92.7216 568.239C91.6534 568.239 90.6932 568.034 89.8409 567.625C88.9943 567.21 88.3182 566.642 87.8125 565.92C87.3068 565.199 87.0369 564.375 87.0028 563.449H89.5597C89.6222 564.199 89.9545 564.815 90.5568 565.298C91.1591 565.781 91.8807 566.023 92.7216 566.023C93.392 566.023 93.9858 565.869 94.5028 565.562C95.0256 565.25 95.4347 564.821 95.7301 564.276C96.0313 563.73 96.1818 563.108 96.1818 562.409C96.1818 561.699 96.0284 561.065 95.7216 560.509C95.4148 559.952 94.9915 559.514 94.4517 559.196C93.9176 558.878 93.304 558.716 92.6108 558.71C92.0824 558.71 91.5511 558.801 91.017 558.983C90.483 559.165 90.0511 559.403 89.7216 559.699L87.3097 559.341L88.2898 550.545H97.8864V552.804H90.4801L89.9261 557.688H90.0284C90.3693 557.358 90.821 557.082 91.3835 556.861C91.9517 556.639 92.5597 556.528 93.2074 556.528C94.2699 556.528 95.2159 556.781 96.0455 557.287C96.8807 557.793 97.5369 558.483 98.0142 559.358C98.4972 560.227 98.7358 561.227 98.7301 562.358C98.7358 563.489 98.4801 564.497 97.9631 565.384C97.4517 566.27 96.7415 566.969 95.8324 567.48C94.929 567.986 93.892 568.239 92.7216 568.239ZM107.732 568H102.082V550.545H107.911C109.621 550.545 111.09 550.895 112.317 551.594C113.545 552.287 114.485 553.284 115.138 554.585C115.798 555.881 116.127 557.435 116.127 559.247C116.127 561.065 115.795 562.628 115.13 563.935C114.471 565.241 113.516 566.247 112.266 566.952C111.016 567.651 109.505 568 107.732 568ZM104.715 565.699H107.587C108.917 565.699 110.022 565.449 110.903 564.949C111.783 564.443 112.442 563.713 112.88 562.759C113.317 561.798 113.536 560.628 113.536 559.247C113.536 557.878 113.317 556.716 112.88 555.761C112.448 554.807 111.803 554.082 110.945 553.588C110.087 553.094 109.022 552.847 107.749 552.847H104.715V565.699ZM125.786 550.545V568H123.143V553.188H123.041L118.865 555.915V553.392L123.22 550.545H125.786ZM130.141 564.591V562.46L137.683 550.545H139.362V553.682H138.297L132.902 562.222V562.358H143.24V564.591H130.141ZM138.416 568V563.943L138.433 562.972V550.545H140.93V568H138.416ZM147.923 568H145.128L151.409 550.545H154.452L160.733 568H157.938L153.003 553.716H152.866L147.923 568ZM148.392 561.165H157.46V563.381H148.392V561.165ZM168.904 568H163.254V550.545H169.083C170.793 550.545 172.262 550.895 173.489 551.594C174.717 552.287 175.657 553.284 176.31 554.585C176.969 555.881 177.299 557.435 177.299 559.247C177.299 561.065 176.967 562.628 176.302 563.935C175.643 565.241 174.688 566.247 173.438 566.952C172.188 567.651 170.677 568 168.904 568ZM165.887 565.699H168.759C170.089 565.699 171.194 565.449 172.075 564.949C172.955 564.443 173.614 563.713 174.052 562.759C174.489 561.798 174.708 560.628 174.708 559.247C174.708 557.878 174.489 556.716 174.052 555.761C173.62 554.807 172.975 554.082 172.117 553.588C171.259 553.094 170.194 552.847 168.921 552.847H165.887V565.699Z" fill="white"/>
<rect x="580" y="421" width="180" height="180" rx="40" fill="#9D71C6"/>
<path d="M618.259 568L621.122 550.545H623.168L620.304 568H618.259ZM610.358 563.33L610.69 561.284H623.918L623.585 563.33H610.358ZM612.122 568L614.986 550.545H617.031L614.168 568H612.122ZM611.372 557.261L611.705 555.216H624.932L624.599 557.261H611.372ZM632.764 550.307C633.543 550.312 634.31 550.455 635.065 550.733C635.821 551.011 636.503 551.466 637.111 552.097C637.724 552.727 638.213 553.58 638.577 554.653C638.946 555.722 639.134 557.051 639.139 558.642C639.139 560.17 638.986 561.531 638.679 562.724C638.372 563.912 637.932 564.915 637.358 565.733C636.79 566.551 636.099 567.173 635.287 567.599C634.474 568.026 633.56 568.239 632.543 568.239C631.503 568.239 630.58 568.034 629.773 567.625C628.966 567.216 628.31 566.651 627.804 565.929C627.298 565.202 626.983 564.366 626.858 563.423H629.457C629.628 564.173 629.974 564.781 630.497 565.247C631.026 565.707 631.707 565.938 632.543 565.938C633.821 565.938 634.818 565.381 635.534 564.267C636.25 563.148 636.611 561.585 636.616 559.58H636.48C636.185 560.068 635.815 560.489 635.372 560.841C634.935 561.193 634.443 561.466 633.898 561.659C633.352 561.852 632.77 561.949 632.151 561.949C631.145 561.949 630.23 561.702 629.406 561.207C628.582 560.713 627.926 560.034 627.438 559.17C626.949 558.307 626.705 557.321 626.705 556.213C626.705 555.111 626.955 554.111 627.455 553.213C627.96 552.315 628.665 551.605 629.568 551.082C630.477 550.554 631.543 550.295 632.764 550.307ZM632.773 552.523C632.108 552.523 631.509 552.687 630.974 553.017C630.446 553.341 630.028 553.781 629.722 554.338C629.415 554.889 629.261 555.503 629.261 556.179C629.261 556.855 629.409 557.469 629.705 558.02C630.006 558.565 630.415 559 630.932 559.324C631.455 559.642 632.051 559.801 632.722 559.801C633.222 559.801 633.688 559.705 634.119 559.511C634.551 559.318 634.929 559.051 635.253 558.71C635.577 558.364 635.83 557.972 636.011 557.534C636.193 557.097 636.284 556.636 636.284 556.153C636.284 555.511 636.131 554.915 635.824 554.364C635.523 553.812 635.108 553.369 634.58 553.034C634.051 552.693 633.449 552.523 632.773 552.523ZM648.107 568H642.457V550.545H648.286C649.996 550.545 651.465 550.895 652.692 551.594C653.92 552.287 654.86 553.284 655.513 554.585C656.173 555.881 656.502 557.435 656.502 559.247C656.502 561.065 656.17 562.628 655.505 563.935C654.846 565.241 653.891 566.247 652.641 566.952C651.391 567.651 649.88 568 648.107 568ZM645.09 565.699H647.962C649.292 565.699 650.397 565.449 651.278 564.949C652.158 564.443 652.817 563.713 653.255 562.759C653.692 561.798 653.911 560.628 653.911 559.247C653.911 557.878 653.692 556.716 653.255 555.761C652.823 554.807 652.178 554.082 651.32 553.588C650.462 553.094 649.397 552.847 648.124 552.847H645.09V565.699ZM660.126 568L667.746 552.932V552.804H658.933V550.545H670.473V552.881L662.879 568H660.126ZM680.059 550.545V568H677.417V553.188H677.315L673.138 555.915V553.392L677.494 550.545H680.059ZM699.516 556.222H696.857C696.755 555.653 696.565 555.153 696.286 554.722C696.008 554.29 695.667 553.923 695.263 553.622C694.86 553.321 694.408 553.094 693.908 552.94C693.414 552.787 692.888 552.71 692.332 552.71C691.326 552.71 690.425 552.963 689.63 553.469C688.84 553.974 688.215 554.716 687.755 555.693C687.3 556.67 687.073 557.864 687.073 559.273C687.073 560.693 687.3 561.892 687.755 562.869C688.215 563.847 688.843 564.585 689.638 565.085C690.434 565.585 691.329 565.835 692.323 565.835C692.874 565.835 693.397 565.761 693.891 565.614C694.391 565.46 694.843 565.236 695.246 564.94C695.65 564.645 695.991 564.284 696.269 563.858C696.553 563.426 696.749 562.932 696.857 562.375L699.516 562.384C699.374 563.241 699.099 564.031 698.69 564.753C698.286 565.469 697.766 566.088 697.13 566.611C696.499 567.128 695.778 567.528 694.965 567.812C694.153 568.097 693.266 568.239 692.306 568.239C690.795 568.239 689.448 567.881 688.266 567.165C687.085 566.443 686.153 565.412 685.471 564.071C684.795 562.73 684.457 561.131 684.457 559.273C684.457 557.409 684.798 555.81 685.479 554.474C686.161 553.134 687.093 552.105 688.275 551.389C689.457 550.668 690.8 550.307 692.306 550.307C693.232 550.307 694.096 550.44 694.897 550.707C695.704 550.969 696.428 551.355 697.07 551.866C697.712 552.372 698.244 552.991 698.664 553.724C699.085 554.452 699.369 555.284 699.516 556.222ZM708.523 568.239C707.744 568.227 706.977 568.085 706.222 567.812C705.472 567.54 704.79 567.085 704.176 566.449C703.563 565.812 703.071 564.957 702.702 563.884C702.338 562.81 702.156 561.469 702.156 559.861C702.156 558.338 702.307 556.986 702.608 555.804C702.915 554.622 703.355 553.625 703.929 552.812C704.503 551.994 705.196 551.372 706.009 550.946C706.821 550.52 707.733 550.307 708.744 550.307C709.784 550.307 710.707 550.511 711.514 550.92C712.321 551.33 712.974 551.895 713.474 552.616C713.98 553.338 714.301 554.159 714.438 555.08H711.838C711.662 554.352 711.313 553.759 710.79 553.298C710.267 552.838 709.585 552.608 708.744 552.608C707.466 552.608 706.469 553.165 705.753 554.278C705.043 555.392 704.685 556.94 704.679 558.923H704.807C705.108 558.429 705.477 558.009 705.915 557.662C706.358 557.31 706.852 557.04 707.398 556.852C707.949 556.659 708.528 556.562 709.136 556.562C710.148 556.562 711.063 556.81 711.881 557.304C712.705 557.793 713.361 558.469 713.849 559.332C714.338 560.196 714.582 561.185 714.582 562.298C714.582 563.412 714.33 564.42 713.824 565.324C713.324 566.227 712.619 566.943 711.71 567.472C710.801 567.994 709.739 568.25 708.523 568.239ZM708.514 566.023C709.185 566.023 709.784 565.858 710.312 565.528C710.841 565.199 711.259 564.756 711.565 564.199C711.872 563.642 712.026 563.02 712.026 562.332C712.026 561.662 711.875 561.051 711.574 560.5C711.278 559.949 710.869 559.511 710.347 559.188C709.83 558.864 709.239 558.702 708.574 558.702C708.068 558.702 707.599 558.798 707.168 558.991C706.741 559.185 706.366 559.452 706.043 559.793C705.719 560.134 705.463 560.526 705.276 560.969C705.094 561.406 705.003 561.869 705.003 562.358C705.003 563.011 705.153 563.616 705.455 564.173C705.761 564.73 706.179 565.179 706.707 565.52C707.241 565.855 707.844 566.023 708.514 566.023Z" fill="white"/>
<rect x="360" y="421" width="180" height="180" rx="40" fill="#9747FF"/>
<path d="M398.259 568L401.122 550.545H403.168L400.304 568H398.259ZM390.358 563.33L390.69 561.284H403.918L403.585 563.33H390.358ZM392.122 568L394.986 550.545H397.031L394.168 568H392.122ZM391.372 557.261L391.705 555.216H404.932L404.599 557.261H391.372ZM412.764 550.307C413.543 550.312 414.31 550.455 415.065 550.733C415.821 551.011 416.503 551.466 417.111 552.097C417.724 552.727 418.213 553.58 418.577 554.653C418.946 555.722 419.134 557.051 419.139 558.642C419.139 560.17 418.986 561.531 418.679 562.724C418.372 563.912 417.932 564.915 417.358 565.733C416.79 566.551 416.099 567.173 415.287 567.599C414.474 568.026 413.56 568.239 412.543 568.239C411.503 568.239 410.58 568.034 409.773 567.625C408.966 567.216 408.31 566.651 407.804 565.929C407.298 565.202 406.983 564.366 406.858 563.423H409.457C409.628 564.173 409.974 564.781 410.497 565.247C411.026 565.707 411.707 565.938 412.543 565.938C413.821 565.938 414.818 565.381 415.534 564.267C416.25 563.148 416.611 561.585 416.616 559.58H416.48C416.185 560.068 415.815 560.489 415.372 560.841C414.935 561.193 414.443 561.466 413.898 561.659C413.352 561.852 412.77 561.949 412.151 561.949C411.145 561.949 410.23 561.702 409.406 561.207C408.582 560.713 407.926 560.034 407.438 559.17C406.949 558.307 406.705 557.321 406.705 556.213C406.705 555.111 406.955 554.111 407.455 553.213C407.96 552.315 408.665 551.605 409.568 551.082C410.477 550.554 411.543 550.295 412.764 550.307ZM412.773 552.523C412.108 552.523 411.509 552.687 410.974 553.017C410.446 553.341 410.028 553.781 409.722 554.338C409.415 554.889 409.261 555.503 409.261 556.179C409.261 556.855 409.409 557.469 409.705 558.02C410.006 558.565 410.415 559 410.932 559.324C411.455 559.642 412.051 559.801 412.722 559.801C413.222 559.801 413.688 559.705 414.119 559.511C414.551 559.318 414.929 559.051 415.253 558.71C415.577 558.364 415.83 557.972 416.011 557.534C416.193 557.097 416.284 556.636 416.284 556.153C416.284 555.511 416.131 554.915 415.824 554.364C415.523 553.812 415.108 553.369 414.58 553.034C414.051 552.693 413.449 552.523 412.773 552.523ZM422.337 568L429.957 552.932V552.804H421.144V550.545H432.684V552.881L425.09 568H422.337ZM433.875 564.591V562.46L441.418 550.545H443.097V553.682H442.031L436.636 562.222V562.358H446.974V564.591H433.875ZM442.151 568V563.943L442.168 562.972V550.545H444.665V568H442.151ZM450.533 568L458.152 552.932V552.804H449.339V550.545H460.879V552.881L453.286 568H450.533ZM464.082 568V550.545H474.906V552.812H466.715V558.131H474.13V560.389H466.715V568H464.082ZM478.144 568V550.545H488.968V552.812H480.778V558.131H488.192V560.389H480.778V568H478.144Z" fill="white"/>
<rect x="800" y="421" width="180" height="180" rx="40" fill="#D198FF"/>
<path d="M838.259 568L841.122 550.545H843.168L840.304 568H838.259ZM830.358 563.33L830.69 561.284H843.918L843.585 563.33H830.358ZM832.122 568L834.986 550.545H837.031L834.168 568H832.122ZM831.372 557.261L831.705 555.216H844.932L844.599 557.261H831.372ZM852.849 568H847.199V550.545H853.028C854.739 550.545 856.207 550.895 857.435 551.594C858.662 552.287 859.602 553.284 860.256 554.585C860.915 555.881 861.244 557.435 861.244 559.247C861.244 561.065 860.912 562.628 860.247 563.935C859.588 565.241 858.634 566.247 857.384 566.952C856.134 567.651 854.622 568 852.849 568ZM849.832 565.699H852.705C854.034 565.699 855.139 565.449 856.02 564.949C856.901 564.443 857.56 563.713 857.997 562.759C858.435 561.798 858.653 560.628 858.653 559.247C858.653 557.878 858.435 556.716 857.997 555.761C857.565 554.807 856.92 554.082 856.062 553.588C855.205 553.094 854.139 552.847 852.866 552.847H849.832V565.699ZM870.903 550.545V568H868.261V553.188H868.158L863.982 555.915V553.392L868.337 550.545H870.903ZM881.428 550.307C882.207 550.312 882.974 550.455 883.729 550.733C884.485 551.011 885.167 551.466 885.775 552.097C886.388 552.727 886.877 553.58 887.241 554.653C887.61 555.722 887.798 557.051 887.803 558.642C887.803 560.17 887.65 561.531 887.343 562.724C887.036 563.912 886.596 564.915 886.022 565.733C885.454 566.551 884.763 567.173 883.951 567.599C883.138 568.026 882.224 568.239 881.207 568.239C880.167 568.239 879.244 568.034 878.437 567.625C877.63 567.216 876.974 566.651 876.468 565.929C875.962 565.202 875.647 564.366 875.522 563.423H878.121C878.292 564.173 878.638 564.781 879.161 565.247C879.69 565.707 880.371 565.938 881.207 565.938C882.485 565.938 883.482 565.381 884.198 564.267C884.914 563.148 885.275 561.585 885.281 559.58H885.144C884.849 560.068 884.479 560.489 884.036 560.841C883.599 561.193 883.107 561.466 882.562 561.659C882.016 561.852 881.434 561.949 880.815 561.949C879.809 561.949 878.894 561.702 878.07 561.207C877.246 560.713 876.59 560.034 876.102 559.17C875.613 558.307 875.369 557.321 875.369 556.213C875.369 555.111 875.619 554.111 876.119 553.213C876.624 552.315 877.329 551.605 878.232 551.082C879.141 550.554 880.207 550.295 881.428 550.307ZM881.437 552.523C880.772 552.523 880.173 552.687 879.638 553.017C879.11 553.341 878.692 553.781 878.386 554.338C878.079 554.889 877.925 555.503 877.925 556.179C877.925 556.855 878.073 557.469 878.369 558.02C878.67 558.565 879.079 559 879.596 559.324C880.119 559.642 880.715 559.801 881.386 559.801C881.886 559.801 882.352 559.705 882.783 559.511C883.215 559.318 883.593 559.051 883.917 558.71C884.241 558.364 884.494 557.972 884.675 557.534C884.857 557.097 884.948 556.636 884.948 556.153C884.948 555.511 884.795 554.915 884.488 554.364C884.187 553.812 883.772 553.369 883.244 553.034C882.715 552.693 882.113 552.523 881.437 552.523ZM896.78 568.239C895.558 568.239 894.479 568.028 893.541 567.608C892.609 567.187 891.879 566.608 891.351 565.869C890.822 565.131 890.561 564.29 890.567 563.347C890.561 562.608 890.712 561.929 891.018 561.31C891.331 560.685 891.754 560.165 892.288 559.75C892.822 559.33 893.419 559.062 894.078 558.949V558.847C893.209 558.636 892.513 558.17 891.99 557.449C891.467 556.727 891.209 555.898 891.214 554.96C891.209 554.068 891.445 553.273 891.922 552.574C892.405 551.869 893.067 551.315 893.908 550.912C894.749 550.509 895.706 550.307 896.78 550.307C897.842 550.307 898.791 550.511 899.626 550.92C900.467 551.324 901.129 551.878 901.612 552.582C902.095 553.281 902.339 554.074 902.345 554.96C902.339 555.898 902.072 556.727 901.544 557.449C901.016 558.17 900.328 558.636 899.482 558.847V558.949C900.135 559.062 900.723 559.33 901.246 559.75C901.774 560.165 902.195 560.685 902.507 561.31C902.825 561.929 902.987 562.608 902.993 563.347C902.987 564.29 902.72 565.131 902.192 565.869C901.663 566.608 900.93 567.187 899.993 567.608C899.061 568.028 897.99 568.239 896.78 568.239ZM896.78 566.082C897.501 566.082 898.126 565.963 898.655 565.724C899.183 565.48 899.592 565.142 899.882 564.71C900.172 564.273 900.32 563.761 900.325 563.176C900.32 562.568 900.161 562.031 899.848 561.565C899.541 561.099 899.124 560.733 898.595 560.466C898.067 560.199 897.462 560.065 896.78 560.065C896.092 560.065 895.482 560.199 894.947 560.466C894.413 560.733 893.993 561.099 893.686 561.565C893.379 562.031 893.229 562.568 893.234 563.176C893.229 563.761 893.368 564.273 893.652 564.71C893.942 565.142 894.354 565.48 894.888 565.724C895.422 565.963 896.053 566.082 896.78 566.082ZM896.78 557.96C897.359 557.96 897.874 557.844 898.322 557.611C898.771 557.378 899.124 557.054 899.379 556.639C899.641 556.224 899.774 555.739 899.78 555.182C899.774 554.636 899.643 554.159 899.388 553.75C899.138 553.341 898.788 553.026 898.339 552.804C897.891 552.577 897.371 552.463 896.78 552.463C896.178 552.463 895.649 552.577 895.195 552.804C894.746 553.026 894.396 553.341 894.146 553.75C893.896 554.159 893.774 554.636 893.78 555.182C893.774 555.739 893.899 556.224 894.155 556.639C894.411 557.054 894.763 557.378 895.212 557.611C895.666 557.844 896.189 557.96 896.78 557.96ZM906.285 568V550.545H917.109V552.812H908.918V558.131H916.333V560.389H908.918V568H906.285ZM920.347 568V550.545H931.171V552.812H922.981V558.131H930.396V560.389H922.981V568H920.347Z" fill="black"/>
<rect x="1020" y="421" width="180" height="180" rx="40" fill="#EDCBFF"/>
<path d="M1058.26 568L1061.12 550.545H1063.17L1060.3 568H1058.26ZM1050.36 563.33L1050.69 561.284H1063.92L1063.59 563.33H1050.36ZM1052.12 568L1054.99 550.545H1057.03L1054.17 568H1052.12ZM1051.37 557.261L1051.7 555.216H1064.93L1064.6 557.261H1051.37ZM1067.2 568V550.545H1078.14V552.812H1069.83V558.131H1077.57V560.389H1069.83V565.733H1078.24V568H1067.2ZM1087.31 568H1081.66V550.545H1087.49C1089.2 550.545 1090.67 550.895 1091.9 551.594C1093.12 552.287 1094.06 553.284 1094.72 554.585C1095.38 555.881 1095.71 557.435 1095.71 559.247C1095.71 561.065 1095.37 562.628 1094.71 563.935C1094.05 565.241 1093.09 566.247 1091.84 566.952C1090.59 567.651 1089.08 568 1087.31 568ZM1084.29 565.699H1087.17C1088.5 565.699 1089.6 565.449 1090.48 564.949C1091.36 564.443 1092.02 563.713 1092.46 562.759C1092.9 561.798 1093.11 560.628 1093.11 559.247C1093.11 557.878 1092.9 556.716 1092.46 555.761C1092.03 554.807 1091.38 554.082 1090.52 553.588C1089.67 553.094 1088.6 552.847 1087.33 552.847H1084.29V565.699ZM1113.48 556.222H1110.82C1110.72 555.653 1110.53 555.153 1110.25 554.722C1109.97 554.29 1109.63 553.923 1109.22 553.622C1108.82 553.321 1108.37 553.094 1107.87 552.94C1107.38 552.787 1106.85 552.71 1106.29 552.71C1105.29 552.71 1104.39 552.963 1103.59 553.469C1102.8 553.974 1102.18 554.716 1101.72 555.693C1101.26 556.67 1101.03 557.864 1101.03 559.273C1101.03 560.693 1101.26 561.892 1101.72 562.869C1102.18 563.847 1102.8 564.585 1103.6 565.085C1104.39 565.585 1105.29 565.835 1106.28 565.835C1106.84 565.835 1107.36 565.761 1107.85 565.614C1108.35 565.46 1108.8 565.236 1109.21 564.94C1109.61 564.645 1109.95 564.284 1110.23 563.858C1110.51 563.426 1110.71 562.932 1110.82 562.375L1113.48 562.384C1113.34 563.241 1113.06 564.031 1112.65 564.753C1112.25 565.469 1111.73 566.088 1111.09 566.611C1110.46 567.128 1109.74 567.528 1108.93 567.812C1108.11 568.097 1107.23 568.239 1106.27 568.239C1104.76 568.239 1103.41 567.881 1102.23 567.165C1101.05 566.443 1100.11 565.412 1099.43 564.071C1098.76 562.73 1098.42 561.131 1098.42 559.273C1098.42 557.409 1098.76 555.81 1099.44 554.474C1100.12 553.134 1101.05 552.105 1102.24 551.389C1103.42 550.668 1104.76 550.307 1106.27 550.307C1107.19 550.307 1108.06 550.44 1108.86 550.707C1109.66 550.969 1110.39 551.355 1111.03 551.866C1111.67 552.372 1112.2 552.991 1112.62 553.724C1113.05 554.452 1113.33 555.284 1113.48 556.222ZM1116.63 568V550.545H1123.02C1124.26 550.545 1125.28 550.75 1126.1 551.159C1126.91 551.562 1127.52 552.111 1127.92 552.804C1128.32 553.491 1128.53 554.267 1128.53 555.131C1128.53 555.858 1128.39 556.472 1128.13 556.972C1127.86 557.466 1127.5 557.864 1127.05 558.165C1126.61 558.46 1126.12 558.676 1125.59 558.812V558.983C1126.17 559.011 1126.73 559.199 1127.28 559.545C1127.84 559.886 1128.3 560.372 1128.66 561.003C1129.03 561.634 1129.21 562.401 1129.21 563.304C1129.21 564.196 1129 564.997 1128.58 565.707C1128.16 566.412 1127.52 566.972 1126.65 567.386C1125.78 567.795 1124.67 568 1123.32 568H1116.63ZM1119.26 565.741H1123.06C1124.32 565.741 1125.23 565.497 1125.77 565.009C1126.32 564.52 1126.59 563.909 1126.59 563.176C1126.59 562.625 1126.45 562.119 1126.17 561.659C1125.9 561.199 1125.5 560.832 1124.98 560.56C1124.47 560.287 1123.86 560.151 1123.16 560.151H1119.26V565.741ZM1119.26 558.097H1122.79C1123.38 558.097 1123.91 557.983 1124.38 557.756C1124.86 557.528 1125.24 557.21 1125.52 556.801C1125.8 556.386 1125.94 555.898 1125.94 555.335C1125.94 554.614 1125.69 554.009 1125.19 553.52C1124.68 553.031 1123.9 552.787 1122.86 552.787H1119.26V558.097ZM1132.33 568V550.545H1143.16V552.812H1134.97V558.131H1142.38V560.389H1134.97V568H1132.33ZM1146.39 568V550.545H1157.22V552.812H1149.03V558.131H1156.44V560.389H1149.03V568H1146.39Z" fill="black"/>
</svg>
