<svg width="346" height="162" viewBox="0 0 346 162" fill="none" xmlns="http://www.w3.org/2000/svg">
<path d="M11.1797 19.1045L7.82033 15.5713L7.81935 15.5713L8.90724 14.5381L7.22755 12.7715C6.80588 12.3105 6.40776 11.8516 6.03322 11.3935L4.87306 12.3427C4.01881 11.2981 3.27359 10.249 2.63966 9.18649L3.92579 8.41794C3.28921 7.35081 2.77986 6.27995 2.39552 5.19431L0.984389 5.69431C0.551836 4.47256 0.259144 3.22289 0.112319 1.93161L1.60158 1.76169C1.5917 1.67476 1.58463 1.58739 1.57619 1.49997L1.65333 1.49997L1.65333 -3.01037e-05L4.95802 -2.98148e-05L4.95802 1.49997L8.53126 1.49997L8.53126 -2.95025e-05L12.3662 -2.91672e-05L12.3662 1.49997L16.2022 1.49997L16.2022 -2.88318e-05L20.0381 -2.84965e-05L20.0381 1.49997L21.9561 1.49997C22.8822 1.49997 23.7947 1.50102 24.6983 1.50193L24.7002 0.00387816C26.5548 0.00573873 28.3713 0.00772902 30.1895 0.0107146L30.1865 1.50974C32.0011 1.51272 33.8181 1.5151 35.6768 1.5156L35.6777 0.0155979L35.6777 0.0146213C37.4575 0.0151008 39.2753 0.0128137 41.166 0.00778585L41.166 0.00973898L41.1699 1.50974C42.0682 1.50735 42.9831 1.50413 43.918 1.49997L46.3682 1.49997L46.3682 -2.61946e-05L51.2822 -2.5765e-05L51.2822 1.49997L56.1963 1.49997L56.1963 -2.53354e-05L61.1104 -2.49058e-05L61.1104 1.49998L66.0244 1.49998L66.0244 -2.44762e-05L70.9385 -2.40466e-05L70.9385 1.49998L75.8526 1.49998L75.8526 -2.3617e-05L80.7666 -2.31874e-05L80.7666 1.49998L85.6807 1.49998L85.6807 -2.27578e-05L90.5947 -2.23282e-05L90.5947 1.49998L95.5088 1.49998L95.5088 -2.18986e-05L100.423 -2.1469e-05L100.423 1.49998L105.337 1.49998L105.337 -2.10394e-05L110.251 -2.06098e-05L110.251 1.49998L115.165 1.49998L115.165 -2.01802e-05L120.079 -1.97506e-05L120.079 1.49998L124.994 1.49998L124.994 -1.93209e-05L129.908 -1.88913e-05L129.908 1.49998L134.822 1.49998L134.822 -1.84617e-05L139.736 -1.80321e-05L139.736 1.49998L144.65 1.49998L144.65 -1.76025e-05L149.564 -1.71729e-05L149.564 1.49998L154.479 1.49998L154.479 -1.67433e-05L159.393 -1.63137e-05L159.393 1.49998L164.307 1.49998L164.307 -1.58841e-05L169.221 -1.54545e-05L169.221 1.49998L174.135 1.49998L174.135 -1.50249e-05L179.049 -1.45953e-05L179.049 1.49999L183.963 1.49999L183.963 -1.41657e-05L188.877 -1.37361e-05L188.877 1.49999L193.791 1.49999L193.791 -1.33065e-05L198.705 -1.28769e-05L198.705 1.49999L203.619 1.49999L203.619 -1.24473e-05L208.533 -1.20177e-05L208.533 1.49999L213.447 1.49999L213.447 -1.15881e-05L218.361 -1.11585e-05L218.361 1.49999L223.275 1.49999L223.275 -1.07289e-05L228.189 -1.02993e-05L228.189 1.49999L233.104 1.49999L233.104 -9.86972e-06L238.018 -9.44012e-06L238.018 1.49999L242.932 1.49999L242.932 -9.01052e-06L247.846 -8.58092e-06L247.846 1.49999L252.76 1.49999L252.76 -8.15132e-06L257.674 -7.72172e-06L257.674 1.49999L262.588 1.49999L262.588 -7.29212e-06L267.502 -6.86252e-06L267.502 1.49999L272.416 1.49999L272.416 -6.43292e-06L277.33 -6.00332e-06L277.33 1.49999L282.244 1.49999L282.244 -5.57371e-06L287.158 -5.14411e-06L287.158 1.49999L292.072 1.5L292.072 -4.71451e-06L296.986 -4.28491e-06L296.986 1.5L301.893 1.5L301.893 -3.85599e-06L306.785 -3.42827e-06L306.785 1.5L311.678 1.5L311.678 -3.00055e-06L316.57 -2.57282e-06L316.57 1.5L320.97 1.5L320.97 -2.18822e-06L324.872 -1.84706e-06L324.872 1.5L328.772 1.5L328.772 -1.50608e-06L332.674 -1.16501e-06L332.674 1.5L337.471 1.5L337.471 -7.45655e-07L343.156 -2.48609e-07L343.156 1.5L344.411 1.5C344.402 1.59033 344.393 1.68059 344.382 1.77051L345.871 1.95215C345.713 3.25049 345.409 4.51511 344.966 5.75293L343.554 5.24707C343.159 6.34764 342.641 7.43436 341.997 8.51269L343.284 9.28125C342.64 10.3592 341.885 11.4206 341.021 12.4707L339.862 11.5176C339.48 11.9822 339.075 12.4472 338.645 12.9111L338.644 12.9102L336.966 14.6758L338.053 15.709L338.054 15.71L334.697 19.2402L334.696 19.2393L333.609 18.2061L330.253 21.7363L331.34 22.7695L331.341 22.7705L327.984 26.3008L327.983 26.2998L326.896 25.2666L323.54 28.7969L324.627 29.8301L324.628 29.8311L321.271 33.3613L321.271 33.3603L320.184 32.3271L316.827 35.8574L317.914 36.8906L317.915 36.8916L314.559 40.4219L313.471 39.3877L310.114 42.918L311.202 43.9521L307.846 47.4824L306.758 46.4482L303.402 49.9785L304.489 51.0127L301.133 54.543L300.046 53.5088L296.689 57.0391L297.776 58.0732L294.42 61.6035L293.333 60.5693L289.977 64.0996L291.063 65.1338L287.708 68.665L287.707 68.6641L286.62 67.6309L283.264 71.1611L284.351 72.1943L284.352 72.1953L280.995 75.7256L280.994 75.7246L279.907 74.6914L276.551 78.2217L277.638 79.2549L277.639 79.2559L274.282 82.7851L273.194 81.7519L269.838 85.2822L270.926 86.3154L267.569 89.8457L266.481 88.8125L263.126 92.3428L264.213 93.376L260.857 96.9072L260.856 96.9062L259.77 95.873L256.413 99.4033L257.5 100.437L257.501 100.437L254.145 103.968L254.144 103.967L253.057 102.934L249.7 106.464L250.787 107.497L250.788 107.498L247.432 111.028L247.431 111.027L246.344 109.994L242.987 113.524L244.074 114.559L240.718 118.089L239.631 117.055L236.274 120.585L237.361 121.619L237.362 121.62L234.006 125.15L234.005 125.149L232.918 124.115L229.562 127.645L230.649 128.68L227.293 132.21L226.205 131.176L222.85 134.706L223.937 135.74L220.58 139.27L219.493 138.237L216.137 141.768L217.224 142.801L213.867 146.331L212.78 145.298L211.103 147.063C210.571 147.617 210.007 148.158 209.414 148.687L210.412 149.806C209.22 150.869 207.918 151.878 206.515 152.826L205.674 151.583C204.397 152.446 203.03 153.26 201.58 154.019L202.276 155.348C200.854 156.092 199.359 156.782 197.798 157.415L197.234 156.025C196.868 156.174 196.497 156.319 196.123 156.461L194.989 156.877C194.12 157.185 193.236 157.476 192.338 157.746L192.771 159.182L192.771 159.183C190.968 159.726 189.113 160.191 187.22 160.58L186.918 159.111C185.109 159.483 183.263 159.782 181.391 160.006L181.568 161.493C179.687 161.718 177.781 161.87 175.861 161.944L175.803 160.446C174.871 160.483 173.937 160.501 173 160.5C172.062 160.499 171.126 160.48 170.193 160.442L170.134 161.94C168.213 161.863 166.305 161.71 164.422 161.482L164.601 159.994C162.727 159.768 160.878 159.467 159.067 159.093L158.766 160.562C156.871 160.17 155.015 159.702 153.21 159.156L153.643 157.72C152.744 157.448 151.859 157.158 150.989 156.849C150.225 156.577 149.476 156.291 148.742 155.993L148.179 157.383C146.617 156.748 145.121 156.056 143.698 155.311L144.394 153.981C142.943 153.221 141.575 152.406 140.297 151.541L139.457 152.783C138.053 151.833 136.75 150.822 135.557 149.758L136.554 148.64C135.96 148.11 135.396 147.568 134.863 147.014L134.863 147.013L133.185 145.247L132.098 146.28L128.738 142.749L128.738 142.748L129.825 141.714L126.467 138.182L125.38 139.215L125.38 139.216L122.021 135.684L122.021 135.683L123.107 134.648L119.749 131.116L118.662 132.149L118.662 132.15L115.304 128.617L115.303 128.617L116.39 127.583L113.031 124.051L111.944 125.084L111.944 125.085L108.586 121.552L108.585 121.552L109.672 120.518L106.313 116.985L105.227 118.019L105.227 118.02L101.868 114.486L101.867 114.486L102.955 113.453L99.5957 109.92L98.5088 110.953L98.5088 110.954L95.1504 107.421L95.1494 107.421L96.2373 106.388L92.8779 102.854L91.791 103.889L91.791 103.89L88.4326 100.355L88.4316 100.355L89.5195 99.3222L86.1602 95.789L85.0742 96.8232L81.7148 93.291L81.7148 93.29L82.8018 92.2568L79.4424 88.7236L78.3565 89.7578L74.9971 86.2256L74.9971 86.2246L76.084 85.1914L72.7246 81.6582L71.6387 82.6924L68.2793 79.1601L68.2793 79.1592L69.3662 78.126L66.0068 74.5937L64.9209 75.6269L61.5615 72.0957L61.5615 72.0947L62.6484 71.0605L59.2891 67.5283L58.2031 68.5615L54.8438 65.0302L54.8438 65.0293L55.9307 63.9951L52.5723 60.4629L51.4854 61.4961L48.127 57.9638L48.126 57.9638L49.2129 56.9297L45.8545 53.3974L44.7676 54.4306L41.4092 50.8984L41.4082 50.8984L42.4951 49.8642L39.1367 46.332L38.0498 47.3652L38.0498 47.3662L34.6914 43.833L34.6904 43.833L35.7774 42.7998L32.419 39.2666L31.332 40.2998L31.332 40.3008L27.9736 36.7676L27.9727 36.7676L29.0596 35.7343L25.7012 32.2011L24.6143 33.2353L24.6143 33.2363L21.2559 29.7021L21.2549 29.7021L22.3418 28.6689L18.9834 25.1357L17.8975 26.1699L14.5381 22.6367L14.5371 22.6367L15.624 21.6035L12.2656 18.0703L11.1797 19.1045Z" stroke="url(#paint0_linear_290_30398)" stroke-width="3" stroke-dasharray="5 5"/>
<defs>
<linearGradient id="paint0_linear_290_30398" x1="173" y1="1.53934e-05" x2="173" y2="162" gradientUnits="userSpaceOnUse">
<stop stop-color="#175DC2" stop-opacity="0"/>
<stop offset="1" stop-color="#175DC2"/>
</linearGradient>
</defs>
</svg>
