<svg width="346" height="162" viewBox="0 0 346 162" fill="none" xmlns="http://www.w3.org/2000/svg">
<path d="M172.998 162C180.878 162.004 188.625 160.727 195.491 158.291C202.357 155.855 208.109 152.344 212.189 148.096L339.731 13.944C343.782 9.57916 345.945 5.05646 346 3.05176e-05C341.504 3.01245e-05 340.18 3.00088e-05 334.625 2.95232e-05C329.335 2.90607e-05 326.161 2.87832e-05 319.018 2.81588e-05C311.612 2.75113e-05 307.379 2.71412e-05 299.443 2.64475e-05L43.9113 1.93669e-05C35.8945 0.0356632 29.3624 1.8095e-05 21.9557 1.74475e-05C14.8135 1.68231e-05 11.6391 1.65456e-05 6.61314 1.61062e-05C2.38072 1.57362e-05 1.58714 1.56668e-05 1.41633e-05 1.55281e-05C0.0143265 5.05193 2.13157 9.43018 6.1403 13.8052L133.777 148.047C137.862 152.3 143.616 155.818 150.486 158.262C157.356 160.706 165.109 161.993 172.998 162Z" fill="black"/>
</svg>
