<svg width="153" height="54" viewBox="0 0 153 54" fill="none" xmlns="http://www.w3.org/2000/svg">
<rect width="36.2562" height="22.1886" rx="3" transform="matrix(0.698362 0.715744 -0.698362 0.715744 17.3652 10.3533)" fill="#515151"/>
<rect width="36.2811" height="19.1821" rx="3" transform="matrix(0.698362 0.715744 -0.698362 0.715744 27.4668 0)" fill="#175DC2"/>
<path d="M56.8059 47.3974L42.8547 34.12L30.8957 34.12L43.8505 47.3974L56.8059 47.3974Z" fill="#175DC2"/>
<path d="M1 7.56543H22.7674C27.8332 7.56543 31.9294 11.6917 31.8923 16.7574H9.96872L1 7.56543Z" fill="#175DC2"/>
<rect width="21.9901" height="12.122" rx="3" transform="matrix(0.698362 0.715744 -0.698362 0.715744 26.7373 10.3557)" fill="#515151"/>
<g filter="url(#filter0_d_112_2669)">
<path d="M17.9406 24.928H45.8433C45.8433 30.0046 41.8279 34.1199 36.8746 34.1199H26.9093L17.9406 24.928Z" fill="white"/>
<path d="M34.8815 19.8213H45.8433V24.928H34.8815V19.8213Z" fill="white"/>
<path d="M49.83 44.3333L35.8787 31.0559L23.9197 31.056L36.8746 44.3333H49.83Z" fill="white"/>
<path d="M3.98926 10.6294H36.8746C41.8279 10.6294 45.8433 14.7448 45.8433 19.8213H12.958L3.98926 10.6294Z" fill="white"/>
</g>
<path d="M63.88 27V13H69.64C70.88 13 71.94 13.2 72.82 13.6C73.7133 14 74.4 14.5733 74.88 15.32C75.36 16.0667 75.6 16.9533 75.6 17.98C75.6 19.0067 75.36 19.8933 74.88 20.64C74.4 21.3733 73.7133 21.94 72.82 22.34C71.94 22.7267 70.88 22.92 69.64 22.92H65.32L66.48 21.74V27H63.88ZM73.04 27L69.5 21.92H72.28L75.84 27H73.04ZM66.48 22.02L65.32 20.78H69.52C70.6667 20.78 71.5267 20.5333 72.1 20.04C72.6867 19.5467 72.98 18.86 72.98 17.98C72.98 17.0867 72.6867 16.4 72.1 15.92C71.5267 15.44 70.6667 15.2 69.52 15.2H65.32L66.48 13.92V22.02ZM81.5089 27V13H84.1089V27H81.5089ZM94.938 27L88.818 13H91.638L97.098 25.66H95.478L100.998 13H103.598L97.498 27H94.938ZM110.475 18.82H117.435V20.96H110.475V18.82ZM110.675 24.82H118.575V27H108.075V13H118.295V15.18H110.675V24.82ZM124.474 27V13H130.234C131.474 13 132.534 13.2 133.414 13.6C134.307 14 134.994 14.5733 135.474 15.32C135.954 16.0667 136.194 16.9533 136.194 17.98C136.194 19.0067 135.954 19.8933 135.474 20.64C134.994 21.3733 134.307 21.94 133.414 22.34C132.534 22.7267 131.474 22.92 130.234 22.92H125.914L127.074 21.74V27H124.474ZM133.634 27L130.094 21.92H132.874L136.434 27H133.634ZM127.074 22.02L125.914 20.78H130.114C131.26 20.78 132.12 20.5333 132.694 20.04C133.28 19.5467 133.574 18.86 133.574 17.98C133.574 17.0867 133.28 16.4 132.694 15.92C132.12 15.44 131.26 15.2 130.114 15.2H125.914L127.074 13.92V22.02ZM144.747 27V15.2H140.107V13H151.987V15.2H147.347V27H144.747Z" fill="white"/>
<path d="M65.95 44.1C64.99 44.1 64.2367 43.83 63.69 43.29C63.15 42.75 62.88 41.97 62.88 40.95V37H64.18V40.9C64.18 41.62 64.3333 42.1433 64.64 42.47C64.9533 42.7967 65.3933 42.96 65.96 42.96C66.5267 42.96 66.9633 42.7967 67.27 42.47C67.5767 42.1433 67.73 41.62 67.73 40.9V37H69.01V40.95C69.01 41.97 68.7367 42.75 68.19 43.29C67.65 43.83 66.9033 44.1 65.95 44.1ZM72.4306 44V37H73.7306V44H72.4306ZM75.984 45L79.284 35.58H80.404L77.104 45H75.984ZM85.5449 44.1C84.5849 44.1 83.8316 43.83 83.2849 43.29C82.7449 42.75 82.4749 41.97 82.4749 40.95V37H83.7749V40.9C83.7749 41.62 83.9283 42.1433 84.2349 42.47C84.5483 42.7967 84.9883 42.96 85.5549 42.96C86.1216 42.96 86.5583 42.7967 86.8649 42.47C87.1716 42.1433 87.3249 41.62 87.3249 40.9V37H88.6049V40.95C88.6049 41.97 88.3316 42.75 87.7849 43.29C87.2449 43.83 86.4983 44.1 85.5449 44.1ZM91.0779 44L94.0279 39.94V40.92L91.2179 37H92.6879L94.7779 39.9L94.1779 39.91L96.2479 37H97.6579L94.8679 40.85V39.91L97.8379 44H96.3379L94.1379 40.92H94.7279L92.5579 44H91.0779ZM104.825 44V37H107.885C108.645 37 109.312 37.1467 109.885 37.44C110.458 37.7333 110.905 38.14 111.225 38.66C111.545 39.18 111.705 39.7933 111.705 40.5C111.705 41.2 111.545 41.8133 111.225 42.34C110.905 42.86 110.458 43.2667 109.885 43.56C109.312 43.8533 108.645 44 107.885 44H104.825ZM106.125 42.9H107.825C108.352 42.9 108.805 42.8 109.185 42.6C109.572 42.4 109.868 42.12 110.075 41.76C110.288 41.4 110.395 40.98 110.395 40.5C110.395 40.0133 110.288 39.5933 110.075 39.24C109.868 38.88 109.572 38.6 109.185 38.4C108.805 38.2 108.352 38.1 107.825 38.1H106.125V42.9ZM115.887 39.91H119.367V40.98H115.887V39.91ZM115.987 42.91H119.937V44H114.687V37H119.797V38.09H115.987V42.91ZM125.156 44.1C124.609 44.1 124.086 44.0233 123.586 43.87C123.086 43.71 122.689 43.5067 122.396 43.26L122.846 42.25C123.126 42.47 123.473 42.6533 123.886 42.8C124.299 42.9467 124.723 43.02 125.156 43.02C125.523 43.02 125.819 42.98 126.046 42.9C126.273 42.82 126.439 42.7133 126.546 42.58C126.653 42.44 126.706 42.2833 126.706 42.11C126.706 41.8967 126.629 41.7267 126.476 41.6C126.323 41.4667 126.123 41.3633 125.876 41.29C125.636 41.21 125.366 41.1367 125.066 41.07C124.773 41.0033 124.476 40.9267 124.176 40.84C123.883 40.7467 123.613 40.63 123.366 40.49C123.126 40.3433 122.929 40.15 122.776 39.91C122.623 39.67 122.546 39.3633 122.546 38.99C122.546 38.61 122.646 38.2633 122.846 37.95C123.053 37.63 123.363 37.3767 123.776 37.19C124.196 36.9967 124.726 36.9 125.366 36.9C125.786 36.9 126.203 36.9533 126.616 37.06C127.029 37.1667 127.389 37.32 127.696 37.52L127.286 38.53C126.973 38.3433 126.649 38.2067 126.316 38.12C125.983 38.0267 125.663 37.98 125.356 37.98C124.996 37.98 124.703 38.0233 124.476 38.11C124.256 38.1967 124.093 38.31 123.986 38.45C123.886 38.59 123.836 38.75 123.836 38.93C123.836 39.1433 123.909 39.3167 124.056 39.45C124.209 39.5767 124.406 39.6767 124.646 39.75C124.893 39.8233 125.166 39.8967 125.466 39.97C125.766 40.0367 126.063 40.1133 126.356 40.2C126.656 40.2867 126.926 40.4 127.166 40.54C127.413 40.68 127.609 40.87 127.756 41.11C127.909 41.35 127.986 41.6533 127.986 42.02C127.986 42.3933 127.883 42.74 127.676 43.06C127.476 43.3733 127.166 43.6267 126.746 43.82C126.326 44.0067 125.796 44.1 125.156 44.1ZM130.875 44V37H132.175V44H130.875ZM138.939 44.1C138.392 44.1 137.889 44.0133 137.429 43.84C136.975 43.66 136.579 43.41 136.239 43.09C135.899 42.7633 135.635 42.38 135.449 41.94C135.262 41.5 135.169 41.02 135.169 40.5C135.169 39.98 135.262 39.5 135.449 39.06C135.635 38.62 135.899 38.24 136.239 37.92C136.585 37.5933 136.989 37.3433 137.449 37.17C137.909 36.99 138.412 36.9 138.959 36.9C139.552 36.9 140.085 36.9967 140.559 37.19C141.039 37.3833 141.442 37.6667 141.769 38.04L140.949 38.84C140.675 38.5667 140.379 38.3667 140.059 38.24C139.745 38.1067 139.399 38.04 139.019 38.04C138.652 38.04 138.312 38.1 137.999 38.22C137.685 38.34 137.415 38.51 137.189 38.73C136.962 38.95 136.785 39.21 136.659 39.51C136.539 39.81 136.479 40.14 136.479 40.5C136.479 40.8533 136.539 41.18 136.659 41.48C136.785 41.78 136.962 42.0433 137.189 42.27C137.415 42.49 137.682 42.66 137.989 42.78C138.295 42.9 138.635 42.96 139.009 42.96C139.355 42.96 139.689 42.9067 140.009 42.8C140.335 42.6867 140.645 42.5 140.939 42.24L141.679 43.21C141.312 43.5033 140.885 43.7267 140.399 43.88C139.919 44.0267 139.432 44.1 138.939 44.1ZM140.449 43.04V40.42H141.679V43.21L140.449 43.04ZM144.993 44V37H146.063L150.453 42.39H149.923V37H151.213V44H150.143L145.753 38.61H146.283V44H144.993Z" fill="white"/>
<defs>
<filter id="filter0_d_112_2669" x="0.489258" y="8.12939" width="52.8408" height="40.7039" filterUnits="userSpaceOnUse" color-interpolation-filters="sRGB">
<feFlood flood-opacity="0" result="BackgroundImageFix"/>
<feColorMatrix in="SourceAlpha" type="matrix" values="0 0 0 0 0 0 0 0 0 0 0 0 0 0 0 0 0 0 127 0" result="hardAlpha"/>
<feOffset dy="1"/>
<feGaussianBlur stdDeviation="1.75"/>
<feComposite in2="hardAlpha" operator="out"/>
<feColorMatrix type="matrix" values="0 0 0 0 0 0 0 0 0 0 0 0 0 0 0 0 0 0 1 0"/>
<feBlend mode="normal" in2="BackgroundImageFix" result="effect1_dropShadow_112_2669"/>
<feBlend mode="normal" in="SourceGraphic" in2="effect1_dropShadow_112_2669" result="shape"/>
</filter>
</defs>
</svg>
