<svg width="48" height="54" viewBox="0 0 48 54" fill="none" xmlns="http://www.w3.org/2000/svg">
<path d="M23.9902 11.5605C24.1142 12.5318 24.2521 13.4415 24.4092 14.293C25.0726 17.8899 26.088 20.5771 27.8516 22.5527C29.6275 24.5422 32.0529 25.6895 35.2764 26.4355C36.1882 26.6466 37.1735 26.8254 38.2363 26.9844C37.1735 27.1434 36.1882 27.3241 35.2764 27.5352C32.053 28.2811 29.6275 29.4276 27.8516 31.417C26.0879 33.3927 25.0726 36.0807 24.4092 39.6777C24.2522 40.5287 24.1141 41.4376 23.9902 42.4082C23.8661 41.4374 23.7285 40.5279 23.5713 39.6768C22.9069 36.0798 21.891 33.3926 20.127 31.417C18.3506 29.4276 15.9248 28.2812 12.7012 27.5352C11.7889 27.3241 10.8036 27.1434 9.74023 26.9844C10.8035 26.8254 11.789 26.6466 12.7012 26.4355C15.9249 25.6895 18.3506 24.5421 20.127 22.5527C21.8909 20.5771 22.9069 17.8899 23.5713 14.293C23.7286 13.4415 23.866 12.5318 23.9902 11.5605Z" stroke="#448EF9" stroke-width="2"/>
</svg>
