<svg width="151" height="54" viewBox="0 0 151 54" fill="none" xmlns="http://www.w3.org/2000/svg">
<rect width="36.2562" height="22.1886" rx="3" transform="matrix(0.698362 0.715744 -0.698362 0.715744 17.3652 10.3533)" fill="#515151"/>
<rect width="36.2811" height="19.1821" rx="3" transform="matrix(0.698362 0.715744 -0.698362 0.715744 27.4668 0)" fill="#175DC2"/>
<path d="M56.8059 47.3974L42.8547 34.12L30.8957 34.12L43.8505 47.3974L56.8059 47.3974Z" fill="#175DC2"/>
<path d="M1 7.56543H22.7674C27.8332 7.56543 31.9294 11.6917 31.8923 16.7574H9.96872L1 7.56543Z" fill="#175DC2"/>
<rect width="21.9901" height="12.122" rx="3" transform="matrix(0.698362 0.715744 -0.698362 0.715744 26.7373 10.3557)" fill="#515151"/>
<g filter="url(#filter0_d_112_2669)">
<path d="M17.9406 24.928H45.8433C45.8433 30.0046 41.8279 34.1199 36.8746 34.1199H26.9093L17.9406 24.928Z" fill="white"/>
<path d="M34.8815 19.8213H45.8433V24.928H34.8815V19.8213Z" fill="white"/>
<path d="M49.83 44.3333L35.8787 31.0559L23.9197 31.056L36.8746 44.3333H49.83Z" fill="white"/>
<path d="M3.98926 10.6294H36.8746C41.8279 10.6294 45.8433 14.7448 45.8433 19.8213H12.958L3.98926 10.6294Z" fill="white"/>
</g>
<path d="M63.88 27V13H69.64C70.88 13 71.94 13.2 72.82 13.6C73.7133 14 74.4 14.5733 74.88 15.32C75.36 16.0667 75.6 16.9533 75.6 17.98C75.6 19.0067 75.36 19.8933 74.88 20.64C74.4 21.3733 73.7133 21.94 72.82 22.34C71.94 22.7267 70.88 22.92 69.64 22.92H65.32L66.48 21.74V27H63.88ZM73.04 27L69.5 21.92H72.28L75.84 27H73.04ZM66.48 22.02L65.32 20.78H69.52C70.6667 20.78 71.5267 20.5333 72.1 20.04C72.6867 19.5467 72.98 18.86 72.98 17.98C72.98 17.0867 72.6867 16.4 72.1 15.92C71.5267 15.44 70.6667 15.2 69.52 15.2H65.32L66.48 13.92V22.02ZM81.1089 27V13H83.7089V27H81.1089ZM94.138 27L88.018 13H90.838L96.298 25.66H94.678L100.198 13H102.798L96.698 27H94.138ZM109.275 18.82H116.235V20.96H109.275V18.82ZM109.475 24.82H117.375V27H106.875V13H117.095V15.18H109.475V24.82ZM122.874 27V13H128.634C129.874 13 130.934 13.2 131.814 13.6C132.707 14 133.394 14.5733 133.874 15.32C134.354 16.0667 134.594 16.9533 134.594 17.98C134.594 19.0067 134.354 19.8933 133.874 20.64C133.394 21.3733 132.707 21.94 131.814 22.34C130.934 22.7267 129.874 22.92 128.634 22.92H124.314L125.474 21.74V27H122.874ZM132.034 27L128.494 21.92H131.274L134.834 27H132.034ZM125.474 22.02L124.314 20.78H128.514C129.66 20.78 130.52 20.5333 131.094 20.04C131.68 19.5467 131.974 18.86 131.974 17.98C131.974 17.0867 131.68 16.4 131.094 15.92C130.52 15.44 129.66 15.2 128.514 15.2H124.314L125.474 13.92V22.02ZM142.747 27V15.2H138.107V13H149.987V15.2H145.347V27H142.747Z" fill="white"/>
<path d="M65.96 44.06C65.0667 44.06 64.3633 43.8033 63.85 43.29C63.3367 42.7767 63.08 42.0167 63.08 41.01V37H63.82V40.98C63.82 41.8067 64.0067 42.4167 64.38 42.81C64.7533 43.2033 65.28 43.4 65.96 43.4C66.6467 43.4 67.1767 43.2033 67.55 42.81C67.9233 42.4167 68.11 41.8067 68.11 40.98V37H68.83V41.01C68.83 42.0167 68.5733 42.7767 68.06 43.29C67.5533 43.8033 66.8533 44.06 65.96 44.06ZM72.6599 44V37H73.3999V44H72.6599ZM75.8875 45L79.1875 35.58H79.8375L76.5375 45H75.8875ZM85.0471 44.06C84.1538 44.06 83.4504 43.8033 82.9371 43.29C82.4238 42.7767 82.1671 42.0167 82.1671 41.01V37H82.9071V40.98C82.9071 41.8067 83.0938 42.4167 83.4671 42.81C83.8404 43.2033 84.3671 43.4 85.0471 43.4C85.7338 43.4 86.2638 43.2033 86.6371 42.81C87.0104 42.4167 87.1971 41.8067 87.1971 40.98V37H87.9171V41.01C87.9171 42.0167 87.6604 42.7767 87.1471 43.29C86.6404 43.8033 85.9404 44.06 85.0471 44.06ZM90.6794 44L93.5494 40.12V40.69L90.8494 37H91.6994L93.9694 40.08L93.6394 40.09L95.9094 37H96.7094L94.0394 40.64V40.12L96.8994 44H96.0394L93.6194 40.71H93.9294L91.5294 44H90.6794ZM104.029 44V37H106.879C107.626 37 108.279 37.15 108.839 37.45C109.406 37.7433 109.846 38.1533 110.159 38.68C110.472 39.2067 110.629 39.8133 110.629 40.5C110.629 41.1867 110.472 41.7933 110.159 42.32C109.846 42.8467 109.406 43.26 108.839 43.56C108.279 43.8533 107.626 44 106.879 44H104.029ZM104.769 43.36H106.839C107.459 43.36 107.996 43.24 108.449 43C108.909 42.7533 109.266 42.4167 109.519 41.99C109.772 41.5567 109.899 41.06 109.899 40.5C109.899 39.9333 109.772 39.4367 109.519 39.01C109.266 38.5833 108.909 38.25 108.449 38.01C107.996 37.7633 107.459 37.64 106.839 37.64H104.769V43.36ZM114.551 40.13H118.251V40.76H114.551V40.13ZM114.631 43.36H118.841V44H113.891V37H118.691V37.64H114.631V43.36ZM124.11 44.06C123.59 44.06 123.09 43.9767 122.61 43.81C122.137 43.6367 121.77 43.4167 121.51 43.15L121.8 42.58C122.047 42.82 122.377 43.0233 122.79 43.19C123.21 43.35 123.65 43.43 124.11 43.43C124.55 43.43 124.907 43.3767 125.18 43.27C125.46 43.1567 125.664 43.0067 125.79 42.82C125.924 42.6333 125.99 42.4267 125.99 42.2C125.99 41.9267 125.91 41.7067 125.75 41.54C125.597 41.3733 125.394 41.2433 125.14 41.15C124.887 41.05 124.607 40.9633 124.3 40.89C123.994 40.8167 123.687 40.74 123.38 40.66C123.074 40.5733 122.79 40.46 122.53 40.32C122.277 40.18 122.07 39.9967 121.91 39.77C121.757 39.5367 121.68 39.2333 121.68 38.86C121.68 38.5133 121.77 38.1967 121.95 37.91C122.137 37.6167 122.42 37.3833 122.8 37.21C123.18 37.03 123.667 36.94 124.26 36.94C124.654 36.94 125.044 36.9967 125.43 37.11C125.817 37.2167 126.15 37.3667 126.43 37.56L126.18 38.15C125.88 37.95 125.56 37.8033 125.22 37.71C124.887 37.6167 124.564 37.57 124.25 37.57C123.83 37.57 123.484 37.6267 123.21 37.74C122.937 37.8533 122.734 38.0067 122.6 38.2C122.474 38.3867 122.41 38.6 122.41 38.84C122.41 39.1133 122.487 39.3333 122.64 39.5C122.8 39.6667 123.007 39.7967 123.26 39.89C123.52 39.9833 123.804 40.0667 124.11 40.14C124.417 40.2133 124.72 40.2933 125.02 40.38C125.327 40.4667 125.607 40.58 125.86 40.72C126.12 40.8533 126.327 41.0333 126.48 41.26C126.64 41.4867 126.72 41.7833 126.72 42.15C126.72 42.49 126.627 42.8067 126.44 43.1C126.254 43.3867 125.967 43.62 125.58 43.8C125.2 43.9733 124.71 44.06 124.11 44.06ZM129.933 44V37H130.673V44H129.933ZM137.62 44.06C137.087 44.06 136.593 43.9733 136.14 43.8C135.693 43.62 135.303 43.37 134.97 43.05C134.643 42.73 134.387 42.3533 134.2 41.92C134.02 41.4867 133.93 41.0133 133.93 40.5C133.93 39.9867 134.02 39.5133 134.2 39.08C134.387 38.6467 134.647 38.27 134.98 37.95C135.313 37.63 135.703 37.3833 136.15 37.21C136.603 37.03 137.097 36.94 137.63 36.94C138.163 36.94 138.65 37.0233 139.09 37.19C139.537 37.3567 139.917 37.61 140.23 37.95L139.77 38.42C139.477 38.1267 139.153 37.9167 138.8 37.79C138.447 37.6633 138.067 37.6 137.66 37.6C137.227 37.6 136.827 37.6733 136.46 37.82C136.1 37.96 135.783 38.1633 135.51 38.43C135.243 38.69 135.033 38.9967 134.88 39.35C134.733 39.6967 134.66 40.08 134.66 40.5C134.66 40.9133 134.733 41.2967 134.88 41.65C135.033 42.0033 135.243 42.3133 135.51 42.58C135.783 42.84 136.1 43.0433 136.46 43.19C136.827 43.33 137.223 43.4 137.65 43.4C138.05 43.4 138.427 43.34 138.78 43.22C139.14 43.1 139.47 42.8967 139.77 42.61L140.19 43.17C139.857 43.4633 139.467 43.6867 139.02 43.84C138.573 43.9867 138.107 44.06 137.62 44.06ZM139.48 43.08V40.5H140.19V43.17L139.48 43.08ZM143.885 44V37H144.495L149.325 43.08H149.005V37H149.735V44H149.125L144.305 37.92H144.625V44H143.885Z" fill="white"/>
<defs>
<filter id="filter0_d_112_2669" x="0.489258" y="8.12939" width="52.8408" height="40.7039" filterUnits="userSpaceOnUse" color-interpolation-filters="sRGB">
<feFlood flood-opacity="0" result="BackgroundImageFix"/>
<feColorMatrix in="SourceAlpha" type="matrix" values="0 0 0 0 0 0 0 0 0 0 0 0 0 0 0 0 0 0 127 0" result="hardAlpha"/>
<feOffset dy="1"/>
<feGaussianBlur stdDeviation="1.75"/>
<feComposite in2="hardAlpha" operator="out"/>
<feColorMatrix type="matrix" values="0 0 0 0 0 0 0 0 0 0 0 0 0 0 0 0 0 0 1 0"/>
<feBlend mode="normal" in2="BackgroundImageFix" result="effect1_dropShadow_112_2669"/>
<feBlend mode="normal" in="SourceGraphic" in2="effect1_dropShadow_112_2669" result="shape"/>
</filter>
</defs>
</svg>
