<svg width="48" height="48" viewBox="0 0 48 48" fill="none" xmlns="http://www.w3.org/2000/svg">
<rect y="48" width="48" height="48" rx="24" transform="rotate(-90 0 48)" fill="#175DC2" fill-opacity="0.3"/>
<path d="M34.0624 25.0568L32.2287 26.8896C32.1595 26.9588 32.0659 26.9982 31.9681 26.9993H28.0606L25.0606 23.9993L28.0606 20.9993H31.9681C32.0672 20.9995 32.1623 21.0389 32.2324 21.109L34.0662 22.9418C34.3451 23.2234 34.5012 23.6038 34.5005 24.0001C34.4998 24.3964 34.3423 24.7763 34.0624 25.0568ZM18.2853 19.4993H20.2493C20.448 19.4994 20.6385 19.5783 20.779 19.7187L23.9993 22.9381L27.2196 19.7187C27.3602 19.5783 27.5507 19.4994 27.7493 19.4993H29.7181C29.7923 19.4994 29.8648 19.4774 29.9266 19.4362C29.9883 19.395 30.0364 19.3364 30.0648 19.2679C30.0932 19.1993 30.1006 19.1239 30.0861 19.0511C30.0716 18.9783 30.0359 18.9114 29.9834 18.859L25.0615 13.9362C24.7805 13.6568 24.4003 13.5 24.004 13.5C23.6077 13.5 23.2275 13.6568 22.9465 13.9362L18.0199 18.859C17.9674 18.9114 17.9317 18.9783 17.9172 19.0511C17.9027 19.1239 17.9101 19.1993 17.9385 19.2679C17.9669 19.3364 18.015 19.395 18.0768 19.4362C18.1385 19.4774 18.211 19.4994 18.2853 19.4993ZM29.7181 28.4993H27.7493C27.5507 28.4992 27.3602 28.4203 27.2196 28.2799L23.9993 25.0596L20.779 28.2799C20.6385 28.4203 20.448 28.4992 20.2493 28.4993H18.2806C18.2064 28.4993 18.1338 28.5212 18.0721 28.5624C18.0103 28.6036 17.9622 28.6622 17.9338 28.7308C17.9054 28.7993 17.898 28.8748 17.9125 28.9476C17.927 29.0203 17.9627 29.0872 18.0153 29.1396L22.9371 34.0624C23.2182 34.3418 23.5983 34.4986 23.9946 34.4986C24.3909 34.4986 24.7711 34.3418 25.0521 34.0624L29.974 29.1396C30.026 29.0878 30.0616 29.0218 30.0764 28.9498C30.0912 28.8779 30.0846 28.8032 30.0573 28.735C30.0301 28.6668 29.9834 28.6081 29.9231 28.5662C29.8628 28.5243 29.7915 28.5011 29.7181 28.4993ZM22.9437 23.9993L19.9437 20.9993H16.0306C15.9314 20.9995 15.8363 21.0389 15.7662 21.109L13.9362 22.9418C13.6568 23.2229 13.5 23.603 13.5 23.9993C13.5 24.3956 13.6568 24.7758 13.9362 25.0568L15.7699 26.8896C15.8392 26.9588 15.9327 26.9982 16.0306 26.9993H19.9381L22.9437 23.9993Z" fill="#175DC2"/>
</svg>
